<?xml version="1.0" encoding="UTF-8" standalone="no"?>
<!-- Created with Inkscape (http://www.inkscape.org/) -->

<svg
   xmlns:dc="http://purl.org/dc/elements/1.1/"
   xmlns:cc="http://creativecommons.org/ns#"
   xmlns:rdf="http://www.w3.org/1999/02/22-rdf-syntax-ns#"
   xmlns:svg="http://www.w3.org/2000/svg"
   xmlns="http://www.w3.org/2000/svg"
   xmlns:sodipodi="http://sodipodi.sourceforge.net/DTD/sodipodi-0.dtd"
   xmlns:inkscape="http://www.inkscape.org/namespaces/inkscape"
   width="48"
   height="48"
   viewBox="0 0 48 48"
   id="svg2"
   version="1.1"
   inkscape:version="0.92.4 (5da689c313, 2019-01-14)"
   sodipodi:docname="loading.svg"
   inkscape:export-filename="/home/raster/C/wc/media/note-important.png"
   inkscape:export-xdpi="90"
   inkscape:export-ydpi="90">
  <defs
     id="defs4" />
  <sodipodi:namedview
     id="base"
     pagecolor="#404040"
     bordercolor="#666666"
     borderopacity="1.0"
     inkscape:pageopacity="0"
     inkscape:pageshadow="2"
     inkscape:zoom="21.375"
     inkscape:cx="24"
     inkscape:cy="24"
     inkscape:document-units="px"
     inkscape:current-layer="layer1"
     showgrid="true"
     units="px"
     inkscape:showpageshadow="false"
     inkscape:window-width="1833"
     inkscape:window-height="1200"
     inkscape:window-x="345"
     inkscape:window-y="57"
     inkscape:window-maximized="0"
     inkscape:object-paths="true"
     inkscape:snap-intersection-paths="true"
     inkscape:object-nodes="true"
     inkscape:snap-smooth-nodes="true">
    <inkscape:grid
       type="xygrid"
       id="grid4136"
       units="px"
       spacingx="1"
       spacingy="1" />
  </sodipodi:namedview>
  <metadata
     id="metadata7">
    <rdf:RDF>
      <cc:Work
         rdf:about="">
        <dc:format>image/svg+xml</dc:format>
        <dc:type
           rdf:resource="http://purl.org/dc/dcmitype/StillImage" />
        <dc:title></dc:title>
      </cc:Work>
    </rdf:RDF>
  </metadata>
  <g
     inkscape:label="Layer 1"
     inkscape:groupmode="layer"
     id="layer1"
     transform="translate(0,-1004.3622)">
    <path
       d="m 25,1008.3622 a 15,15 0 0 0 -15,15 15,15 0 0 0 15,15 15,15 0 0 0 15,-15 15,15 0 0 0 -15,-15 z m 0,3 a 12,12 0 0 1 12,12 12,12 0 0 1 -12,12 12,12 0 0 1 -12,-12 12,12 0 0 1 12,-12 z m -0.02344,3.4805 A 1.50015,1.50015 0 0 0 23.5,1016.3622 v 7 a 1.50015,1.50015 0 0 0 0.439453,1.0625 l 4,4 a 1.5005306,1.5005306 0 1 0 2.121094,-2.123 L 26.5,1022.7411 v -6.3789 a 1.50015,1.50015 0 0 0 -1.523438,-1.5195 z M 13.5,1042.62 c -0.861979,0 -1.53125,0.2682 -2.007812,0.8047 -0.476563,0.5365 -0.714844,1.2682 -0.714844,2.1953 0,0.5547 0.110677,1.0469 0.332031,1.4766 0.221354,0.4271 0.53776,0.7617 0.949219,1.0039 0.414062,0.2396 0.893229,0.3594 1.4375,0.3594 0.5625,0 1.049479,-0.1224 1.460937,-0.3672 0.414063,-0.2474 0.726563,-0.5886 0.9375,-1.0235 0.213542,-0.4375 0.320313,-0.9427 0.320313,-1.5156 0,-0.8906 -0.24349,-1.6016 -0.730469,-2.1328 C 15,1042.8869 14.338542,1042.62 13.5,1042.62 Z m 25.628906,0 c -0.541666,0 -1.018229,0.1237 -1.429687,0.3711 -0.411459,0.2448 -0.726563,0.5846 -0.945313,1.0195 -0.21875,0.4349 -0.328125,0.931 -0.328125,1.4883 0,0.5886 0.104167,1.1055 0.3125,1.5508 0.208334,0.4427 0.515625,0.7891 0.921875,1.0391 0.408854,0.2474 0.894532,0.3711 1.457032,0.3711 0.799479,0 1.399739,-0.2058 1.800781,-0.6172 0.401041,-0.4141 0.601562,-1.0235 0.601562,-1.8282 0,-0.06 -0.0026,-0.1523 -0.0078,-0.2773 H 39.5625 v 0.8594 h 1.011719 c -0.0078,0.2213 -0.08073,0.4101 -0.21875,0.5664 -0.135417,0.1536 -0.309896,0.2656 -0.523438,0.3359 -0.210937,0.068 -0.453125,0.1016 -0.726562,0.1016 -0.348959,0 -0.657552,-0.095 -0.925781,-0.2852 -0.265626,-0.1901 -0.46875,-0.4427 -0.609376,-0.7578 -0.13802,-0.3177 -0.207031,-0.6719 -0.207031,-1.0625 0,-0.5807 0.171875,-1.0612 0.515625,-1.4414 0.34375,-0.3828 0.755209,-0.5742 1.234375,-0.5742 0.296875,0 0.558594,0.078 0.785157,0.2344 0.226562,0.1562 0.38802,0.3541 0.484374,0.5937 h 1.007813 c -0.148437,-0.5156 -0.414063,-0.9258 -0.796875,-1.2305 -0.380208,-0.3046 -0.86849,-0.457 -1.464844,-0.457 z m -32.6249998,0.125 v 5.6641 h 3.5546878 v -0.8594 H 7.4414062 v -4.8047 z m 12.3515628,0 -2.261719,5.6641 h 0.992188 l 0.675781,-1.6914 h 1.984375 l 0.675781,1.6914 h 0.992187 l -2.261718,-5.6641 z m 3.71875,0 v 5.6641 h 2.066406 c 0.283854,0 0.546875,-0.025 0.789063,-0.074 0.244791,-0.052 0.485677,-0.1446 0.722656,-0.2774 0.236979,-0.1328 0.4375,-0.3034 0.601562,-0.5117 0.166667,-0.2109 0.300782,-0.4857 0.402344,-0.8242 0.101562,-0.3412 0.152344,-0.7331 0.152344,-1.1758 0,-0.2292 -0.01302,-0.4414 -0.03906,-0.6367 -0.02344,-0.1979 -0.0651,-0.3933 -0.125,-0.586 -0.05729,-0.1927 -0.132812,-0.3671 -0.226562,-0.5234 -0.09375,-0.1562 -0.213542,-0.3008 -0.359375,-0.4336 -0.143229,-0.1328 -0.309896,-0.2435 -0.5,-0.332 -0.1875,-0.091 -0.408854,-0.1615 -0.664063,-0.211 -0.255208,-0.052 -0.53776,-0.078 -0.847656,-0.078 z m 5.222656,0 v 0.8594 H 28.5 v 3.9453 h -0.703125 v 0.8594 h 2.34375 v -0.8594 H 29.4375 v -3.9453 h 0.703125 v -0.8594 z m 3.058594,0 v 5.6641 h 0.9375 v -3.8086 l 2.636719,3.8086 h 0.9375 v -5.6641 h -0.9375 v 3.8242 l -2.636719,-3.8242 z m -17.347657,0.7344 c 0.572917,0 1.010417,0.1849 1.3125,0.5547 0.304688,0.3698 0.457032,0.8763 0.457032,1.5195 0,0.2057 -0.01563,0.3997 -0.04687,0.582 -0.03125,0.1823 -0.08854,0.3659 -0.171875,0.5508 -0.08073,0.1823 -0.186198,0.3399 -0.316406,0.4727 -0.130209,0.1302 -0.302084,0.237 -0.515626,0.3203 -0.210937,0.081 -0.454427,0.1211 -0.730468,0.1211 -0.572917,0 -1.013021,-0.1745 -1.320313,-0.5235 -0.307291,-0.3489 -0.460937,-0.832 -0.460937,-1.4492 0,-1.4323 0.597656,-2.1484 1.792968,-2.1484 z m 10.003907,0.125 h 1.023437 c 0.585938,0 1.037761,0.168 1.355469,0.5039 0.320313,0.3333 0.480469,0.8086 0.480469,1.4258 0,0.6172 -0.161459,1.108 -0.484375,1.4726 -0.320313,0.362 -0.764323,0.543 -1.332031,0.543 h -1.042969 z m -4.257813,0.625 0.648438,1.6289 h -1.296875 z"
       id="path3713"
       inkscape:connector-curvature="0"
       style="fill:#ffffff" />
  </g>
</svg>
