<?xml version="1.0" encoding="UTF-8" standalone="no"?>
<!-- Generator: Adobe Illustrator 16.0.0, SVG Export Plug-In . SVG Version: 6.00 Build 0)  -->

<svg
   xmlns:dc="http://purl.org/dc/elements/1.1/"
   xmlns:cc="http://creativecommons.org/ns#"
   xmlns:rdf="http://www.w3.org/1999/02/22-rdf-syntax-ns#"
   xmlns:svg="http://www.w3.org/2000/svg"
   xmlns="http://www.w3.org/2000/svg"
   xmlns:xlink="http://www.w3.org/1999/xlink"
   xmlns:sodipodi="http://sodipodi.sourceforge.net/DTD/sodipodi-0.dtd"
   xmlns:inkscape="http://www.inkscape.org/namespaces/inkscape"
   version="1.1"
   id="Layer_1"
   x="0px"
   y="0px"
   width="96"
   height="96"
   viewBox="0 0 96.000003 96.000003"
   enable-background="new 0 0 285.417 263.542"
   xml:space="preserve"
   inkscape:version="0.92.2 5c3e80d, 2017-08-06"
   sodipodi:docname="piggy-bank.svg"><metadata
     id="metadata93"><rdf:RDF><cc:Work
         rdf:about=""><dc:format>image/svg+xml</dc:format><dc:type
           rdf:resource="http://purl.org/dc/dcmitype/StillImage" /><dc:title></dc:title></cc:Work></rdf:RDF></metadata><defs
     id="defs91"><defs
       id="defs4620"><rect
         height="300"
         width="300"
         y="-3.783"
         x="-3.4790001"
         id="SVGID_1_-3" /></defs><clipPath
       id="SVGID_2_-3"><use
         id="use4624"
         overflow="visible"
         xlink:href="#SVGID_1_-3"
         style="overflow:visible"
         x="0"
         y="0"
         width="100%"
         height="100%" /></clipPath><defs
       id="defs4628"><rect
         id="SVGID_3_-7"
         x="-3.4790001"
         y="-3.783"
         width="300"
         height="300" /></defs><clipPath
       id="SVGID_4_-7"><use
         height="100%"
         width="100%"
         y="0"
         x="0"
         style="overflow:visible"
         xlink:href="#SVGID_3_-7"
         overflow="visible"
         id="use4632" /></clipPath><defs
       id="defs4636"><rect
         height="300"
         width="300"
         y="-3.783"
         x="-3.4790001"
         id="SVGID_5_-7" /></defs><clipPath
       id="SVGID_6_-5"><use
         id="use4640"
         overflow="visible"
         xlink:href="#SVGID_5_-7"
         style="overflow:visible"
         x="0"
         y="0"
         width="100%"
         height="100%" /></clipPath></defs><sodipodi:namedview
     pagecolor="#ffffff"
     bordercolor="#666666"
     borderopacity="1"
     objecttolerance="10"
     gridtolerance="10"
     guidetolerance="10"
     inkscape:pageopacity="0"
     inkscape:pageshadow="2"
     inkscape:window-width="3440"
     inkscape:window-height="1376"
     id="namedview89"
     showgrid="false"
     inkscape:zoom="2.671301"
     inkscape:cx="80.566495"
     inkscape:cy="131.771"
     inkscape:window-x="0"
     inkscape:window-y="0"
     inkscape:window-maximized="1"
     inkscape:current-layer="Layer_1" /><g
     id="g5796"
     transform="matrix(0.13319273,0,0,0.13319273,15.601931,61.703603)"><path
       transform="matrix(0.37708478,0,0,0.37708478,-138.27523,120.4333)"
       style="fill:#fff27d"
       inkscape:connector-curvature="0"
       clip-path="url(#SVGID_6_-5)"
       d="m 235.584,250.01 v 13.395 c 0,5.548 10.492,10.043 23.438,10.043 12.946,0 23.438,-4.495 23.438,-10.043 V 250.01"
       id="path4642" /><path
       transform="matrix(0.37708478,0,0,0.37708478,-138.27523,120.4333)"
       style="fill:#5a5a9b"
       inkscape:connector-curvature="0"
       clip-path="url(#SVGID_6_-5)"
       d="m 259.021,277.467 c -2.586,0 -4.688,-2.097 -4.688,-4.688 l 0.86,-0.485 c -0.558,-0.796 -0.86,-1.739 -0.86,-2.705 v -20.247 c 0,-2.591 2.102,-4.688 4.688,-4.688 h 23.438 c 2.586,0 4.688,2.097 4.688,4.688 v 13.385 c -10e-4,9.678 -14.155,14.74 -28.126,14.74 m 4.688,-9.988 v 0.402 c 8.968,-0.833 13.732,-3.918 14.067,-5.199 l -0.005,-8.652 h -14.063 v 13.449 z"
       id="path4644" /><path
       transform="matrix(0.37708478,0,0,0.37708478,-138.27523,120.4333)"
       style="fill:#ffc661"
       inkscape:connector-curvature="0"
       clip-path="url(#SVGID_6_-5)"
       d="m 235.584,235.948 v 13.395 c 0,5.548 10.492,10.043 23.438,10.043 12.946,0 23.438,-4.495 23.438,-10.043 v -13.395"
       id="path4646" /><path
       transform="matrix(0.37708478,0,0,0.37708478,-138.27523,120.4333)"
       style="fill:#5a5a9b"
       inkscape:connector-curvature="0"
       clip-path="url(#SVGID_6_-5)"
       d="m 259.021,264.073 c -2.586,0 -4.688,-2.096 -4.688,-4.688 v -23.438 c 0,-2.591 2.102,-4.688 4.688,-4.688 h 23.438 c 2.586,0 4.688,2.097 4.688,4.688 v 13.395 c -10e-4,9.673 -14.155,14.731 -28.126,14.731 m 4.688,-23.438 v 13.853 c 8.968,-0.833 13.732,-3.919 14.067,-5.2 l -0.005,-8.652 h -14.062 z"
       id="path4648" /><g
       transform="matrix(0.37708478,0,0,0.37708478,-138.27523,120.4333)"
       id="g4652"><defs
         id="defs4654"><rect
           height="23.438"
           width="23.438"
           y="250.00999"
           x="235.584"
           id="SVGID_7_-4" /></defs><clipPath
         id="SVGID_8_-8"><use
           id="use4658"
           overflow="visible"
           xlink:href="#SVGID_7_-4"
           style="overflow:visible"
           x="0"
           y="0"
           width="100%"
           height="100%" /></clipPath><path
         id="path4660"
         d="m 235.584,250.01 v 13.395 c 0,5.548 10.492,10.043 23.438,10.043 V 250.01 Z"
         clip-path="url(#SVGID_8_-8)"
         inkscape:connector-curvature="0"
         style="fill:#ffffff" /></g><path
       transform="matrix(0.37708478,0,0,0.37708478,-138.27523,120.4333)"
       style="fill:#fff27d"
       inkscape:connector-curvature="0"
       clip-path="url(#SVGID_6_-5)"
       d="m 235.584,235.948 v 13.395 c 0,5.548 10.492,10.043 23.438,10.043 v -23.438 z"
       id="path4662" /><g
       transform="matrix(0.37708478,0,0,0.37708478,-138.27523,120.4333)"
       id="g4668"><defs
         id="defs4670"><rect
           height="23.438"
           width="23.438"
           y="259.38501"
           x="212.146"
           id="SVGID_9_-4" /></defs><clipPath
         id="SVGID_10_-2"><use
           id="use4674"
           overflow="visible"
           xlink:href="#SVGID_9_-4"
           style="overflow:visible"
           x="0"
           y="0"
           width="100%"
           height="100%" /></clipPath><path
         id="path4676"
         d="m 212.146,259.385 v 13.395 c 0,5.548 10.492,10.043 23.438,10.043 v -23.438 z"
         clip-path="url(#SVGID_10_-2)"
         inkscape:connector-curvature="0"
         style="fill:#ffffff" /></g><path
       transform="matrix(0.37708478,0,0,0.37708478,-138.27523,120.4333)"
       style="fill:#fff27d"
       inkscape:connector-curvature="0"
       clip-path="url(#SVGID_6_-5)"
       d="m 212.146,259.385 v 13.395 c 0,5.548 10.492,10.043 23.438,10.043 12.946,0 23.438,-4.495 23.438,-10.043 v -13.395"
       id="path4664" /><g
       transform="matrix(0.37708478,0,0,0.37708478,-138.27523,120.4333)"
       id="g4686"><defs
         id="defs4688"><rect
           height="23.438"
           width="23.438"
           y="231.25999"
           x="212.146"
           id="SVGID_11_-2" /></defs><clipPath
         id="SVGID_12_-5"><use
           id="use4692"
           overflow="visible"
           xlink:href="#SVGID_11_-2"
           style="overflow:visible"
           x="0"
           y="0"
           width="100%"
           height="100%" /></clipPath><path
         id="path4694"
         d="m 212.146,231.26 v 13.395 c 0,5.548 10.492,10.043 23.438,10.043 V 231.26 Z"
         clip-path="url(#SVGID_12_-5)"
         inkscape:connector-curvature="0"
         style="fill:#ffffff" /></g><path
       transform="matrix(0.37708478,0,0,0.37708478,-138.27523,120.4333)"
       style="fill:#ffc661"
       inkscape:connector-curvature="0"
       clip-path="url(#SVGID_6_-5)"
       d="m 212.146,245.323 v 13.395 c 0,5.548 10.492,10.043 23.438,10.043 12.946,0 23.438,-4.495 23.438,-10.043 v -13.395"
       id="path4678" /><path
       transform="matrix(0.37708478,0,0,0.37708478,-138.27523,120.4333)"
       style="fill:#fff27d"
       inkscape:connector-curvature="0"
       clip-path="url(#SVGID_6_-5)"
       d="m 212.146,245.323 v 13.395 c 0,5.548 10.492,10.043 23.438,10.043 v -23.438 z"
       id="path4680" /><path
       transform="matrix(0.37708478,0,0,0.37708478,-138.27523,120.4333)"
       style="fill:#fff27d"
       inkscape:connector-curvature="0"
       clip-path="url(#SVGID_6_-5)"
       d="m 212.146,231.26 v 13.395 c 0,5.548 10.492,10.043 23.438,10.043 12.946,0 23.438,-4.495 23.438,-10.043 V 231.26"
       id="path4682" /><path
       transform="matrix(0.37708478,0,0,0.37708478,-138.27523,120.4333)"
       style="fill:#fff27d"
       inkscape:connector-curvature="0"
       clip-path="url(#SVGID_6_-5)"
       d="m 259.021,245.997 c 12.945,0 23.438,-4.5 23.438,-10.049 0,-5.548 -10.492,-10.043 -23.438,-10.043"
       id="path4756" /><path
       transform="matrix(0.37708478,0,0,0.37708478,-138.27523,120.4333)"
       style="fill:#ffc661"
       inkscape:connector-curvature="0"
       clip-path="url(#SVGID_6_-5)"
       d="m 212.146,217.198 v 13.395 c 0,5.548 10.492,10.043 23.438,10.043 12.946,0 23.438,-4.495 23.438,-10.043 v -13.395"
       id="path4762" /><path
       transform="matrix(0.37708478,0,0,0.37708478,-138.27523,120.4333)"
       style="fill:#fff27d"
       inkscape:connector-curvature="0"
       clip-path="url(#SVGID_6_-5)"
       d="m 212.146,217.198 v 13.395 c 0,5.548 10.492,10.043 23.438,10.043 v -23.438 z"
       id="path4764" /><path
       transform="matrix(0.37708478,0,0,0.37708478,-138.27523,120.4333)"
       style="fill:#fff27d"
       inkscape:connector-curvature="0"
       clip-path="url(#SVGID_6_-5)"
       d="m 235.584,207.155 c 12.945,0 23.438,4.495 23.438,10.043 0,5.549 -10.492,10.049 -23.438,10.049 -12.946,0 -23.438,-4.5 -23.438,-10.049 0,-5.548 10.493,-10.043 23.438,-10.043"
       id="path4766" /><path
       transform="matrix(0.37708478,0,0,0.37708478,-138.27523,120.4333)"
       style="fill:#5a5a9b"
       inkscape:connector-curvature="0"
       clip-path="url(#SVGID_6_-5)"
       d="m 287.146,235.948 c 0,-8.583 -11.157,-13.533 -23.438,-14.536 v -4.209 c 0,-0.001 0,-0.001 0,-0.002 v -0.003 c 0,-9.668 -14.154,-14.73 -28.125,-14.73 -13.971,0 -28.125,5.063 -28.125,14.73 v 0.003 c 0,0.001 0,0.001 0,0.002 v 26.774 c 0,0.157 0.014,0.311 0.021,0.466 -0.004,0.071 -0.021,0.14 -0.021,0.212 v 13.385 c 0,0.157 0.014,0.311 0.021,0.466 -0.004,0.071 -0.021,0.14 -0.021,0.212 v 13.385 c 0,9.678 14.154,14.74 28.125,14.74 13.971,0 28.125,-5.063 28.125,-14.74 v -13.385 c 0,-0.072 -0.018,-0.141 -0.021,-0.212 0.008,-0.155 0.021,-0.309 0.021,-0.466 v -7.555 c 12.281,-1.002 23.438,-5.949 23.438,-14.537 z m -70.312,-18.701 c 0.418,-1.494 6.782,-5.404 18.75,-5.404 11.847,0 18.205,3.827 18.74,5.355 -0.539,1.529 -6.894,5.361 -18.74,5.361 -11.968,0 -18.327,-3.906 -18.75,-5.292 z m 0,11.191 c 5.218,2.309 12.003,3.491 18.75,3.491 6.749,0 13.536,-1.183 18.754,-3.493 l 0.001,2.102 c -0.394,1.492 -6.762,5.415 -18.755,5.415 -11.993,0 -18.361,-3.928 -18.75,-5.36 z m 0,13.395 c 5.218,2.311 12.003,3.495 18.75,3.495 6.749,0 13.536,-1.185 18.754,-3.497 l 0.001,2.102 c -0.394,1.487 -6.762,5.41 -18.755,5.41 -11.993,0 -18.361,-3.923 -18.75,-5.365 z m 18.75,35.634 c -11.993,0 -18.361,-3.923 -18.75,-5.365 v -2.817 c 5.218,2.311 12.003,3.495 18.75,3.495 6.749,0 13.535,-1.185 18.754,-3.497 l 0.001,2.774 c -0.394,1.487 -6.762,5.41 -18.755,5.41 z m 0,-14.062 c -11.993,0 -18.361,-3.923 -18.75,-5.365 v -2.817 c 5.218,2.311 12.003,3.495 18.75,3.495 6.749,0 13.535,-1.185 18.754,-3.497 l 0.001,2.774 c -0.394,1.487 -6.762,5.41 -18.755,5.41 z m 28.125,-22.32 v -10.274 c 8.957,0.836 13.729,3.901 14.067,5.082 -0.338,1.283 -5.11,4.357 -14.067,5.192 z"
       id="path4772" /></g><path
     style="fill:#db9cab;stroke-width:0.05688811"
     d="m 15.382598,83.354072 c -0.689693,-0.0095 -1.901878,0.283303 -2.441523,1.061653 -0.0083,0.01149 -0.01255,0.02213 -0.01989,0.03333 -0.30331,-0.167715 -0.618947,-0.308948 -0.943321,-0.423772 l -0.250774,0.182441 0.179664,0.0029 -0.298107,1.000875 -0.362106,0.404662 0.489882,0.745323 -1.022208,1.213872 0.127776,1.213873 0.681435,0.894432 -0.497549,1.539979 -0.499771,0.817989 L 9.7771184,91.515186 9.2234593,90.258647 9.1382381,88.469783 8.4354697,87.1708 8.8614643,86.404144 7.9243656,85.594822 7.9456986,84.14673 8.0741411,84.14883 7.8768104,83.977054 c -2.2649164,0.738792 -3.8851693,2.707763 -3.8851693,5.021043 0.00153,0.979955 0.2944129,1.937419 0.8407663,2.750407 0.376315,0.562794 0.4925615,1.260417 0.3189957,1.915085 l -0.2009972,0.689102 c -0.2920636,1.067449 2.9100367,1.778618 3.1746233,0.876543 L 8.24125,94.841907 c 0.096482,-0.36562 0.4473596,-0.604319 0.822878,-0.559548 0.4936182,0.06121 0.992624,0.06515 1.486868,0.01144 0.379672,-0.04739 0.736363,0.190084 0.838989,0.558548 l 0.134109,0.396106 c 0.296103,0.92739 3.511979,0.127309 3.16718,-0.90521 l -0.189109,-0.585881 c -0.179425,-0.656489 -0.06171,-1.358095 0.321885,-1.919751 l 0.0044,-0.0066 c 0.28956,-0.432578 0.773683,-0.694023 1.293982,-0.699769 h 0.402329 c 0.736417,0 1.333315,-0.955151 1.333315,-2.133304 0,-1.177983 -0.596898,-2.133193 -1.333315,-2.133193 h -0.09478 c -0.672417,0.0023 -1.306799,-0.312938 -1.710421,-0.8511 -0.03982,-0.05336 -0.08069,-0.10611 -0.122331,-0.15822 0.67913,-0.393609 1.492095,-1.897241 1.283315,-2.362301 -0.03824,-0.08536 -0.228113,-0.135387 -0.497992,-0.13911 z"
     id="path11"
     inkscape:connector-curvature="0" /><g
     style="opacity:0.2"
     id="g13"
     enable-background="new    "
     transform="matrix(0.05688812,0,0,0.05688812,2.0041128,81.080104)"><g
       id="g15"><defs
         id="defs17"><rect
           height="28.417999"
           width="60.550999"
           y="227.535"
           x="51.459999"
           id="SVGID_1_" /></defs><clipPath
         id="SVGID_2_"><use
           height="100%"
           width="100%"
           y="0"
           x="0"
           style="overflow:visible"
           id="use21"
           overflow="visible"
           xlink:href="#SVGID_1_" /></clipPath><path
         style="fill:#750000"
         inkscape:connector-curvature="0"
         id="path23"
         d="m 111.274,236.552 c -7.617,10.712 -48.727,3.969 -57.802,-9.018 l -1.683,5.777 c -5.134,18.768 51.155,31.265 55.799,15.408 l 2.049,-6.808 c 0.469,-1.716 1.275,-3.323 2.374,-4.729 -0.249,-0.208 -0.496,-0.41 -0.737,-0.63"
         clip-path="url(#SVGID_2_)" /></g></g><g
     style="opacity:0.2"
     id="g25"
     enable-background="new    "
     transform="matrix(0.05688812,0,0,0.05688812,2.0041128,81.080104)"><g
       id="g27"><defs
         id="defs29"><rect
           height="28.486"
           width="60.397999"
           y="227.759"
           x="163.07401"
           id="SVGID_3_" /></defs><clipPath
         id="SVGID_4_"><use
           height="100%"
           width="100%"
           y="0"
           x="0"
           style="overflow:visible"
           id="use33"
           overflow="visible"
           xlink:href="#SVGID_3_" /></clipPath><path
         style="fill:#750000"
         inkscape:connector-curvature="0"
         id="path35"
         d="m 223.014,233.147 -1.738,-5.384 c -9.165,12.488 -48.784,19.821 -57.326,9.559 -0.289,0.238 -0.582,0.462 -0.875,0.695 0.865,1.236 1.521,2.619 1.914,4.079 l 2.361,6.962 c 5.196,16.302 61.725,2.239 55.664,-15.911"
         clip-path="url(#SVGID_4_)" /></g></g><g
     style="opacity:0.5"
     id="g37"
     enable-background="new    "
     transform="matrix(0.05688812,0,0,0.05688812,2.0041128,81.080104)"><g
       id="g39"><defs
         id="defs41"><rect
           height="54.181"
           width="55.957001"
           y="92.037003"
           x="222.73"
           id="SVGID_5_" /></defs><clipPath
         id="SVGID_6_"><use
           height="100%"
           width="100%"
           y="0"
           x="0"
           style="overflow:visible"
           id="use45"
           overflow="visible"
           xlink:href="#SVGID_5_" /></clipPath><path
         style="fill:#ffffff"
         inkscape:connector-curvature="0"
         id="path47"
         d="m 223.385,100.613 0.124,0.169 c 7.104,9.46 18.251,15.008 30.075,14.967 h 1.666 c 11.436,0 20.957,13.12 23.012,30.469 0.279,-2.335 0.421,-4.683 0.426,-7.031 0,-20.709 -10.492,-37.5 -23.438,-37.5 h -1.666 c -9.288,0 -18.251,-3.436 -25.15,-9.652 -1.391,1.529 -2.901,2.939 -4.513,4.223 -1.347,1.059 -1.584,3.004 -0.536,4.355"
         clip-path="url(#SVGID_6_)" /></g></g><g
     style="opacity:0.2"
     id="g61"
     enable-background="new    "
     transform="matrix(0.05688812,0,0,0.05688812,2.0041128,81.080104)"><g
       id="g63"><defs
         id="defs65"><rect
           height="103.011"
           width="200.748"
           y="129.358"
           x="34.938"
           id="SVGID_9_" /></defs><clipPath
         id="SVGID_10_"><use
           height="100%"
           width="100%"
           y="0"
           x="0"
           style="overflow:visible"
           id="use69"
           overflow="visible"
           xlink:href="#SVGID_9_" /></clipPath><path
         style="fill:#c80000"
         inkscape:connector-curvature="0"
         id="path71"
         d="m 142.592,213.619 c -55.776,0 -101.644,-36.941 -107.109,-84.261 -0.346,3.076 -0.529,6.166 -0.543,9.261 0,51.773 46.166,93.75 103.125,93.75 45.326,0 83.797,-26.596 97.621,-63.552 -0.838,0.646 -1.795,1.214 -2.664,1.827 -21.717,27.74 -55.211,43.652 -90.43,42.975"
         clip-path="url(#SVGID_10_)" /></g></g><g
     style="opacity:0.2"
     id="g73"
     enable-background="new    "
     transform="matrix(0.05688812,0,0,0.05688812,2.0041128,81.080104)"><g
       id="g75"><defs
         id="defs77"><rect
           height="47.937"
           width="43.506001"
           y="132.155"
           x="235.18201"
           id="SVGID_11_" /></defs><clipPath
         id="SVGID_12_"><use
           height="100%"
           width="100%"
           y="0"
           x="0"
           style="overflow:visible"
           id="use81"
           overflow="visible"
           xlink:href="#SVGID_11_" /></clipPath><path
         style="fill:#e60000"
         inkscape:connector-curvature="0"
         id="path83"
         d="m 278.262,132.155 c -2.055,17.35 -11.572,30.469 -23.012,30.469 h -7.072 c -4.106,0.014 -8.157,0.984 -11.824,2.829 -0.375,1.09 -0.596,2.221 -0.668,3.359 0,3.777 -0.156,7.554 -0.504,11.279 3.974,-2.229 8.441,-3.396 12.996,-3.405 h 7.072 c 12.945,0 23.438,-16.79 23.438,-37.5 -0.005,-2.349 -0.147,-4.696 -0.426,-7.031"
         clip-path="url(#SVGID_12_)" /></g></g><g
     style="opacity:0.5"
     id="g49"
     enable-background="new    "
     transform="matrix(0.05688812,0,0,0.05688812,2.0041128,81.080104)"><g
       id="g51"><defs
         id="defs53"><rect
           height="106.332"
           width="209.44901"
           y="39.967999"
           x="34.938"
           id="SVGID_7_" /></defs><clipPath
         id="SVGID_8_"><use
           height="100%"
           width="100%"
           y="0"
           x="0"
           style="overflow:visible"
           id="use57"
           overflow="visible"
           xlink:href="#SVGID_7_" /></clipPath><path
         style="fill:#ffffff"
         inkscape:connector-curvature="0"
         id="path59"
         d="m 138.063,59.499 c 17.592,0 34.982,3.77 50.995,11.062 3.255,1.529 7.095,1.037 9.851,-1.27 14.246,-11.822 29.865,-18.29 43.446,-14.063 1.978,-3.96 2.536,-8.489 1.57,-12.811 -2.39,-5.335 -38.475,-2.818 -51.673,16.218 -0.146,0.202 -0.219,0.389 -0.348,0.586 -16.479,-9.112 -35.01,-13.856 -53.842,-13.786 -56.953,0 -103.125,41.973 -103.125,93.75 0,2.395 0.117,4.771 0.309,7.114 3.919,-48.527 48.437,-86.8 102.817,-86.8"
         clip-path="url(#SVGID_8_)" /></g></g><path
     style="fill:#4a4a93;stroke-width:0.05688811"
     d="m 15.262599,83.087854 c -0.744103,0.02017 -1.821917,0.321643 -2.418745,1.017875 -0.249959,-0.126272 -0.507293,-0.235375 -0.769878,-0.32844 l -0.479883,0.404105 c 0.414302,0.123047 0.815964,0.290343 1.19754,0.500883 0.123959,0.06901 0.280954,0.0285 0.356217,-0.09255 l 0.012,-0.02222 c 0.588565,-0.848543 2.147148,-1.032761 2.490411,-0.919098 0.05387,0.364425 -0.587565,1.629346 -1.18654,1.976306 -0.01115,0.0067 -0.02243,0.01403 -0.03256,0.02233 -0.115084,0.09193 -0.134042,0.259686 -0.04211,0.374884 0.03982,0.04989 0.07917,0.100257 0.116665,0.150887 0.455218,0.60455 1.168253,0.959504 1.924752,0.958765 h 0.09455 c 0.578097,0 1.066652,0.854718 1.066652,1.86653 -1.71e-4,1.01204 -0.488778,1.866641 -1.066875,1.866641 H 16.12269 c -0.176012,0.002 -0.348085,0.02978 -0.512549,0.07933 0.08567,-0.211567 0.158421,-0.428304 0.21622,-0.64977 0.03698,-0.142447 -0.04849,-0.288018 -0.191109,-0.324995 -0.142448,-0.03726 -0.288018,0.04843 -0.324996,0.191109 -0.126576,0.48463 -0.329161,0.945988 -0.599436,1.36787 -0.0085,0.01343 -0.01564,0.02771 -0.02156,0.04244 -0.02947,0.03732 -0.0581,0.07556 -0.08478,0.115443 -0.01513,0.02213 -0.02894,0.04475 -0.04333,0.06722 -0.274542,0.422451 -0.627403,0.78888 -1.041208,1.077985 -0.0706,0.05 -0.112554,0.131362 -0.112554,0.217775 2.31e-4,0.147397 0.119602,0.26633 0.266886,0.26633 0.05524,0 0.109116,-0.01686 0.153887,-0.04911 0.11389,-0.07942 0.223357,-0.164568 0.328884,-0.253996 -0.01422,0.27568 0.01544,0.554676 0.09122,0.826544 l 0.189553,0.588881 c 0.0128,0.038 0.04636,0.138524 -0.09944,0.300996 -0.396112,0.443499 -1.569325,0.772453 -2.24197,0.629436 -0.103366,-0.02213 -0.282056,-0.07604 -0.319773,-0.195331 L 11.647303,94.78347 c -0.03829,-0.14114 -0.104834,-0.268786 -0.192442,-0.377328 0.116678,-0.02862 0.23258,-0.06012 0.347551,-0.09511 5.16e-4,0 5.69e-4,-5.69e-4 5.69e-4,-5.69e-4 0.141139,-0.04267 0.220343,-0.191862 0.177109,-0.332774 -0.04272,-0.140684 -0.191688,-0.220343 -0.332885,-0.177108 -0.3572,0.108542 -0.723847,0.183799 -1.094985,0.225441 -0.01013,8.53e-4 -0.02015,0.0013 -0.03022,0.0024 -0.400663,0.04341 -0.8044751,0.04704 -1.20565,0.012 -0.016327,-0.0051 -0.033307,-0.0089 -0.051,-0.01089 -0.4487335,-0.05285 -0.8898537,-0.160107 -1.3127598,-0.318995 -0.138409,-0.05097 -0.291747,0.01954 -0.3426618,0.157776 -0.050915,0.13801 0.020096,0.291633 0.1582201,0.342661 0.1447235,0.05421 0.291467,0.102268 0.4396605,0.145332 -0.101716,0.114459 -0.1792118,0.252782 -0.2222192,0.408883 l -0.116776,0.389106 C 7.8029378,95.378263 7.0797906,95.467266 6.2800574,95.240735 5.5829505,95.043334 5.1320499,94.69962 5.2065164,94.427524 L 5.408847,93.732422 c 0.069916,-0.263676 0.096969,-0.53368 0.083999,-0.800656 0.1045604,0.09677 0.2126007,0.190024 0.3243289,0.278997 0.047616,0.03925 0.1073879,0.06067 0.1689977,0.06067 0.0797,0 0.1554211,-0.03589 0.2061084,-0.09733 0.093638,-0.114061 0.077048,-0.281854 -0.036444,-0.375662 -0.4202326,-0.334559 -0.7868844,-0.731065 -1.087652,-1.175873 -0.00466,-0.0071 -0.00878,-0.01439 -0.013444,-0.02144 -0.5167716,-0.76981 -0.7938735,-1.675742 -0.7964335,-2.603076 0,-2.295523 1.696198,-4.239008 4.0140566,-4.859267 L 7.6501609,83.753056 c 7.111e-4,0.0068 0.00101,0.01346 0.00178,0.02033 C 5.6242181,84.48961 4.11425,86.16267 3.7901016,88.182995 3.1494145,88.085842 2.6583261,87.532553 2.6583261,86.864914 c 0,-0.736303 0.5969554,-1.333427 1.3333152,-1.333427 0.1471127,0 0.2667741,-0.119493 0.2667741,-0.266663 0,-0.147283 -0.1196045,-0.266663 -0.2667741,-0.266663 -1.0309833,0 -1.8666413,0.835601 -1.8666413,1.866642 0,0.943091 0.6993665,1.722355 1.607756,1.848419 -0.00523,0.09438 -0.00789,0.189313 -0.00789,0.284885 0.00256,1.027343 0.3079256,2.030713 0.8774325,2.885628 0.00233,0.0038 0.00366,0.008 0.00622,0.01178 0.00461,0.0069 0.00956,0.01345 0.014222,0.02033 0.3226124,0.494074 0.4222814,1.101767 0.2725517,1.672866 l -0.2022194,0.693658 c -0.1663978,0.608304 0.386145,1.172366 1.4416471,1.471313 0.9401899,0.26618 2.0439704,0.239098 2.245525,-0.447883 l 0.1184427,-0.394661 c 0.062748,-0.236768 0.2892897,-0.391702 0.5327709,-0.363884 0.5076126,0.06303 1.0204525,0.06737 1.5290895,0.01345 0.0061,-2.31e-4 0.01241,-3.37e-4 0.01856,-9.95e-4 0.0065,-6.76e-4 0.01296,-0.0016 0.01944,-0.0023 0.247975,-0.02236 0.476984,0.137977 0.538992,0.380662 l 0.132221,0.391439 c 0.11463,0.304466 0.391963,0.517902 0.715657,0.550215 0.156214,0.0318 0.315607,0.0472 0.474438,0.04589 0.827096,0 1.841615,-0.35436 2.276524,-0.841322 0.216687,-0.21407 0.297461,-0.531101 0.208887,-0.822766 l -0.185442,-0.573326 c -0.154793,-0.563647 -0.06074,-1.165125 0.25533,-1.654533 0.0094,-0.01462 0.01956,-0.02871 0.02878,-0.04344 0.0014,-0.002 0.0021,-0.0042 0.0034,-0.0062 3.38e-4,-5.15e-4 7.64e-4,-0.0011 0.0011,-0.0015 0.240352,-0.359362 0.642137,-0.577839 1.07443,-0.584325 h 0.402106 c 0.897125,0 1.599978,-1.054108 1.599978,-2.399967 0,-1.345859 -0.703074,-2.399746 -1.600201,-2.399746 h -0.09455 c -0.564045,8e-4 -1.09847,-0.252642 -1.454646,-0.689657 0.688574,-0.594139 1.402883,-1.957908 1.14865,-2.524855 -0.07447,-0.165316 -0.259375,-0.259557 -0.565548,-0.287773 -0.0903,-0.0083 -0.189806,-0.0111 -0.296106,-0.0082 z"
     id="path85"
     inkscape:connector-curvature="0" /><path
     style="fill:#555599;stroke-width:0.05688811"
     inkscape:connector-curvature="0"
     id="path87"
     d="m 17.103535,94.350819 c -0.147113,0 -0.266692,0.119294 -0.266692,0.266691 0,0.294396 -0.239044,0.533326 -0.533326,0.533326 -0.294282,0 -0.533326,-0.23893 -0.533326,-0.533326 0,-0.147112 -0.119579,-0.266691 -0.266692,-0.266691 -0.147112,0 -0.266691,0.119522 -0.266691,0.266691 0,0.58902 0.477632,1.066652 1.066652,1.066652 0.58902,0 1.066652,-0.477632 1.066652,-1.066652 5.7e-5,-0.147169 -0.119237,-0.266691 -0.266577,-0.266691 z" /><path
     style="fill:none;fill-rule:evenodd;stroke:#4a4a93;stroke-width:0.56888115;stroke-linecap:butt;stroke-linejoin:miter;stroke-miterlimit:4;stroke-dasharray:none;stroke-opacity:1"
     d="m 7.9457061,84.146732 -0.021296,1.448131 0.9370252,0.809249 -0.4259201,0.766657 0.7027689,1.299058 0.085184,1.788867 0.5536971,1.256466 0.7489558,0.526506 0.49974,-0.818032 0.497579,-1.539933 -0.681473,-0.894434 -0.127776,-1.213874 1.022209,-1.213873 -0.489809,-0.745361 0.362033,-0.404625 0.298144,-1.000914"
     id="path3472"
     inkscape:connector-curvature="0"
     sodipodi:nodetypes="cccccccccccccccc" /><path
     sodipodi:nodetypes="cccccccccccccccc"
     inkscape:connector-curvature="0"
     id="path4274"
     d="m 7.9457061,84.146732 -0.021296,1.448131 0.9370252,0.809249 -0.4259201,0.766657 0.7027689,1.299058 0.085184,1.788867 0.5536971,1.256466 0.7489558,0.526506 0.49974,-0.818032 0.497579,-1.539933 -0.681473,-0.894434 -0.127776,-1.213874 1.022209,-1.213873 -0.489809,-0.745361 0.362033,-0.404625 0.298144,-1.000914"
     style="fill:none;fill-rule:evenodd;stroke:#4a4a93;stroke-width:0.56888115;stroke-linecap:butt;stroke-linejoin:miter;stroke-miterlimit:4;stroke-dasharray:none;stroke-opacity:1" /><g
     transform="matrix(0.13319273,0,0,0.13319273,10.426995,65.53689)"
     id="g5830"><path
       id="path5832"
       d="m 235.584,250.01 v 13.395 c 0,5.548 10.492,10.043 23.438,10.043 12.946,0 23.438,-4.495 23.438,-10.043 V 250.01"
       clip-path="url(#SVGID_6_-5)"
       inkscape:connector-curvature="0"
       style="fill:#fff27d"
       transform="matrix(0.37708478,0,0,0.37708478,-138.27523,120.4333)" /><path
       id="path5834"
       d="m 259.021,277.467 c -2.586,0 -4.688,-2.097 -4.688,-4.688 l 0.86,-0.485 c -0.558,-0.796 -0.86,-1.739 -0.86,-2.705 v -20.247 c 0,-2.591 2.102,-4.688 4.688,-4.688 h 23.438 c 2.586,0 4.688,2.097 4.688,4.688 v 13.385 c -10e-4,9.678 -14.155,14.74 -28.126,14.74 m 4.688,-9.988 v 0.402 c 8.968,-0.833 13.732,-3.918 14.067,-5.199 l -0.005,-8.652 h -14.063 v 13.449 z"
       clip-path="url(#SVGID_6_-5)"
       inkscape:connector-curvature="0"
       style="fill:#5a5a9b"
       transform="matrix(0.37708478,0,0,0.37708478,-138.27523,120.4333)" /><path
       id="path5836"
       d="m 235.584,235.948 v 13.395 c 0,5.548 10.492,10.043 23.438,10.043 12.946,0 23.438,-4.495 23.438,-10.043 v -13.395"
       clip-path="url(#SVGID_6_-5)"
       inkscape:connector-curvature="0"
       style="fill:#ffc661"
       transform="matrix(0.37708478,0,0,0.37708478,-138.27523,120.4333)" /><path
       id="path5838"
       d="m 259.021,264.073 c -2.586,0 -4.688,-2.096 -4.688,-4.688 v -23.438 c 0,-2.591 2.102,-4.688 4.688,-4.688 h 23.438 c 2.586,0 4.688,2.097 4.688,4.688 v 13.395 c -10e-4,9.673 -14.155,14.731 -28.126,14.731 m 4.688,-23.438 v 13.853 c 8.968,-0.833 13.732,-3.919 14.067,-5.2 l -0.005,-8.652 h -14.062 z"
       clip-path="url(#SVGID_6_-5)"
       inkscape:connector-curvature="0"
       style="fill:#5a5a9b"
       transform="matrix(0.37708478,0,0,0.37708478,-138.27523,120.4333)" /><g
       id="g5840"
       transform="matrix(0.37708478,0,0,0.37708478,-138.27523,120.4333)"><defs
         id="defs5842"><rect
           id="rect5844"
           x="235.584"
           y="250.00999"
           width="23.438"
           height="23.438" /></defs><clipPath
         id="clipPath5846"><use
           height="100%"
           width="100%"
           y="0"
           x="0"
           style="overflow:visible"
           xlink:href="#SVGID_7_-4"
           overflow="visible"
           id="use5848" /></clipPath><path
         style="fill:#ffffff"
         inkscape:connector-curvature="0"
         clip-path="url(#SVGID_8_-8)"
         d="m 235.584,250.01 v 13.395 c 0,5.548 10.492,10.043 23.438,10.043 V 250.01 Z"
         id="path5850" /></g><path
       id="path5852"
       d="m 235.584,235.948 v 13.395 c 0,5.548 10.492,10.043 23.438,10.043 v -23.438 z"
       clip-path="url(#SVGID_6_-5)"
       inkscape:connector-curvature="0"
       style="fill:#fff27d"
       transform="matrix(0.37708478,0,0,0.37708478,-138.27523,120.4333)" /><g
       id="g5854"
       transform="matrix(0.37708478,0,0,0.37708478,-138.27523,120.4333)"><defs
         id="defs5856"><rect
           id="rect5858"
           x="212.146"
           y="259.38501"
           width="23.438"
           height="23.438" /></defs><clipPath
         id="clipPath5860"><use
           height="100%"
           width="100%"
           y="0"
           x="0"
           style="overflow:visible"
           xlink:href="#SVGID_9_-4"
           overflow="visible"
           id="use5862" /></clipPath><path
         style="fill:#ffffff"
         inkscape:connector-curvature="0"
         clip-path="url(#SVGID_10_-2)"
         d="m 212.146,259.385 v 13.395 c 0,5.548 10.492,10.043 23.438,10.043 v -23.438 z"
         id="path5864" /></g><path
       id="path5866"
       d="m 212.146,259.385 v 13.395 c 0,5.548 10.492,10.043 23.438,10.043 12.946,0 23.438,-4.495 23.438,-10.043 v -13.395"
       clip-path="url(#SVGID_6_-5)"
       inkscape:connector-curvature="0"
       style="fill:#fff27d"
       transform="matrix(0.37708478,0,0,0.37708478,-138.27523,120.4333)" /><g
       id="g5868"
       transform="matrix(0.37708478,0,0,0.37708478,-138.27523,120.4333)"><defs
         id="defs5870"><rect
           id="rect5872"
           x="212.146"
           y="231.25999"
           width="23.438"
           height="23.438" /></defs><clipPath
         id="clipPath5874"><use
           height="100%"
           width="100%"
           y="0"
           x="0"
           style="overflow:visible"
           xlink:href="#SVGID_11_-2"
           overflow="visible"
           id="use5876" /></clipPath><path
         style="fill:#ffffff"
         inkscape:connector-curvature="0"
         clip-path="url(#SVGID_12_-5)"
         d="m 212.146,231.26 v 13.395 c 0,5.548 10.492,10.043 23.438,10.043 V 231.26 Z"
         id="path5878" /></g><path
       id="path5880"
       d="m 212.146,245.323 v 13.395 c 0,5.548 10.492,10.043 23.438,10.043 12.946,0 23.438,-4.495 23.438,-10.043 v -13.395"
       clip-path="url(#SVGID_6_-5)"
       inkscape:connector-curvature="0"
       style="fill:#ffc661"
       transform="matrix(0.37708478,0,0,0.37708478,-138.27523,120.4333)" /><path
       id="path5882"
       d="m 212.146,245.323 v 13.395 c 0,5.548 10.492,10.043 23.438,10.043 v -23.438 z"
       clip-path="url(#SVGID_6_-5)"
       inkscape:connector-curvature="0"
       style="fill:#fff27d"
       transform="matrix(0.37708478,0,0,0.37708478,-138.27523,120.4333)" /><path
       id="path5884"
       d="m 212.146,231.26 v 13.395 c 0,5.548 10.492,10.043 23.438,10.043 12.946,0 23.438,-4.495 23.438,-10.043 V 231.26"
       clip-path="url(#SVGID_6_-5)"
       inkscape:connector-curvature="0"
       style="fill:#fff27d"
       transform="matrix(0.37708478,0,0,0.37708478,-138.27523,120.4333)" /><path
       id="path5886"
       d="m 259.021,245.997 c 12.945,0 23.438,-4.5 23.438,-10.049 0,-5.548 -10.492,-10.043 -23.438,-10.043"
       clip-path="url(#SVGID_6_-5)"
       inkscape:connector-curvature="0"
       style="fill:#fff27d"
       transform="matrix(0.37708478,0,0,0.37708478,-138.27523,120.4333)" /><path
       id="path5888"
       d="m 212.146,217.198 v 13.395 c 0,5.548 10.492,10.043 23.438,10.043 12.946,0 23.438,-4.495 23.438,-10.043 v -13.395"
       clip-path="url(#SVGID_6_-5)"
       inkscape:connector-curvature="0"
       style="fill:#ffc661"
       transform="matrix(0.37708478,0,0,0.37708478,-138.27523,120.4333)" /><path
       id="path5890"
       d="m 212.146,217.198 v 13.395 c 0,5.548 10.492,10.043 23.438,10.043 v -23.438 z"
       clip-path="url(#SVGID_6_-5)"
       inkscape:connector-curvature="0"
       style="fill:#fff27d"
       transform="matrix(0.37708478,0,0,0.37708478,-138.27523,120.4333)" /><path
       id="path5892"
       d="m 235.584,207.155 c 12.945,0 23.438,4.495 23.438,10.043 0,5.549 -10.492,10.049 -23.438,10.049 -12.946,0 -23.438,-4.5 -23.438,-10.049 0,-5.548 10.493,-10.043 23.438,-10.043"
       clip-path="url(#SVGID_6_-5)"
       inkscape:connector-curvature="0"
       style="fill:#fff27d"
       transform="matrix(0.37708478,0,0,0.37708478,-138.27523,120.4333)" /><path
       id="path5894"
       d="m 287.146,235.948 c 0,-8.583 -11.157,-13.533 -23.438,-14.536 v -4.209 c 0,-0.001 0,-0.001 0,-0.002 v -0.003 c 0,-9.668 -14.154,-14.73 -28.125,-14.73 -13.971,0 -28.125,5.063 -28.125,14.73 v 0.003 c 0,0.001 0,0.001 0,0.002 v 26.774 c 0,0.157 0.014,0.311 0.021,0.466 -0.004,0.071 -0.021,0.14 -0.021,0.212 v 13.385 c 0,0.157 0.014,0.311 0.021,0.466 -0.004,0.071 -0.021,0.14 -0.021,0.212 v 13.385 c 0,9.678 14.154,14.74 28.125,14.74 13.971,0 28.125,-5.063 28.125,-14.74 v -13.385 c 0,-0.072 -0.018,-0.141 -0.021,-0.212 0.008,-0.155 0.021,-0.309 0.021,-0.466 v -7.555 c 12.281,-1.002 23.438,-5.949 23.438,-14.537 z m -70.312,-18.701 c 0.418,-1.494 6.782,-5.404 18.75,-5.404 11.847,0 18.205,3.827 18.74,5.355 -0.539,1.529 -6.894,5.361 -18.74,5.361 -11.968,0 -18.327,-3.906 -18.75,-5.292 z m 0,11.191 c 5.218,2.309 12.003,3.491 18.75,3.491 6.749,0 13.536,-1.183 18.754,-3.493 l 0.001,2.102 c -0.394,1.492 -6.762,5.415 -18.755,5.415 -11.993,0 -18.361,-3.928 -18.75,-5.36 z m 0,13.395 c 5.218,2.311 12.003,3.495 18.75,3.495 6.749,0 13.536,-1.185 18.754,-3.497 l 0.001,2.102 c -0.394,1.487 -6.762,5.41 -18.755,5.41 -11.993,0 -18.361,-3.923 -18.75,-5.365 z m 18.75,35.634 c -11.993,0 -18.361,-3.923 -18.75,-5.365 v -2.817 c 5.218,2.311 12.003,3.495 18.75,3.495 6.749,0 13.535,-1.185 18.754,-3.497 l 0.001,2.774 c -0.394,1.487 -6.762,5.41 -18.755,5.41 z m 0,-14.062 c -11.993,0 -18.361,-3.923 -18.75,-5.365 v -2.817 c 5.218,2.311 12.003,3.495 18.75,3.495 6.749,0 13.535,-1.185 18.754,-3.497 l 0.001,2.774 c -0.394,1.487 -6.762,5.41 -18.755,5.41 z m 28.125,-22.32 v -10.274 c 8.957,0.836 13.729,3.901 14.067,5.082 -0.338,1.283 -5.11,4.357 -14.067,5.192 z"
       clip-path="url(#SVGID_6_-5)"
       inkscape:connector-curvature="0"
       style="fill:#5a5a9b"
       transform="matrix(0.37708478,0,0,0.37708478,-138.27523,120.4333)" /></g><g
     transform="matrix(0.13319273,0,0,0.13319273,14.515834,65.62937)"
     id="g5896"><path
       id="path5898"
       d="m 235.584,250.01 v 13.395 c 0,5.548 10.492,10.043 23.438,10.043 12.946,0 23.438,-4.495 23.438,-10.043 V 250.01"
       clip-path="url(#SVGID_6_-5)"
       inkscape:connector-curvature="0"
       style="fill:#fff27d"
       transform="matrix(0.37708478,0,0,0.37708478,-138.27523,120.4333)" /><path
       id="path5900"
       d="m 259.021,277.467 c -2.586,0 -4.688,-2.097 -4.688,-4.688 l 0.86,-0.485 c -0.558,-0.796 -0.86,-1.739 -0.86,-2.705 v -20.247 c 0,-2.591 2.102,-4.688 4.688,-4.688 h 23.438 c 2.586,0 4.688,2.097 4.688,4.688 v 13.385 c -10e-4,9.678 -14.155,14.74 -28.126,14.74 m 4.688,-9.988 v 0.402 c 8.968,-0.833 13.732,-3.918 14.067,-5.199 l -0.005,-8.652 h -14.063 v 13.449 z"
       clip-path="url(#SVGID_6_-5)"
       inkscape:connector-curvature="0"
       style="fill:#5a5a9b"
       transform="matrix(0.37708478,0,0,0.37708478,-138.27523,120.4333)" /><path
       id="path5902"
       d="m 235.584,235.948 v 13.395 c 0,5.548 10.492,10.043 23.438,10.043 12.946,0 23.438,-4.495 23.438,-10.043 v -13.395"
       clip-path="url(#SVGID_6_-5)"
       inkscape:connector-curvature="0"
       style="fill:#ffc661"
       transform="matrix(0.37708478,0,0,0.37708478,-138.27523,120.4333)" /><path
       id="path5904"
       d="m 259.021,264.073 c -2.586,0 -4.688,-2.096 -4.688,-4.688 v -23.438 c 0,-2.591 2.102,-4.688 4.688,-4.688 h 23.438 c 2.586,0 4.688,2.097 4.688,4.688 v 13.395 c -10e-4,9.673 -14.155,14.731 -28.126,14.731 m 4.688,-23.438 v 13.853 c 8.968,-0.833 13.732,-3.919 14.067,-5.2 l -0.005,-8.652 h -14.062 z"
       clip-path="url(#SVGID_6_-5)"
       inkscape:connector-curvature="0"
       style="fill:#5a5a9b"
       transform="matrix(0.37708478,0,0,0.37708478,-138.27523,120.4333)" /><g
       id="g5906"
       transform="matrix(0.37708478,0,0,0.37708478,-138.27523,120.4333)"><defs
         id="defs5908"><rect
           id="rect5910"
           x="235.584"
           y="250.00999"
           width="23.438"
           height="23.438" /></defs><clipPath
         id="clipPath5912"><use
           height="100%"
           width="100%"
           y="0"
           x="0"
           style="overflow:visible"
           xlink:href="#SVGID_7_-4"
           overflow="visible"
           id="use5914" /></clipPath><path
         style="fill:#ffffff"
         inkscape:connector-curvature="0"
         clip-path="url(#SVGID_8_-8)"
         d="m 235.584,250.01 v 13.395 c 0,5.548 10.492,10.043 23.438,10.043 V 250.01 Z"
         id="path5916" /></g><path
       id="path5918"
       d="m 235.584,235.948 v 13.395 c 0,5.548 10.492,10.043 23.438,10.043 v -23.438 z"
       clip-path="url(#SVGID_6_-5)"
       inkscape:connector-curvature="0"
       style="fill:#fff27d"
       transform="matrix(0.37708478,0,0,0.37708478,-138.27523,120.4333)" /><g
       id="g5920"
       transform="matrix(0.37708478,0,0,0.37708478,-138.27523,120.4333)"><defs
         id="defs5922"><rect
           id="rect5924"
           x="212.146"
           y="259.38501"
           width="23.438"
           height="23.438" /></defs><clipPath
         id="clipPath5926"><use
           height="100%"
           width="100%"
           y="0"
           x="0"
           style="overflow:visible"
           xlink:href="#SVGID_9_-4"
           overflow="visible"
           id="use5928" /></clipPath><path
         style="fill:#ffffff"
         inkscape:connector-curvature="0"
         clip-path="url(#SVGID_10_-2)"
         d="m 212.146,259.385 v 13.395 c 0,5.548 10.492,10.043 23.438,10.043 v -23.438 z"
         id="path5930" /></g><path
       id="path5932"
       d="m 212.146,259.385 v 13.395 c 0,5.548 10.492,10.043 23.438,10.043 12.946,0 23.438,-4.495 23.438,-10.043 v -13.395"
       clip-path="url(#SVGID_6_-5)"
       inkscape:connector-curvature="0"
       style="fill:#fff27d"
       transform="matrix(0.37708478,0,0,0.37708478,-138.27523,120.4333)" /><g
       id="g5934"
       transform="matrix(0.37708478,0,0,0.37708478,-138.27523,120.4333)"><defs
         id="defs5936"><rect
           id="rect5938"
           x="212.146"
           y="231.25999"
           width="23.438"
           height="23.438" /></defs><clipPath
         id="clipPath5940"><use
           height="100%"
           width="100%"
           y="0"
           x="0"
           style="overflow:visible"
           xlink:href="#SVGID_11_-2"
           overflow="visible"
           id="use5942" /></clipPath><path
         style="fill:#ffffff"
         inkscape:connector-curvature="0"
         clip-path="url(#SVGID_12_-5)"
         d="m 212.146,231.26 v 13.395 c 0,5.548 10.492,10.043 23.438,10.043 V 231.26 Z"
         id="path5944" /></g><path
       id="path5946"
       d="m 212.146,245.323 v 13.395 c 0,5.548 10.492,10.043 23.438,10.043 12.946,0 23.438,-4.495 23.438,-10.043 v -13.395"
       clip-path="url(#SVGID_6_-5)"
       inkscape:connector-curvature="0"
       style="fill:#ffc661"
       transform="matrix(0.37708478,0,0,0.37708478,-138.27523,120.4333)" /><path
       id="path5948"
       d="m 212.146,245.323 v 13.395 c 0,5.548 10.492,10.043 23.438,10.043 v -23.438 z"
       clip-path="url(#SVGID_6_-5)"
       inkscape:connector-curvature="0"
       style="fill:#fff27d"
       transform="matrix(0.37708478,0,0,0.37708478,-138.27523,120.4333)" /><path
       id="path5950"
       d="m 212.146,231.26 v 13.395 c 0,5.548 10.492,10.043 23.438,10.043 12.946,0 23.438,-4.495 23.438,-10.043 V 231.26"
       clip-path="url(#SVGID_6_-5)"
       inkscape:connector-curvature="0"
       style="fill:#fff27d"
       transform="matrix(0.37708478,0,0,0.37708478,-138.27523,120.4333)" /><path
       id="path5952"
       d="m 259.021,245.997 c 12.945,0 23.438,-4.5 23.438,-10.049 0,-5.548 -10.492,-10.043 -23.438,-10.043"
       clip-path="url(#SVGID_6_-5)"
       inkscape:connector-curvature="0"
       style="fill:#fff27d"
       transform="matrix(0.37708478,0,0,0.37708478,-138.27523,120.4333)" /><path
       id="path5954"
       d="m 212.146,217.198 v 13.395 c 0,5.548 10.492,10.043 23.438,10.043 12.946,0 23.438,-4.495 23.438,-10.043 v -13.395"
       clip-path="url(#SVGID_6_-5)"
       inkscape:connector-curvature="0"
       style="fill:#ffc661"
       transform="matrix(0.37708478,0,0,0.37708478,-138.27523,120.4333)" /><path
       id="path5956"
       d="m 212.146,217.198 v 13.395 c 0,5.548 10.492,10.043 23.438,10.043 v -23.438 z"
       clip-path="url(#SVGID_6_-5)"
       inkscape:connector-curvature="0"
       style="fill:#fff27d"
       transform="matrix(0.37708478,0,0,0.37708478,-138.27523,120.4333)" /><path
       id="path5958"
       d="m 235.584,207.155 c 12.945,0 23.438,4.495 23.438,10.043 0,5.549 -10.492,10.049 -23.438,10.049 -12.946,0 -23.438,-4.5 -23.438,-10.049 0,-5.548 10.493,-10.043 23.438,-10.043"
       clip-path="url(#SVGID_6_-5)"
       inkscape:connector-curvature="0"
       style="fill:#fff27d"
       transform="matrix(0.37708478,0,0,0.37708478,-138.27523,120.4333)" /><path
       id="path5960"
       d="m 287.146,235.948 c 0,-8.583 -11.157,-13.533 -23.438,-14.536 v -4.209 c 0,-0.001 0,-0.001 0,-0.002 v -0.003 c 0,-9.668 -14.154,-14.73 -28.125,-14.73 -13.971,0 -28.125,5.063 -28.125,14.73 v 0.003 c 0,0.001 0,0.001 0,0.002 v 26.774 c 0,0.157 0.014,0.311 0.021,0.466 -0.004,0.071 -0.021,0.14 -0.021,0.212 v 13.385 c 0,0.157 0.014,0.311 0.021,0.466 -0.004,0.071 -0.021,0.14 -0.021,0.212 v 13.385 c 0,9.678 14.154,14.74 28.125,14.74 13.971,0 28.125,-5.063 28.125,-14.74 v -13.385 c 0,-0.072 -0.018,-0.141 -0.021,-0.212 0.008,-0.155 0.021,-0.309 0.021,-0.466 v -7.555 c 12.281,-1.002 23.438,-5.949 23.438,-14.537 z m -70.312,-18.701 c 0.418,-1.494 6.782,-5.404 18.75,-5.404 11.847,0 18.205,3.827 18.74,5.355 -0.539,1.529 -6.894,5.361 -18.74,5.361 -11.968,0 -18.327,-3.906 -18.75,-5.292 z m 0,11.191 c 5.218,2.309 12.003,3.491 18.75,3.491 6.749,0 13.536,-1.183 18.754,-3.493 l 0.001,2.102 c -0.394,1.492 -6.762,5.415 -18.755,5.415 -11.993,0 -18.361,-3.928 -18.75,-5.36 z m 0,13.395 c 5.218,2.311 12.003,3.495 18.75,3.495 6.749,0 13.536,-1.185 18.754,-3.497 l 0.001,2.102 c -0.394,1.487 -6.762,5.41 -18.755,5.41 -11.993,0 -18.361,-3.923 -18.75,-5.365 z m 18.75,35.634 c -11.993,0 -18.361,-3.923 -18.75,-5.365 v -2.817 c 5.218,2.311 12.003,3.495 18.75,3.495 6.749,0 13.535,-1.185 18.754,-3.497 l 0.001,2.774 c -0.394,1.487 -6.762,5.41 -18.755,5.41 z m 0,-14.062 c -11.993,0 -18.361,-3.923 -18.75,-5.365 v -2.817 c 5.218,2.311 12.003,3.495 18.75,3.495 6.749,0 13.535,-1.185 18.754,-3.497 l 0.001,2.774 c -0.394,1.487 -6.762,5.41 -18.755,5.41 z m 28.125,-22.32 v -10.274 c 8.957,0.836 13.729,3.901 14.067,5.082 -0.338,1.283 -5.11,4.357 -14.067,5.192 z"
       clip-path="url(#SVGID_6_-5)"
       inkscape:connector-curvature="0"
       style="fill:#5a5a9b"
       transform="matrix(0.37708478,0,0,0.37708478,-138.27523,120.4333)" /></g></svg>