<?xml version="1.0" encoding="UTF-8" standalone="no"?>
<!-- Generator: Adobe Illustrator 16.0.0, SVG Export Plug-In . SVG Version: 6.00 Build 0)  -->

<svg
   xmlns:dc="http://purl.org/dc/elements/1.1/"
   xmlns:cc="http://creativecommons.org/ns#"
   xmlns:rdf="http://www.w3.org/1999/02/22-rdf-syntax-ns#"
   xmlns:svg="http://www.w3.org/2000/svg"
   xmlns="http://www.w3.org/2000/svg"
   xmlns:xlink="http://www.w3.org/1999/xlink"
   xmlns:sodipodi="http://sodipodi.sourceforge.net/DTD/sodipodi-0.dtd"
   xmlns:inkscape="http://www.inkscape.org/namespaces/inkscape"
   version="1.1"
   id="Layer_1"
   x="0px"
   y="0px"
   width="24.00005"
   height="19.485149"
   viewBox="0 0 24.00005 19.48515"
   enable-background="new 0 0 285.417 263.542"
   xml:space="preserve"
   inkscape:version="0.92.2 5c3e80d, 2017-08-06"
   sodipodi:docname="piggy-bank.svg"><metadata
     id="metadata93"><rdf:RDF><cc:Work
         rdf:about=""><dc:format>image/svg+xml</dc:format><dc:type
           rdf:resource="http://purl.org/dc/dcmitype/StillImage" /><dc:title></dc:title></cc:Work></rdf:RDF></metadata><defs
     id="defs91"><defs
       id="defs4620"><rect
         height="300"
         width="300"
         y="-3.783"
         x="-3.4790001"
         id="SVGID_1_-3" /></defs><clipPath
       id="SVGID_2_-3"><use
         id="use4624"
         overflow="visible"
         xlink:href="#SVGID_1_-3"
         style="overflow:visible"
         x="0"
         y="0"
         width="100%"
         height="100%" /></clipPath><defs
       id="defs4628"><rect
         id="SVGID_3_-7"
         x="-3.4790001"
         y="-3.783"
         width="300"
         height="300" /></defs><clipPath
       id="SVGID_4_-7"><use
         height="100%"
         width="100%"
         y="0"
         x="0"
         style="overflow:visible"
         xlink:href="#SVGID_3_-7"
         overflow="visible"
         id="use4632" /></clipPath><defs
       id="defs4636"><rect
         height="300"
         width="300"
         y="-3.783"
         x="-3.4790001"
         id="SVGID_5_-7" /></defs><clipPath
       id="SVGID_6_-5"><use
         id="use4640"
         overflow="visible"
         xlink:href="#SVGID_5_-7"
         style="overflow:visible"
         x="0"
         y="0"
         width="100%"
         height="100%" /></clipPath></defs><sodipodi:namedview
     pagecolor="#ffffff"
     bordercolor="#666666"
     borderopacity="1"
     objecttolerance="10"
     gridtolerance="10"
     guidetolerance="10"
     inkscape:pageopacity="0"
     inkscape:pageshadow="2"
     inkscape:window-width="3440"
     inkscape:window-height="1376"
     id="namedview89"
     showgrid="false"
     inkscape:zoom="3.8266322"
     inkscape:cx="201.60249"
     inkscape:cy="-0.72631179"
     inkscape:window-x="0"
     inkscape:window-y="0"
     inkscape:window-maximized="1"
     inkscape:current-layer="Layer_1"
     fit-margin-top="0"
     fit-margin-left="0"
     fit-margin-right="0"
     fit-margin-bottom="0" /><g
     id="g5796"
     transform="matrix(0.19978973,0,0,0.19978973,20.215431,-32.074939)"><path
       transform="matrix(0.37708478,0,0,0.37708478,-138.27523,120.4333)"
       style="fill:#fff27d"
       inkscape:connector-curvature="0"
       clip-path="url(#SVGID_6_-5)"
       d="m 235.584,250.01 v 13.395 c 0,5.548 10.492,10.043 23.438,10.043 12.946,0 23.438,-4.495 23.438,-10.043 V 250.01"
       id="path4642" /><path
       transform="matrix(0.37708478,0,0,0.37708478,-138.27523,120.4333)"
       style="fill:#5a5a9b"
       inkscape:connector-curvature="0"
       clip-path="url(#SVGID_6_-5)"
       d="m 259.021,277.467 c -2.586,0 -4.688,-2.097 -4.688,-4.688 l 0.86,-0.485 c -0.558,-0.796 -0.86,-1.739 -0.86,-2.705 v -20.247 c 0,-2.591 2.102,-4.688 4.688,-4.688 h 23.438 c 2.586,0 4.688,2.097 4.688,4.688 v 13.385 c -10e-4,9.678 -14.155,14.74 -28.126,14.74 m 4.688,-9.988 v 0.402 c 8.968,-0.833 13.732,-3.918 14.067,-5.199 l -0.005,-8.652 h -14.063 v 13.449 z"
       id="path4644" /><path
       transform="matrix(0.37708478,0,0,0.37708478,-138.27523,120.4333)"
       style="fill:#ffc661"
       inkscape:connector-curvature="0"
       clip-path="url(#SVGID_6_-5)"
       d="m 235.584,235.948 v 13.395 c 0,5.548 10.492,10.043 23.438,10.043 12.946,0 23.438,-4.495 23.438,-10.043 v -13.395"
       id="path4646" /><path
       transform="matrix(0.37708478,0,0,0.37708478,-138.27523,120.4333)"
       style="fill:#5a5a9b"
       inkscape:connector-curvature="0"
       clip-path="url(#SVGID_6_-5)"
       d="m 259.021,264.073 c -2.586,0 -4.688,-2.096 -4.688,-4.688 v -23.438 c 0,-2.591 2.102,-4.688 4.688,-4.688 h 23.438 c 2.586,0 4.688,2.097 4.688,4.688 v 13.395 c -10e-4,9.673 -14.155,14.731 -28.126,14.731 m 4.688,-23.438 v 13.853 c 8.968,-0.833 13.732,-3.919 14.067,-5.2 l -0.005,-8.652 h -14.062 z"
       id="path4648" /><g
       transform="matrix(0.37708478,0,0,0.37708478,-138.27523,120.4333)"
       id="g4652"><defs
         id="defs4654"><rect
           height="23.438"
           width="23.438"
           y="250.00999"
           x="235.584"
           id="SVGID_7_-4" /></defs><clipPath
         id="SVGID_8_-8"><use
           id="use4658"
           overflow="visible"
           xlink:href="#SVGID_7_-4"
           style="overflow:visible"
           x="0"
           y="0"
           width="100%"
           height="100%" /></clipPath><path
         id="path4660"
         d="m 235.584,250.01 v 13.395 c 0,5.548 10.492,10.043 23.438,10.043 V 250.01 Z"
         clip-path="url(#SVGID_8_-8)"
         inkscape:connector-curvature="0"
         style="fill:#ffffff" /></g><path
       transform="matrix(0.37708478,0,0,0.37708478,-138.27523,120.4333)"
       style="fill:#fff27d"
       inkscape:connector-curvature="0"
       clip-path="url(#SVGID_6_-5)"
       d="m 235.584,235.948 v 13.395 c 0,5.548 10.492,10.043 23.438,10.043 v -23.438 z"
       id="path4662" /><g
       transform="matrix(0.37708478,0,0,0.37708478,-138.27523,120.4333)"
       id="g4668"><defs
         id="defs4670"><rect
           height="23.438"
           width="23.438"
           y="259.38501"
           x="212.146"
           id="SVGID_9_-4" /></defs><clipPath
         id="SVGID_10_-2"><use
           id="use4674"
           overflow="visible"
           xlink:href="#SVGID_9_-4"
           style="overflow:visible"
           x="0"
           y="0"
           width="100%"
           height="100%" /></clipPath><path
         id="path4676"
         d="m 212.146,259.385 v 13.395 c 0,5.548 10.492,10.043 23.438,10.043 v -23.438 z"
         clip-path="url(#SVGID_10_-2)"
         inkscape:connector-curvature="0"
         style="fill:#ffffff" /></g><path
       transform="matrix(0.37708478,0,0,0.37708478,-138.27523,120.4333)"
       style="fill:#fff27d"
       inkscape:connector-curvature="0"
       clip-path="url(#SVGID_6_-5)"
       d="m 212.146,259.385 v 13.395 c 0,5.548 10.492,10.043 23.438,10.043 12.946,0 23.438,-4.495 23.438,-10.043 v -13.395"
       id="path4664" /><g
       transform="matrix(0.37708478,0,0,0.37708478,-138.27523,120.4333)"
       id="g4686"><defs
         id="defs4688"><rect
           height="23.438"
           width="23.438"
           y="231.25999"
           x="212.146"
           id="SVGID_11_-2" /></defs><clipPath
         id="SVGID_12_-5"><use
           id="use4692"
           overflow="visible"
           xlink:href="#SVGID_11_-2"
           style="overflow:visible"
           x="0"
           y="0"
           width="100%"
           height="100%" /></clipPath><path
         id="path4694"
         d="m 212.146,231.26 v 13.395 c 0,5.548 10.492,10.043 23.438,10.043 V 231.26 Z"
         clip-path="url(#SVGID_12_-5)"
         inkscape:connector-curvature="0"
         style="fill:#ffffff" /></g><path
       transform="matrix(0.37708478,0,0,0.37708478,-138.27523,120.4333)"
       style="fill:#ffc661"
       inkscape:connector-curvature="0"
       clip-path="url(#SVGID_6_-5)"
       d="m 212.146,245.323 v 13.395 c 0,5.548 10.492,10.043 23.438,10.043 12.946,0 23.438,-4.495 23.438,-10.043 v -13.395"
       id="path4678" /><path
       transform="matrix(0.37708478,0,0,0.37708478,-138.27523,120.4333)"
       style="fill:#fff27d"
       inkscape:connector-curvature="0"
       clip-path="url(#SVGID_6_-5)"
       d="m 212.146,245.323 v 13.395 c 0,5.548 10.492,10.043 23.438,10.043 v -23.438 z"
       id="path4680" /><path
       transform="matrix(0.37708478,0,0,0.37708478,-138.27523,120.4333)"
       style="fill:#fff27d"
       inkscape:connector-curvature="0"
       clip-path="url(#SVGID_6_-5)"
       d="m 212.146,231.26 v 13.395 c 0,5.548 10.492,10.043 23.438,10.043 12.946,0 23.438,-4.495 23.438,-10.043 V 231.26"
       id="path4682" /><path
       transform="matrix(0.37708478,0,0,0.37708478,-138.27523,120.4333)"
       style="fill:#fff27d"
       inkscape:connector-curvature="0"
       clip-path="url(#SVGID_6_-5)"
       d="m 259.021,245.997 c 12.945,0 23.438,-4.5 23.438,-10.049 0,-5.548 -10.492,-10.043 -23.438,-10.043"
       id="path4756" /><path
       transform="matrix(0.37708478,0,0,0.37708478,-138.27523,120.4333)"
       style="fill:#ffc661"
       inkscape:connector-curvature="0"
       clip-path="url(#SVGID_6_-5)"
       d="m 212.146,217.198 v 13.395 c 0,5.548 10.492,10.043 23.438,10.043 12.946,0 23.438,-4.495 23.438,-10.043 v -13.395"
       id="path4762" /><path
       transform="matrix(0.37708478,0,0,0.37708478,-138.27523,120.4333)"
       style="fill:#fff27d"
       inkscape:connector-curvature="0"
       clip-path="url(#SVGID_6_-5)"
       d="m 212.146,217.198 v 13.395 c 0,5.548 10.492,10.043 23.438,10.043 v -23.438 z"
       id="path4764" /><path
       transform="matrix(0.37708478,0,0,0.37708478,-138.27523,120.4333)"
       style="fill:#fff27d"
       inkscape:connector-curvature="0"
       clip-path="url(#SVGID_6_-5)"
       d="m 235.584,207.155 c 12.945,0 23.438,4.495 23.438,10.043 0,5.549 -10.492,10.049 -23.438,10.049 -12.946,0 -23.438,-4.5 -23.438,-10.049 0,-5.548 10.493,-10.043 23.438,-10.043"
       id="path4766" /><path
       transform="matrix(0.37708478,0,0,0.37708478,-138.27523,120.4333)"
       style="fill:#5a5a9b"
       inkscape:connector-curvature="0"
       clip-path="url(#SVGID_6_-5)"
       d="m 287.146,235.948 c 0,-8.583 -11.157,-13.533 -23.438,-14.536 v -4.209 c 0,-0.001 0,-0.001 0,-0.002 v -0.003 c 0,-9.668 -14.154,-14.73 -28.125,-14.73 -13.971,0 -28.125,5.063 -28.125,14.73 v 0.003 c 0,0.001 0,0.001 0,0.002 v 26.774 c 0,0.157 0.014,0.311 0.021,0.466 -0.004,0.071 -0.021,0.14 -0.021,0.212 v 13.385 c 0,0.157 0.014,0.311 0.021,0.466 -0.004,0.071 -0.021,0.14 -0.021,0.212 v 13.385 c 0,9.678 14.154,14.74 28.125,14.74 13.971,0 28.125,-5.063 28.125,-14.74 v -13.385 c 0,-0.072 -0.018,-0.141 -0.021,-0.212 0.008,-0.155 0.021,-0.309 0.021,-0.466 v -7.555 c 12.281,-1.002 23.438,-5.949 23.438,-14.537 z m -70.312,-18.701 c 0.418,-1.494 6.782,-5.404 18.75,-5.404 11.847,0 18.205,3.827 18.74,5.355 -0.539,1.529 -6.894,5.361 -18.74,5.361 -11.968,0 -18.327,-3.906 -18.75,-5.292 z m 0,11.191 c 5.218,2.309 12.003,3.491 18.75,3.491 6.749,0 13.536,-1.183 18.754,-3.493 l 0.001,2.102 c -0.394,1.492 -6.762,5.415 -18.755,5.415 -11.993,0 -18.361,-3.928 -18.75,-5.36 z m 0,13.395 c 5.218,2.311 12.003,3.495 18.75,3.495 6.749,0 13.536,-1.185 18.754,-3.497 l 0.001,2.102 c -0.394,1.487 -6.762,5.41 -18.755,5.41 -11.993,0 -18.361,-3.923 -18.75,-5.365 z m 18.75,35.634 c -11.993,0 -18.361,-3.923 -18.75,-5.365 v -2.817 c 5.218,2.311 12.003,3.495 18.75,3.495 6.749,0 13.535,-1.185 18.754,-3.497 l 0.001,2.774 c -0.394,1.487 -6.762,5.41 -18.755,5.41 z m 0,-14.062 c -11.993,0 -18.361,-3.923 -18.75,-5.365 v -2.817 c 5.218,2.311 12.003,3.495 18.75,3.495 6.749,0 13.535,-1.185 18.754,-3.497 l 0.001,2.774 c -0.394,1.487 -6.762,5.41 -18.755,5.41 z m 28.125,-22.32 v -10.274 c 8.957,0.836 13.729,3.901 14.067,5.082 -0.338,1.283 -5.11,4.357 -14.067,5.192 z"
       id="path4772" /></g><path
     style="fill:#db9cab;stroke-width:0.08533244"
     d="m 19.88643,0.40086784 c -1.034542,-0.01425 -2.852826,0.424956 -3.662296,1.59248496 -0.01245,0.01723 -0.01882,0.0332 -0.02983,0.05 -0.454966,-0.251573 -0.928423,-0.463423 -1.414986,-0.63566 l -0.376162,0.273662 0.269497,0.0043 -0.447162,1.501318 -0.543161,0.606995 0.734825,1.117988 -1.533316,1.820813 0.191664,1.820816 1.022156,1.341652 -0.746326,2.3099762 -0.749659,1.226987 -1.123485,-0.789667 -0.830491,-1.884814 -0.127832,-2.6833052 -1.0541562,-1.94848 0.6389942,-1.149988 -1.4056532,-1.213987 0.032,-2.172145 0.192664,0.0032 -0.295997,-0.257665 c -3.3973853,1.108192 -5.8277724,4.061658 -5.8277724,7.531589 0.0023,1.4699372 0.4416207,2.9061382 1.2611534,4.1256232 0.5644743,0.844194 0.7388446,1.890632 0.4784951,2.872637 l -0.3014967,1.033656 c -0.4380968,1.601179 4.3650686,2.667936 4.7619496,1.314819 l 0.174332,-0.580992 c 0.144724,-0.548432 0.671042,-0.906482 1.2343212,-0.839325 0.74043,0.09181 1.488941,0.09772 2.230309,0.01716 0.56951,-0.07108 1.104548,0.285127 1.258488,0.837825 l 0.201164,0.594161 c 0.444156,1.391089 5.267985,0.190964 4.750785,-1.35782 l -0.283664,-0.878824 c -0.269139,-0.984737 -0.09257,-2.037149 0.482829,-2.879636 l 0.0066,-0.0099 c 0.434341,-0.648869 1.160528,-1.041037 1.940979,-1.049657 h 0.603495 c 1.104629,0 1.999979,-1.432731 1.999979,-3.1999662 0,-1.76698 -0.89535,-3.199799 -1.999979,-3.199799 h -0.14217 c -1.008629,0.0035 -1.960205,-0.469409 -2.56564,-1.276654 -0.05973,-0.08004 -0.121035,-0.159166 -0.183497,-0.237331 1.018698,-0.590416 2.23815,-2.845871 1.924979,-3.54346296 -0.05736,-0.12804 -0.342171,-0.203081 -0.746991,-0.208666 z"
     id="path11"
     inkscape:connector-curvature="0" /><g
     style="opacity:0.2"
     id="g13"
     enable-background="new    "
     transform="matrix(0.08533245,0,0,0.08533245,-0.1813616,-3.0100952)"><g
       id="g15"><defs
         id="defs17"><rect
           height="28.417999"
           width="60.550999"
           y="227.535"
           x="51.459999"
           id="SVGID_1_" /></defs><clipPath
         id="SVGID_2_"><use
           height="100%"
           width="100%"
           y="0"
           x="0"
           style="overflow:visible"
           id="use21"
           overflow="visible"
           xlink:href="#SVGID_1_" /></clipPath><path
         style="fill:#750000"
         inkscape:connector-curvature="0"
         id="path23"
         d="m 111.274,236.552 c -7.617,10.712 -48.727,3.969 -57.802,-9.018 l -1.683,5.777 c -5.134,18.768 51.155,31.265 55.799,15.408 l 2.049,-6.808 c 0.469,-1.716 1.275,-3.323 2.374,-4.729 -0.249,-0.208 -0.496,-0.41 -0.737,-0.63"
         clip-path="url(#SVGID_2_)" /></g></g><g
     style="opacity:0.2"
     id="g25"
     enable-background="new    "
     transform="matrix(0.08533245,0,0,0.08533245,-0.1813616,-3.0100952)"><g
       id="g27"><defs
         id="defs29"><rect
           height="28.486"
           width="60.397999"
           y="227.759"
           x="163.07401"
           id="SVGID_3_" /></defs><clipPath
         id="SVGID_4_"><use
           height="100%"
           width="100%"
           y="0"
           x="0"
           style="overflow:visible"
           id="use33"
           overflow="visible"
           xlink:href="#SVGID_3_" /></clipPath><path
         style="fill:#750000"
         inkscape:connector-curvature="0"
         id="path35"
         d="m 223.014,233.147 -1.738,-5.384 c -9.165,12.488 -48.784,19.821 -57.326,9.559 -0.289,0.238 -0.582,0.462 -0.875,0.695 0.865,1.236 1.521,2.619 1.914,4.079 l 2.361,6.962 c 5.196,16.302 61.725,2.239 55.664,-15.911"
         clip-path="url(#SVGID_4_)" /></g></g><g
     style="opacity:0.5"
     id="g37"
     enable-background="new    "
     transform="matrix(0.08533245,0,0,0.08533245,-0.1813616,-3.0100952)"><g
       id="g39"><defs
         id="defs41"><rect
           height="54.181"
           width="55.957001"
           y="92.037003"
           x="222.73"
           id="SVGID_5_" /></defs><clipPath
         id="SVGID_6_"><use
           height="100%"
           width="100%"
           y="0"
           x="0"
           style="overflow:visible"
           id="use45"
           overflow="visible"
           xlink:href="#SVGID_5_" /></clipPath><path
         style="fill:#ffffff"
         inkscape:connector-curvature="0"
         id="path47"
         d="m 223.385,100.613 0.124,0.169 c 7.104,9.46 18.251,15.008 30.075,14.967 h 1.666 c 11.436,0 20.957,13.12 23.012,30.469 0.279,-2.335 0.421,-4.683 0.426,-7.031 0,-20.709 -10.492,-37.5 -23.438,-37.5 h -1.666 c -9.288,0 -18.251,-3.436 -25.15,-9.652 -1.391,1.529 -2.901,2.939 -4.513,4.223 -1.347,1.059 -1.584,3.004 -0.536,4.355"
         clip-path="url(#SVGID_6_)" /></g></g><g
     style="opacity:0.2"
     id="g61"
     enable-background="new    "
     transform="matrix(0.08533245,0,0,0.08533245,-0.1813616,-3.0100952)"><g
       id="g63"><defs
         id="defs65"><rect
           height="103.011"
           width="200.748"
           y="129.358"
           x="34.938"
           id="SVGID_9_" /></defs><clipPath
         id="SVGID_10_"><use
           height="100%"
           width="100%"
           y="0"
           x="0"
           style="overflow:visible"
           id="use69"
           overflow="visible"
           xlink:href="#SVGID_9_" /></clipPath><path
         style="fill:#c80000"
         inkscape:connector-curvature="0"
         id="path71"
         d="m 142.592,213.619 c -55.776,0 -101.644,-36.941 -107.109,-84.261 -0.346,3.076 -0.529,6.166 -0.543,9.261 0,51.773 46.166,93.75 103.125,93.75 45.326,0 83.797,-26.596 97.621,-63.552 -0.838,0.646 -1.795,1.214 -2.664,1.827 -21.717,27.74 -55.211,43.652 -90.43,42.975"
         clip-path="url(#SVGID_10_)" /></g></g><g
     style="opacity:0.2"
     id="g73"
     enable-background="new    "
     transform="matrix(0.08533245,0,0,0.08533245,-0.1813616,-3.0100952)"><g
       id="g75"><defs
         id="defs77"><rect
           height="47.937"
           width="43.506001"
           y="132.155"
           x="235.18201"
           id="SVGID_11_" /></defs><clipPath
         id="SVGID_12_"><use
           height="100%"
           width="100%"
           y="0"
           x="0"
           style="overflow:visible"
           id="use81"
           overflow="visible"
           xlink:href="#SVGID_11_" /></clipPath><path
         style="fill:#e60000"
         inkscape:connector-curvature="0"
         id="path83"
         d="m 278.262,132.155 c -2.055,17.35 -11.572,30.469 -23.012,30.469 h -7.072 c -4.106,0.014 -8.157,0.984 -11.824,2.829 -0.375,1.09 -0.596,2.221 -0.668,3.359 0,3.777 -0.156,7.554 -0.504,11.279 3.974,-2.229 8.441,-3.396 12.996,-3.405 h 7.072 c 12.945,0 23.438,-16.79 23.438,-37.5 -0.005,-2.349 -0.147,-4.696 -0.426,-7.031"
         clip-path="url(#SVGID_12_)" /></g></g><g
     style="opacity:0.5"
     id="g49"
     enable-background="new    "
     transform="matrix(0.08533245,0,0,0.08533245,-0.1813616,-3.0100952)"><g
       id="g51"><defs
         id="defs53"><rect
           height="106.332"
           width="209.44901"
           y="39.967999"
           x="34.938"
           id="SVGID_7_" /></defs><clipPath
         id="SVGID_8_"><use
           height="100%"
           width="100%"
           y="0"
           x="0"
           style="overflow:visible"
           id="use57"
           overflow="visible"
           xlink:href="#SVGID_7_" /></clipPath><path
         style="fill:#ffffff"
         inkscape:connector-curvature="0"
         id="path59"
         d="m 138.063,59.499 c 17.592,0 34.982,3.77 50.995,11.062 3.255,1.529 7.095,1.037 9.851,-1.27 14.246,-11.822 29.865,-18.29 43.446,-14.063 1.978,-3.96 2.536,-8.489 1.57,-12.811 -2.39,-5.335 -38.475,-2.818 -51.673,16.218 -0.146,0.202 -0.219,0.389 -0.348,0.586 -16.479,-9.112 -35.01,-13.856 -53.842,-13.786 -56.953,0 -103.125,41.973 -103.125,93.75 0,2.395 0.117,4.771 0.309,7.114 3.919,-48.527 48.437,-86.8 102.817,-86.8"
         clip-path="url(#SVGID_8_)" /></g></g><path
     style="fill:#4a4a93;stroke-width:0.08533244"
     d="m 19.706431,0.00153984 c -1.116158,0.03025 -2.732884,0.482466 -3.628129,1.52681696 -0.374939,-0.189408 -0.760942,-0.353063 -1.15482,-0.492661 l -0.719827,0.606159 c 0.621455,0.184571 1.22395,0.435516 1.796316,0.751327 0.185939,0.103515 0.421432,0.04275 0.534327,-0.138825 l 0.018,-0.03333 c 0.88285,-1.27281896 3.220732,-1.54914696 3.735628,-1.37865196 0.0808,0.54663896 -0.88135,2.44402696 -1.779816,2.96446896 -0.01673,0.01005 -0.03364,0.02105 -0.04884,0.0335 -0.172626,0.137895 -0.201063,0.38953 -0.06316,0.562328 0.05973,0.07483 0.118756,0.150386 0.174998,0.226331 0.682829,0.906828 1.752385,1.43926 2.887137,1.438152 h 0.141826 c 0.867148,0 1.599983,1.282081 1.599983,2.799804 -2.57e-4,1.5180652 -0.733169,2.7999702 -1.600318,2.7999702 h -0.603159 c -0.264019,0.003 -0.522129,0.04467 -0.768826,0.118996 0.128505,-0.317352 0.237632,-0.642458 0.324331,-0.974659 0.05547,-0.213671 -0.07273,-0.432028 -0.286664,-0.487494 -0.213673,-0.05589 -0.432029,0.07265 -0.487496,0.286665 -0.189865,0.726947 -0.493743,1.418986 -0.899157,2.051811 -0.01275,0.02014 -0.02346,0.04157 -0.03234,0.06366 -0.04421,0.05598 -0.08715,0.11334 -0.12717,0.173165 -0.0227,0.0332 -0.04341,0.06713 -0.065,0.10083 -0.411814,0.633678 -0.941107,1.183324 -1.561817,1.616983 -0.1059,0.075 -0.168831,0.197043 -0.168831,0.326663 3.46e-4,0.221096 0.179404,0.399496 0.40033,0.399496 0.08286,0 0.163675,-0.02529 0.230831,-0.07366 0.170836,-0.11913 0.335037,-0.246853 0.493328,-0.380995 -0.02133,0.413521 0.02316,0.832017 0.13683,1.23982 l 0.284331,0.883324 c 0.0192,0.057 0.06954,0.207787 -0.149161,0.451496 -0.594169,0.66525 -2.353995,1.158683 -3.362965,0.944157 -0.15505,-0.03319 -0.423086,-0.114061 -0.479661,-0.292998 l -0.194,-0.569169 c -0.05744,-0.211711 -0.157251,-0.40318 -0.288664,-0.565994 0.175018,-0.04293 0.348871,-0.09018 0.521328,-0.142665 7.74e-4,0 8.54e-4,-8.54e-4 8.54e-4,-8.54e-4 0.211709,-0.06401 0.330515,-0.287794 0.265664,-0.499162 -0.06408,-0.211027 -0.287533,-0.330516 -0.499329,-0.265663 -0.535802,0.162813 -1.085774,0.275699 -1.642483,0.338162 -0.0152,0.0013 -0.03022,0.0019 -0.04533,0.0036 -0.600996,0.06512 -1.206716,0.07056 -1.808481,0.018 -0.02449,-0.0077 -0.04996,-0.01335 -0.0765,-0.01634 -0.673102,-0.07927 -1.3347852,-0.240161 -1.9691462,-0.478494 -0.207614,-0.07645 -0.437622,0.02931 -0.513994,0.236665 -0.07637,0.207016 0.03014,0.437451 0.237331,0.513993 0.217086,0.08132 0.437202,0.153403 0.659493,0.217999 -0.152575,0.171689 -0.268819,0.379174 -0.33333,0.613326 l -0.175165,0.583661 C 8.5169038,18.437212 7.4321794,18.570717 6.2325758,18.23092 5.1869121,17.934817 4.510559,17.419245 4.6222591,17.011099 L 4.925756,15.968443 c 0.1048743,-0.395515 0.145454,-0.800523 0.1259989,-1.200988 0.1568411,0.145156 0.3189021,0.285037 0.4864949,0.418497 0.071424,0.05888 0.1610824,0.091 0.2534974,0.091 0.1195503,0 0.2331324,-0.05383 0.3091635,-0.145995 0.1404575,-0.171092 0.1155724,-0.422783 -0.054666,-0.563495 -0.6303509,-0.50184 -1.1803304,-1.096601 -1.6314832,-1.763815 -0.00699,-0.01065 -0.01317,-0.02159 -0.020166,-0.03216 -0.7751599,-1.154719 -1.190814,-2.513621 -1.1946541,-3.9046272 0,-3.443295 2.5443052,-6.358532 6.0211044,-7.288923 L 8.2877378,0.99934084 c 0.0011,0.0102 0.0015,0.02019 0.0027,0.0305 -3.0415939,1.07434 -5.3065533,3.583938 -5.7927774,6.614435 -0.9610338,-0.14573 -1.6976687,-0.975666 -1.6976687,-1.977128 0,-1.104458 0.895436,-2.000147 1.9999792,-2.000147 0.2206697,0 0.4001624,-0.17924 0.4001624,-0.399996 0,-0.220925 -0.1794073,-0.399995 -0.4001624,-0.399995 C 1.253491,2.8670098 0,4.1204148 0,5.6669818 c 0,1.414641 1.0490531,2.58354 2.4116417,2.772637 -0.00784,0.14157 -0.011835,0.28397 -0.011835,0.427329 0.00384,1.5410192 0.4618899,3.0460792 1.316153,4.3284562 0.0035,0.0057 0.00549,0.012 0.00933,0.01767 0.00692,0.01035 0.01434,0.02017 0.021333,0.0305 0.4839201,0.741113 0.6334241,1.652656 0.4088288,2.509307 l -0.30333,1.04049 c -0.2495975,0.912459 0.5792193,1.758555 2.1624775,2.206977 1.4102894,0.399271 3.0659648,0.358648 3.3682978,-0.671827 l 0.177665,-0.591993 c 0.09412,-0.355154 0.433936,-0.587555 0.7991592,-0.545828 0.761421,0.09454 1.530683,0.101055 2.293641,0.02017 0.0091,-3.47e-4 0.01862,-5.06e-4 0.02784,-0.0015 0.0097,-0.001 0.01944,-0.0024 0.02916,-0.0035 0.371963,-0.03354 0.715478,0.206967 0.80849,0.570995 l 0.198332,0.587161 c 0.171946,0.4567 0.587947,0.776855 1.073489,0.825325 0.234322,0.0477 0.473412,0.0708 0.711659,0.06884 1.240648,0 2.762432,-0.531542 3.414797,-1.261987 0.325032,-0.321106 0.446193,-0.796654 0.313332,-1.234153 l -0.278164,-0.859992 c -0.23219,-0.845473 -0.09111,-1.747693 0.382996,-2.481807 0.0141,-0.02193 0.02934,-0.04306 0.04317,-0.06516 0.0021,-0.003 0.0031,-0.0063 0.0051,-0.0093 5.07e-4,-7.73e-4 0.0011,-0.0016 0.0017,-0.0023 0.360529,-0.539045 0.963209,-0.866762 1.61165,-0.876491 h 0.603161 c 1.345692,0 2.399975,-1.581167 2.399975,-3.5999622 0,-2.018795 -1.054614,-3.59963 -2.400309,-3.59963 h -0.141826 c -0.84607,0.0012 -1.64771,-0.378964 -2.181976,-1.034489 1.032865,-0.891211 2.104332,-2.936871 1.722981,-3.78729496 -0.111705,-0.247974 -0.389064,-0.389336 -0.848325,-0.43166 -0.13545,-0.01245 -0.28471,-0.01665 -0.44416,-0.0123 z"
     id="path85"
     inkscape:connector-curvature="0" /><path
     style="fill:#555599;stroke-width:0.08533244"
     inkscape:connector-curvature="0"
     id="path87"
     d="m 22.467844,16.896041 c -0.22067,0 -0.400039,0.178942 -0.400039,0.400038 0,0.441596 -0.358567,0.799992 -0.799992,0.799992 -0.441424,0 -0.799991,-0.358396 -0.799991,-0.799992 0,-0.220669 -0.179369,-0.400038 -0.40004,-0.400038 -0.220668,0 -0.400037,0.179284 -0.400037,0.400038 0,0.883533 0.71645,1.599983 1.599983,1.599983 0.883533,0 1.599983,-0.71645 1.599983,-1.599983 8.5e-5,-0.220754 -0.178856,-0.400038 -0.399867,-0.400038 z" /><path
     style="fill:none;fill-rule:evenodd;stroke:#4a4a93;stroke-width:0.85332447;stroke-linecap:butt;stroke-linejoin:miter;stroke-miterlimit:4;stroke-dasharray:none;stroke-opacity:1"
     d="m 8.7310568,1.5898618 -0.03194,2.172204 1.4055422,1.213877 -0.6388822,1.149989 1.0541572,1.948593 0.127776,2.6833092 0.830548,1.884705 1.123438,0.789762 0.749612,-1.227052 0.746371,-2.3099072 -1.022213,-1.341655 -0.191664,-1.820817 1.533318,-1.820815 -0.734716,-1.118045 0.543051,-0.60694 0.447218,-1.501376"
     id="path3472"
     inkscape:connector-curvature="0"
     sodipodi:nodetypes="cccccccccccccccc" /><path
     sodipodi:nodetypes="cccccccccccccccc"
     inkscape:connector-curvature="0"
     id="path4274"
     d="m 8.7310568,1.5898618 -0.03194,2.172204 1.4055422,1.213877 -0.6388822,1.149989 1.0541572,1.948593 0.127776,2.6833092 0.830548,1.884705 1.123438,0.789762 0.749612,-1.227052 0.746371,-2.3099072 -1.022213,-1.341655 -0.191664,-1.820817 1.533318,-1.820815 -0.734716,-1.118045 0.543051,-0.60694 0.447218,-1.501376"
     style="fill:none;fill-rule:evenodd;stroke:#4a4a93;stroke-width:0.85332447;stroke-linecap:butt;stroke-linejoin:miter;stroke-miterlimit:4;stroke-dasharray:none;stroke-opacity:1" /><g
     transform="matrix(0.19978973,0,0,0.19978973,12.453002,-26.32499)"
     id="g5830"><path
       id="path5832"
       d="m 235.584,250.01 v 13.395 c 0,5.548 10.492,10.043 23.438,10.043 12.946,0 23.438,-4.495 23.438,-10.043 V 250.01"
       clip-path="url(#SVGID_6_-5)"
       inkscape:connector-curvature="0"
       style="fill:#fff27d"
       transform="matrix(0.37708478,0,0,0.37708478,-138.27523,120.4333)" /><path
       id="path5834"
       d="m 259.021,277.467 c -2.586,0 -4.688,-2.097 -4.688,-4.688 l 0.86,-0.485 c -0.558,-0.796 -0.86,-1.739 -0.86,-2.705 v -20.247 c 0,-2.591 2.102,-4.688 4.688,-4.688 h 23.438 c 2.586,0 4.688,2.097 4.688,4.688 v 13.385 c -10e-4,9.678 -14.155,14.74 -28.126,14.74 m 4.688,-9.988 v 0.402 c 8.968,-0.833 13.732,-3.918 14.067,-5.199 l -0.005,-8.652 h -14.063 v 13.449 z"
       clip-path="url(#SVGID_6_-5)"
       inkscape:connector-curvature="0"
       style="fill:#5a5a9b"
       transform="matrix(0.37708478,0,0,0.37708478,-138.27523,120.4333)" /><path
       id="path5836"
       d="m 235.584,235.948 v 13.395 c 0,5.548 10.492,10.043 23.438,10.043 12.946,0 23.438,-4.495 23.438,-10.043 v -13.395"
       clip-path="url(#SVGID_6_-5)"
       inkscape:connector-curvature="0"
       style="fill:#ffc661"
       transform="matrix(0.37708478,0,0,0.37708478,-138.27523,120.4333)" /><path
       id="path5838"
       d="m 259.021,264.073 c -2.586,0 -4.688,-2.096 -4.688,-4.688 v -23.438 c 0,-2.591 2.102,-4.688 4.688,-4.688 h 23.438 c 2.586,0 4.688,2.097 4.688,4.688 v 13.395 c -10e-4,9.673 -14.155,14.731 -28.126,14.731 m 4.688,-23.438 v 13.853 c 8.968,-0.833 13.732,-3.919 14.067,-5.2 l -0.005,-8.652 h -14.062 z"
       clip-path="url(#SVGID_6_-5)"
       inkscape:connector-curvature="0"
       style="fill:#5a5a9b"
       transform="matrix(0.37708478,0,0,0.37708478,-138.27523,120.4333)" /><g
       id="g5840"
       transform="matrix(0.37708478,0,0,0.37708478,-138.27523,120.4333)"><defs
         id="defs5842"><rect
           id="rect5844"
           x="235.584"
           y="250.00999"
           width="23.438"
           height="23.438" /></defs><clipPath
         id="clipPath5846"><use
           height="100%"
           width="100%"
           y="0"
           x="0"
           style="overflow:visible"
           xlink:href="#SVGID_7_-4"
           overflow="visible"
           id="use5848" /></clipPath><path
         style="fill:#ffffff"
         inkscape:connector-curvature="0"
         clip-path="url(#SVGID_8_-8)"
         d="m 235.584,250.01 v 13.395 c 0,5.548 10.492,10.043 23.438,10.043 V 250.01 Z"
         id="path5850" /></g><path
       id="path5852"
       d="m 235.584,235.948 v 13.395 c 0,5.548 10.492,10.043 23.438,10.043 v -23.438 z"
       clip-path="url(#SVGID_6_-5)"
       inkscape:connector-curvature="0"
       style="fill:#fff27d"
       transform="matrix(0.37708478,0,0,0.37708478,-138.27523,120.4333)" /><g
       id="g5854"
       transform="matrix(0.37708478,0,0,0.37708478,-138.27523,120.4333)"><defs
         id="defs5856"><rect
           id="rect5858"
           x="212.146"
           y="259.38501"
           width="23.438"
           height="23.438" /></defs><clipPath
         id="clipPath5860"><use
           height="100%"
           width="100%"
           y="0"
           x="0"
           style="overflow:visible"
           xlink:href="#SVGID_9_-4"
           overflow="visible"
           id="use5862" /></clipPath><path
         style="fill:#ffffff"
         inkscape:connector-curvature="0"
         clip-path="url(#SVGID_10_-2)"
         d="m 212.146,259.385 v 13.395 c 0,5.548 10.492,10.043 23.438,10.043 v -23.438 z"
         id="path5864" /></g><path
       id="path5866"
       d="m 212.146,259.385 v 13.395 c 0,5.548 10.492,10.043 23.438,10.043 12.946,0 23.438,-4.495 23.438,-10.043 v -13.395"
       clip-path="url(#SVGID_6_-5)"
       inkscape:connector-curvature="0"
       style="fill:#fff27d"
       transform="matrix(0.37708478,0,0,0.37708478,-138.27523,120.4333)" /><g
       id="g5868"
       transform="matrix(0.37708478,0,0,0.37708478,-138.27523,120.4333)"><defs
         id="defs5870"><rect
           id="rect5872"
           x="212.146"
           y="231.25999"
           width="23.438"
           height="23.438" /></defs><clipPath
         id="clipPath5874"><use
           height="100%"
           width="100%"
           y="0"
           x="0"
           style="overflow:visible"
           xlink:href="#SVGID_11_-2"
           overflow="visible"
           id="use5876" /></clipPath><path
         style="fill:#ffffff"
         inkscape:connector-curvature="0"
         clip-path="url(#SVGID_12_-5)"
         d="m 212.146,231.26 v 13.395 c 0,5.548 10.492,10.043 23.438,10.043 V 231.26 Z"
         id="path5878" /></g><path
       id="path5880"
       d="m 212.146,245.323 v 13.395 c 0,5.548 10.492,10.043 23.438,10.043 12.946,0 23.438,-4.495 23.438,-10.043 v -13.395"
       clip-path="url(#SVGID_6_-5)"
       inkscape:connector-curvature="0"
       style="fill:#ffc661"
       transform="matrix(0.37708478,0,0,0.37708478,-138.27523,120.4333)" /><path
       id="path5882"
       d="m 212.146,245.323 v 13.395 c 0,5.548 10.492,10.043 23.438,10.043 v -23.438 z"
       clip-path="url(#SVGID_6_-5)"
       inkscape:connector-curvature="0"
       style="fill:#fff27d"
       transform="matrix(0.37708478,0,0,0.37708478,-138.27523,120.4333)" /><path
       id="path5884"
       d="m 212.146,231.26 v 13.395 c 0,5.548 10.492,10.043 23.438,10.043 12.946,0 23.438,-4.495 23.438,-10.043 V 231.26"
       clip-path="url(#SVGID_6_-5)"
       inkscape:connector-curvature="0"
       style="fill:#fff27d"
       transform="matrix(0.37708478,0,0,0.37708478,-138.27523,120.4333)" /><path
       id="path5886"
       d="m 259.021,245.997 c 12.945,0 23.438,-4.5 23.438,-10.049 0,-5.548 -10.492,-10.043 -23.438,-10.043"
       clip-path="url(#SVGID_6_-5)"
       inkscape:connector-curvature="0"
       style="fill:#fff27d"
       transform="matrix(0.37708478,0,0,0.37708478,-138.27523,120.4333)" /><path
       id="path5888"
       d="m 212.146,217.198 v 13.395 c 0,5.548 10.492,10.043 23.438,10.043 12.946,0 23.438,-4.495 23.438,-10.043 v -13.395"
       clip-path="url(#SVGID_6_-5)"
       inkscape:connector-curvature="0"
       style="fill:#ffc661"
       transform="matrix(0.37708478,0,0,0.37708478,-138.27523,120.4333)" /><path
       id="path5890"
       d="m 212.146,217.198 v 13.395 c 0,5.548 10.492,10.043 23.438,10.043 v -23.438 z"
       clip-path="url(#SVGID_6_-5)"
       inkscape:connector-curvature="0"
       style="fill:#fff27d"
       transform="matrix(0.37708478,0,0,0.37708478,-138.27523,120.4333)" /><path
       id="path5892"
       d="m 235.584,207.155 c 12.945,0 23.438,4.495 23.438,10.043 0,5.549 -10.492,10.049 -23.438,10.049 -12.946,0 -23.438,-4.5 -23.438,-10.049 0,-5.548 10.493,-10.043 23.438,-10.043"
       clip-path="url(#SVGID_6_-5)"
       inkscape:connector-curvature="0"
       style="fill:#fff27d"
       transform="matrix(0.37708478,0,0,0.37708478,-138.27523,120.4333)" /><path
       id="path5894"
       d="m 287.146,235.948 c 0,-8.583 -11.157,-13.533 -23.438,-14.536 v -4.209 c 0,-0.001 0,-0.001 0,-0.002 v -0.003 c 0,-9.668 -14.154,-14.73 -28.125,-14.73 -13.971,0 -28.125,5.063 -28.125,14.73 v 0.003 c 0,0.001 0,0.001 0,0.002 v 26.774 c 0,0.157 0.014,0.311 0.021,0.466 -0.004,0.071 -0.021,0.14 -0.021,0.212 v 13.385 c 0,0.157 0.014,0.311 0.021,0.466 -0.004,0.071 -0.021,0.14 -0.021,0.212 v 13.385 c 0,9.678 14.154,14.74 28.125,14.74 13.971,0 28.125,-5.063 28.125,-14.74 v -13.385 c 0,-0.072 -0.018,-0.141 -0.021,-0.212 0.008,-0.155 0.021,-0.309 0.021,-0.466 v -7.555 c 12.281,-1.002 23.438,-5.949 23.438,-14.537 z m -70.312,-18.701 c 0.418,-1.494 6.782,-5.404 18.75,-5.404 11.847,0 18.205,3.827 18.74,5.355 -0.539,1.529 -6.894,5.361 -18.74,5.361 -11.968,0 -18.327,-3.906 -18.75,-5.292 z m 0,11.191 c 5.218,2.309 12.003,3.491 18.75,3.491 6.749,0 13.536,-1.183 18.754,-3.493 l 0.001,2.102 c -0.394,1.492 -6.762,5.415 -18.755,5.415 -11.993,0 -18.361,-3.928 -18.75,-5.36 z m 0,13.395 c 5.218,2.311 12.003,3.495 18.75,3.495 6.749,0 13.536,-1.185 18.754,-3.497 l 0.001,2.102 c -0.394,1.487 -6.762,5.41 -18.755,5.41 -11.993,0 -18.361,-3.923 -18.75,-5.365 z m 18.75,35.634 c -11.993,0 -18.361,-3.923 -18.75,-5.365 v -2.817 c 5.218,2.311 12.003,3.495 18.75,3.495 6.749,0 13.535,-1.185 18.754,-3.497 l 0.001,2.774 c -0.394,1.487 -6.762,5.41 -18.755,5.41 z m 0,-14.062 c -11.993,0 -18.361,-3.923 -18.75,-5.365 v -2.817 c 5.218,2.311 12.003,3.495 18.75,3.495 6.749,0 13.535,-1.185 18.754,-3.497 l 0.001,2.774 c -0.394,1.487 -6.762,5.41 -18.755,5.41 z m 28.125,-22.32 v -10.274 c 8.957,0.836 13.729,3.901 14.067,5.082 -0.338,1.283 -5.11,4.357 -14.067,5.192 z"
       clip-path="url(#SVGID_6_-5)"
       inkscape:connector-curvature="0"
       style="fill:#5a5a9b"
       transform="matrix(0.37708478,0,0,0.37708478,-138.27523,120.4333)" /></g><g
     transform="matrix(0.19978973,0,0,0.19978973,18.58628,-26.186269)"
     id="g5896"><path
       id="path5898"
       d="m 235.584,250.01 v 13.395 c 0,5.548 10.492,10.043 23.438,10.043 12.946,0 23.438,-4.495 23.438,-10.043 V 250.01"
       clip-path="url(#SVGID_6_-5)"
       inkscape:connector-curvature="0"
       style="fill:#fff27d"
       transform="matrix(0.37708478,0,0,0.37708478,-138.27523,120.4333)" /><path
       id="path5900"
       d="m 259.021,277.467 c -2.586,0 -4.688,-2.097 -4.688,-4.688 l 0.86,-0.485 c -0.558,-0.796 -0.86,-1.739 -0.86,-2.705 v -20.247 c 0,-2.591 2.102,-4.688 4.688,-4.688 h 23.438 c 2.586,0 4.688,2.097 4.688,4.688 v 13.385 c -10e-4,9.678 -14.155,14.74 -28.126,14.74 m 4.688,-9.988 v 0.402 c 8.968,-0.833 13.732,-3.918 14.067,-5.199 l -0.005,-8.652 h -14.063 v 13.449 z"
       clip-path="url(#SVGID_6_-5)"
       inkscape:connector-curvature="0"
       style="fill:#5a5a9b"
       transform="matrix(0.37708478,0,0,0.37708478,-138.27523,120.4333)" /><path
       id="path5902"
       d="m 235.584,235.948 v 13.395 c 0,5.548 10.492,10.043 23.438,10.043 12.946,0 23.438,-4.495 23.438,-10.043 v -13.395"
       clip-path="url(#SVGID_6_-5)"
       inkscape:connector-curvature="0"
       style="fill:#ffc661"
       transform="matrix(0.37708478,0,0,0.37708478,-138.27523,120.4333)" /><path
       id="path5904"
       d="m 259.021,264.073 c -2.586,0 -4.688,-2.096 -4.688,-4.688 v -23.438 c 0,-2.591 2.102,-4.688 4.688,-4.688 h 23.438 c 2.586,0 4.688,2.097 4.688,4.688 v 13.395 c -10e-4,9.673 -14.155,14.731 -28.126,14.731 m 4.688,-23.438 v 13.853 c 8.968,-0.833 13.732,-3.919 14.067,-5.2 l -0.005,-8.652 h -14.062 z"
       clip-path="url(#SVGID_6_-5)"
       inkscape:connector-curvature="0"
       style="fill:#5a5a9b"
       transform="matrix(0.37708478,0,0,0.37708478,-138.27523,120.4333)" /><g
       id="g5906"
       transform="matrix(0.37708478,0,0,0.37708478,-138.27523,120.4333)"><defs
         id="defs5908"><rect
           id="rect5910"
           x="235.584"
           y="250.00999"
           width="23.438"
           height="23.438" /></defs><clipPath
         id="clipPath5912"><use
           height="100%"
           width="100%"
           y="0"
           x="0"
           style="overflow:visible"
           xlink:href="#SVGID_7_-4"
           overflow="visible"
           id="use5914" /></clipPath><path
         style="fill:#ffffff"
         inkscape:connector-curvature="0"
         clip-path="url(#SVGID_8_-8)"
         d="m 235.584,250.01 v 13.395 c 0,5.548 10.492,10.043 23.438,10.043 V 250.01 Z"
         id="path5916" /></g><path
       id="path5918"
       d="m 235.584,235.948 v 13.395 c 0,5.548 10.492,10.043 23.438,10.043 v -23.438 z"
       clip-path="url(#SVGID_6_-5)"
       inkscape:connector-curvature="0"
       style="fill:#fff27d"
       transform="matrix(0.37708478,0,0,0.37708478,-138.27523,120.4333)" /><g
       id="g5920"
       transform="matrix(0.37708478,0,0,0.37708478,-138.27523,120.4333)"><defs
         id="defs5922"><rect
           id="rect5924"
           x="212.146"
           y="259.38501"
           width="23.438"
           height="23.438" /></defs><clipPath
         id="clipPath5926"><use
           height="100%"
           width="100%"
           y="0"
           x="0"
           style="overflow:visible"
           xlink:href="#SVGID_9_-4"
           overflow="visible"
           id="use5928" /></clipPath><path
         style="fill:#ffffff"
         inkscape:connector-curvature="0"
         clip-path="url(#SVGID_10_-2)"
         d="m 212.146,259.385 v 13.395 c 0,5.548 10.492,10.043 23.438,10.043 v -23.438 z"
         id="path5930" /></g><path
       id="path5932"
       d="m 212.146,259.385 v 13.395 c 0,5.548 10.492,10.043 23.438,10.043 12.946,0 23.438,-4.495 23.438,-10.043 v -13.395"
       clip-path="url(#SVGID_6_-5)"
       inkscape:connector-curvature="0"
       style="fill:#fff27d"
       transform="matrix(0.37708478,0,0,0.37708478,-138.27523,120.4333)" /><g
       id="g5934"
       transform="matrix(0.37708478,0,0,0.37708478,-138.27523,120.4333)"><defs
         id="defs5936"><rect
           id="rect5938"
           x="212.146"
           y="231.25999"
           width="23.438"
           height="23.438" /></defs><clipPath
         id="clipPath5940"><use
           height="100%"
           width="100%"
           y="0"
           x="0"
           style="overflow:visible"
           xlink:href="#SVGID_11_-2"
           overflow="visible"
           id="use5942" /></clipPath><path
         style="fill:#ffffff"
         inkscape:connector-curvature="0"
         clip-path="url(#SVGID_12_-5)"
         d="m 212.146,231.26 v 13.395 c 0,5.548 10.492,10.043 23.438,10.043 V 231.26 Z"
         id="path5944" /></g><path
       id="path5946"
       d="m 212.146,245.323 v 13.395 c 0,5.548 10.492,10.043 23.438,10.043 12.946,0 23.438,-4.495 23.438,-10.043 v -13.395"
       clip-path="url(#SVGID_6_-5)"
       inkscape:connector-curvature="0"
       style="fill:#ffc661"
       transform="matrix(0.37708478,0,0,0.37708478,-138.27523,120.4333)" /><path
       id="path5948"
       d="m 212.146,245.323 v 13.395 c 0,5.548 10.492,10.043 23.438,10.043 v -23.438 z"
       clip-path="url(#SVGID_6_-5)"
       inkscape:connector-curvature="0"
       style="fill:#fff27d"
       transform="matrix(0.37708478,0,0,0.37708478,-138.27523,120.4333)" /><path
       id="path5950"
       d="m 212.146,231.26 v 13.395 c 0,5.548 10.492,10.043 23.438,10.043 12.946,0 23.438,-4.495 23.438,-10.043 V 231.26"
       clip-path="url(#SVGID_6_-5)"
       inkscape:connector-curvature="0"
       style="fill:#fff27d"
       transform="matrix(0.37708478,0,0,0.37708478,-138.27523,120.4333)" /><path
       id="path5952"
       d="m 259.021,245.997 c 12.945,0 23.438,-4.5 23.438,-10.049 0,-5.548 -10.492,-10.043 -23.438,-10.043"
       clip-path="url(#SVGID_6_-5)"
       inkscape:connector-curvature="0"
       style="fill:#fff27d"
       transform="matrix(0.37708478,0,0,0.37708478,-138.27523,120.4333)" /><path
       id="path5954"
       d="m 212.146,217.198 v 13.395 c 0,5.548 10.492,10.043 23.438,10.043 12.946,0 23.438,-4.495 23.438,-10.043 v -13.395"
       clip-path="url(#SVGID_6_-5)"
       inkscape:connector-curvature="0"
       style="fill:#ffc661"
       transform="matrix(0.37708478,0,0,0.37708478,-138.27523,120.4333)" /><path
       id="path5956"
       d="m 212.146,217.198 v 13.395 c 0,5.548 10.492,10.043 23.438,10.043 v -23.438 z"
       clip-path="url(#SVGID_6_-5)"
       inkscape:connector-curvature="0"
       style="fill:#fff27d"
       transform="matrix(0.37708478,0,0,0.37708478,-138.27523,120.4333)" /><path
       id="path5958"
       d="m 235.584,207.155 c 12.945,0 23.438,4.495 23.438,10.043 0,5.549 -10.492,10.049 -23.438,10.049 -12.946,0 -23.438,-4.5 -23.438,-10.049 0,-5.548 10.493,-10.043 23.438,-10.043"
       clip-path="url(#SVGID_6_-5)"
       inkscape:connector-curvature="0"
       style="fill:#fff27d"
       transform="matrix(0.37708478,0,0,0.37708478,-138.27523,120.4333)" /><path
       id="path5960"
       d="m 287.146,235.948 c 0,-8.583 -11.157,-13.533 -23.438,-14.536 v -4.209 c 0,-0.001 0,-0.001 0,-0.002 v -0.003 c 0,-9.668 -14.154,-14.73 -28.125,-14.73 -13.971,0 -28.125,5.063 -28.125,14.73 v 0.003 c 0,0.001 0,0.001 0,0.002 v 26.774 c 0,0.157 0.014,0.311 0.021,0.466 -0.004,0.071 -0.021,0.14 -0.021,0.212 v 13.385 c 0,0.157 0.014,0.311 0.021,0.466 -0.004,0.071 -0.021,0.14 -0.021,0.212 v 13.385 c 0,9.678 14.154,14.74 28.125,14.74 13.971,0 28.125,-5.063 28.125,-14.74 v -13.385 c 0,-0.072 -0.018,-0.141 -0.021,-0.212 0.008,-0.155 0.021,-0.309 0.021,-0.466 v -7.555 c 12.281,-1.002 23.438,-5.949 23.438,-14.537 z m -70.312,-18.701 c 0.418,-1.494 6.782,-5.404 18.75,-5.404 11.847,0 18.205,3.827 18.74,5.355 -0.539,1.529 -6.894,5.361 -18.74,5.361 -11.968,0 -18.327,-3.906 -18.75,-5.292 z m 0,11.191 c 5.218,2.309 12.003,3.491 18.75,3.491 6.749,0 13.536,-1.183 18.754,-3.493 l 0.001,2.102 c -0.394,1.492 -6.762,5.415 -18.755,5.415 -11.993,0 -18.361,-3.928 -18.75,-5.36 z m 0,13.395 c 5.218,2.311 12.003,3.495 18.75,3.495 6.749,0 13.536,-1.185 18.754,-3.497 l 0.001,2.102 c -0.394,1.487 -6.762,5.41 -18.755,5.41 -11.993,0 -18.361,-3.923 -18.75,-5.365 z m 18.75,35.634 c -11.993,0 -18.361,-3.923 -18.75,-5.365 v -2.817 c 5.218,2.311 12.003,3.495 18.75,3.495 6.749,0 13.535,-1.185 18.754,-3.497 l 0.001,2.774 c -0.394,1.487 -6.762,5.41 -18.755,5.41 z m 0,-14.062 c -11.993,0 -18.361,-3.923 -18.75,-5.365 v -2.817 c 5.218,2.311 12.003,3.495 18.75,3.495 6.749,0 13.535,-1.185 18.754,-3.497 l 0.001,2.774 c -0.394,1.487 -6.762,5.41 -18.755,5.41 z m 28.125,-22.32 v -10.274 c 8.957,0.836 13.729,3.901 14.067,5.082 -0.338,1.283 -5.11,4.357 -14.067,5.192 z"
       clip-path="url(#SVGID_6_-5)"
       inkscape:connector-curvature="0"
       style="fill:#5a5a9b"
       transform="matrix(0.37708478,0,0,0.37708478,-138.27523,120.4333)" /></g></svg>