<?xml version="1.0" encoding="UTF-8" standalone="no"?>
<!-- Created with Inkscape (http://www.inkscape.org/) -->

<svg
   xmlns:dc="http://purl.org/dc/elements/1.1/"
   xmlns:cc="http://creativecommons.org/ns#"
   xmlns:rdf="http://www.w3.org/1999/02/22-rdf-syntax-ns#"
   xmlns:svg="http://www.w3.org/2000/svg"
   xmlns="http://www.w3.org/2000/svg"
   xmlns:sodipodi="http://sodipodi.sourceforge.net/DTD/sodipodi-0.dtd"
   xmlns:inkscape="http://www.inkscape.org/namespaces/inkscape"
   width="32"
   height="32"
   viewBox="0 0 32 32"
   id="svg2"
   version="1.1"
   inkscape:version="0.92.2 5c3e80d, 2017-08-06"
   sodipodi:docname="scut-bitcoin.svg">
  <defs
     id="defs4" />
  <sodipodi:namedview
     id="base"
     pagecolor="#303030"
     bordercolor="#666666"
     borderopacity="1.0"
     inkscape:pageopacity="0"
     inkscape:pageshadow="2"
     inkscape:zoom="20.140625"
     inkscape:cx="13.616757"
     inkscape:cy="13.120248"
     inkscape:document-units="px"
     inkscape:current-layer="layer1"
     showgrid="true"
     units="px"
     inkscape:window-width="2045"
     inkscape:window-height="1439"
     inkscape:window-x="639"
     inkscape:window-y="319"
     inkscape:window-maximized="0"
     inkscape:snap-smooth-nodes="true"
     inkscape:object-nodes="true"
     inkscape:object-paths="true"
     inkscape:snap-intersection-paths="true">
    <inkscape:grid
       type="xygrid"
       id="grid4155"
       units="px"
       spacingx="1"
       spacingy="1" />
  </sodipodi:namedview>
  <metadata
     id="metadata7">
    <rdf:RDF>
      <cc:Work
         rdf:about="">
        <dc:format>image/svg+xml</dc:format>
        <dc:type
           rdf:resource="http://purl.org/dc/dcmitype/StillImage" />
        <dc:title></dc:title>
      </cc:Work>
    </rdf:RDF>
  </metadata>
  <g
     inkscape:label="Layer 1"
     inkscape:groupmode="layer"
     id="layer1"
     transform="translate(0,-1020.3622)">
    <rect
       style="color:#000000;clip-rule:nonzero;display:inline;overflow:visible;visibility:visible;opacity:1;isolation:auto;mix-blend-mode:normal;color-interpolation:sRGB;color-interpolation-filters:linearRGB;solid-color:#000000;solid-opacity:1;fill:#f7f7f7;fill-opacity:1;fill-rule:nonzero;stroke:none;stroke-width:0.99331796;stroke-linecap:round;stroke-linejoin:round;stroke-miterlimit:4;stroke-dasharray:none;stroke-dashoffset:0;stroke-opacity:1;color-rendering:auto;image-rendering:auto;shape-rendering:auto;text-rendering:auto;enable-background:accumulate"
       id="rect5173"
       width="14"
       height="18.000017"
       x="9"
       y="1027.3622" />
    <path
       inkscape:connector-curvature="0"
       id="path5156"
       d="m 15.144692,1048.2184 c -2.400363,-0.1909 -4.632667,-1.0607 -6.4852338,-2.5268 -2.6846436,-2.1248 -4.3252341,-5.2589 -4.5245842,-8.644 -0.020055,-0.3405 -0.022729,-0.3544 -0.031072,-0.1597 -0.00739,0.1722 -0.011926,0.1389 -0.023852,-0.1732 -0.00813,-0.2124 -0.00802,-0.5659 2.139e-4,-0.7856 0.012407,-0.3318 0.016472,-0.3611 0.023906,-0.1731 0.00829,0.2103 0.010482,0.1989 0.030644,-0.1599 0.1444374,-2.5713 1.1609435,-5.0763 2.8637412,-7.0572 2.1005834,-2.4438 5.1167249,-3.9399 8.3193919,-4.1266 0.334156,-0.019 0.344504,-0.022 0.146486,-0.03 -0.169707,-0.01 -0.133121,-0.012 0.179777,-0.024 0.216062,-0.01 0.56962,-0.01 0.785683,0 0.312897,0.012 0.349483,0.017 0.179776,0.024 -0.198018,0.01 -0.187675,0.011 0.146481,0.03 2.905808,0.1694 5.634978,1.3992 7.709811,3.4741 2.068374,2.0684 3.311419,4.8275 3.473327,7.7097 0.02016,0.3588 0.0223,0.3702 0.03064,0.1599 0.0075,-0.188 0.0115,-0.1587 0.02391,0.1731 0.0083,0.2197 0.0084,0.5732 2.14e-4,0.7856 -0.01192,0.3121 -0.01647,0.3454 -0.02386,0.1732 -0.0083,-0.1947 -0.01102,-0.1808 -0.03107,0.1597 -0.271756,4.6144 -3.236129,8.6918 -7.547485,10.3812 -1.114449,0.4368 -2.254717,0.6943 -3.500955,0.7905 -0.405487,0.032 -1.346335,0.031 -1.745827,0 z m 0.541602,-4.4958 c 0.01985,-0.013 0.150909,-0.4834 0.296843,-1.0665 0.1437,-0.5743 0.268083,-1.0509 0.276409,-1.0592 0.0084,-0.01 0.180365,0.011 0.382309,0.042 0.541127,0.085 0.827151,0.1087 1.272711,0.1087 1.011922,0 1.723665,-0.2476 2.262893,-0.7868 0.405647,-0.4057 0.724967,-1.0468 0.884551,-1.7762 0.06566,-0.3001 0.06489,-0.896 -0.0016,-1.1366 -0.145995,-0.5294 -0.493023,-0.9852 -1.006917,-1.3226 -0.109296,-0.072 -0.201442,-0.1409 -0.204769,-0.1537 -0.0032,-0.013 0.08744,-0.062 0.201693,-0.1087 0.381453,-0.1569 0.666392,-0.3745 0.873528,-0.6667 0.504596,-0.7119 0.621475,-1.7552 0.278692,-2.4877 -0.306763,-0.6556 -1.08583,-1.2527 -2.142986,-1.6424 -0.146486,-0.054 -0.275853,-0.1067 -0.287485,-0.1174 -0.0116,-0.011 0.09324,-0.4762 0.233043,-1.0349 0.139806,-0.5586 0.254193,-1.0393 0.254193,-1.0679 0,-0.029 -0.01214,-0.06 -0.02695,-0.069 -0.05767,-0.036 -1.306124,-0.3305 -1.341646,-0.3169 -0.02465,0.01 -0.123569,0.3592 -0.286682,1.0137 -0.136955,0.5496 -0.256461,1.0114 -0.265563,1.0263 -0.01572,0.026 -0.834761,-0.1498 -0.906488,-0.1941 -0.0215,-0.014 0.04097,-0.3042 0.213271,-0.9932 0.134025,-0.536 0.243679,-1.0042 0.243679,-1.0404 0,-0.037 -0.02096,-0.077 -0.04658,-0.09 -0.107735,-0.055 -1.311483,-0.335 -1.334046,-0.3102 -0.01294,0.014 -0.140544,0.4963 -0.28351,1.0712 -0.15038,0.6047 -0.272607,1.0454 -0.289988,1.0454 -0.01652,0 -0.587039,-0.1384 -1.267827,-0.3075 -0.680784,-0.1691 -1.267373,-0.3039 -1.303526,-0.2996 -0.06272,0.01 -0.0734,0.039 -0.232946,0.6736 -0.09196,0.3663 -0.167551,0.6931 -0.167968,0.7264 -0.0011,0.077 0.0322,0.09 0.465325,0.192 0.523901,0.1235 0.749868,0.2055 0.873464,0.3169 0.129773,0.117 0.203821,0.2704 0.204608,0.424 5.34e-4,0.1557 -1.451156,5.9889 -1.518102,6.099 -0.07298,0.12 -0.201782,0.1917 -0.344734,0.1918 -0.06541,0 -0.344723,-0.056 -0.620698,-0.1237 -0.293036,-0.073 -0.511339,-0.1137 -0.524773,-0.1 -0.01262,0.013 -0.16868,0.3595 -0.346745,0.7697 -0.2235338,0.5148 -0.3164277,0.7574 -0.3001057,0.7837 0.014439,0.023 0.4843097,0.1541 1.2071497,0.3365 0.650926,0.1641 1.232953,0.3119 1.293391,0.3283 l 0.109889,0.03 -0.26683,1.0671 c -0.227689,0.9105 -0.261392,1.0724 -0.229738,1.1036 0.04476,0.044 1.294156,0.3606 1.345438,0.3409 0.04155,-0.016 0.02332,0.049 0.302972,-1.0738 0.118617,-0.476 0.227207,-0.9092 0.241315,-0.9628 l 0.02567,-0.097 0.45911,0.12 c 0.252509,0.066 0.463672,0.1242 0.469256,0.1296 0.0056,0.01 -0.10667,0.4771 -0.24945,1.0486 -0.142785,0.5714 -0.253252,1.0555 -0.245481,1.0757 0.0088,0.023 0.255124,0.099 0.648952,0.198 0.710984,0.1804 0.675259,0.1734 0.723668,0.1427 z m 0.390566,-4.0284 c -0.278591,-0.035 -0.687281,-0.1182 -1.246002,-0.2537 -0.420376,-0.102 -0.498156,-0.1284 -0.487087,-0.1651 0.0073,-0.024 0.164916,-0.6519 0.350372,-1.3951 0.321106,-1.2869 0.339899,-1.3508 0.39387,-1.3391 0.410076,0.09 1.242035,0.3064 1.493255,0.3897 0.401385,0.1332 0.90421,0.3793 1.141494,0.5586 0.222506,0.1684 0.426654,0.4155 0.50383,0.6102 0.08215,0.2072 0.08125,0.615 -0.0016,0.8284 -0.164193,0.4217 -0.456544,0.6442 -0.995612,0.7576 -0.203837,0.043 -0.841061,0.048 -1.15229,0.01 z m 0.905536,-4.2739 c -0.431007,-0.044 -1.554376,-0.2883 -1.574344,-0.3429 -0.01156,-0.032 0.585583,-2.4565 0.61127,-2.4821 0.02316,-0.023 0.474106,0.08 0.963074,0.2185 1.114642,0.3177 1.67563,0.7682 1.712135,1.3749 0.03562,0.5919 -0.285622,1.0329 -0.8598,1.1805 -0.161118,0.041 -0.655337,0.071 -0.852335,0.051 z"
       style="fill:#f69219;stroke:none;stroke-width:0.0266334"
       sodipodi:nodetypes="csscccssssssssssssscccsscccsscccscscsscscssccsccssscscscsssscccccsccccsccscccccccccccscsssccccsssssss" />
  </g>
</svg>
