<?xml version="1.0" encoding="UTF-8" standalone="no"?>
<!-- Created with Inkscape (http://www.inkscape.org/) -->

<svg
   xmlns:dc="http://purl.org/dc/elements/1.1/"
   xmlns:cc="http://creativecommons.org/ns#"
   xmlns:rdf="http://www.w3.org/1999/02/22-rdf-syntax-ns#"
   xmlns:svg="http://www.w3.org/2000/svg"
   xmlns="http://www.w3.org/2000/svg"
   xmlns:xlink="http://www.w3.org/1999/xlink"
   xmlns:sodipodi="http://sodipodi.sourceforge.net/DTD/sodipodi-0.dtd"
   xmlns:inkscape="http://www.inkscape.org/namespaces/inkscape"
   width="119"
   height="32"
   viewBox="0 0 119 32"
   id="svg2"
   version="1.1"
   inkscape:version="0.91 r13725"
   sodipodi:docname="scut-flattr.svg">
  <defs
     id="defs4">
    <linearGradient
       inkscape:collect="always"
       id="linearGradient4511">
      <stop
         style="stop-color:#fcc022;stop-opacity:1"
         offset="0"
         id="stop4513" />
      <stop
         style="stop-color:#db6b27;stop-opacity:1"
         offset="1"
         id="stop4515" />
    </linearGradient>
    <linearGradient
       inkscape:collect="always"
       id="linearGradient4503">
      <stop
         style="stop-color:#b1b43e;stop-opacity:1"
         offset="0"
         id="stop4505" />
      <stop
         style="stop-color:#7fa92c;stop-opacity:1"
         offset="1"
         id="stop4507" />
    </linearGradient>
    <linearGradient
       inkscape:collect="always"
       xlink:href="#linearGradient4503"
       id="linearGradient4509"
       x1="16"
       y1="1026.3622"
       x2="16"
       y2="1048.3622"
       gradientUnits="userSpaceOnUse" />
    <linearGradient
       inkscape:collect="always"
       xlink:href="#linearGradient4511"
       id="linearGradient4517"
       x1="12"
       y1="1024.3622"
       x2="12"
       y2="1046.3622"
       gradientUnits="userSpaceOnUse" />
  </defs>
  <sodipodi:namedview
     id="base"
     pagecolor="#303030"
     bordercolor="#666666"
     borderopacity="1.0"
     inkscape:pageopacity="0"
     inkscape:pageshadow="2"
     inkscape:zoom="8.7983193"
     inkscape:cx="59.5"
     inkscape:cy="16"
     inkscape:document-units="px"
     inkscape:current-layer="layer1"
     showgrid="true"
     units="px"
     inkscape:window-width="1616"
     inkscape:window-height="1408"
     inkscape:window-x="2138"
     inkscape:window-y="204"
     inkscape:window-maximized="0"
     inkscape:snap-smooth-nodes="true"
     inkscape:object-nodes="true"
     inkscape:object-paths="true"
     inkscape:snap-intersection-paths="true">
    <inkscape:grid
       type="xygrid"
       id="grid4155"
       units="px"
       spacingx="1"
       spacingy="1" />
  </sodipodi:namedview>
  <metadata
     id="metadata7">
    <rdf:RDF>
      <cc:Work
         rdf:about="">
        <dc:format>image/svg+xml</dc:format>
        <dc:type
           rdf:resource="http://purl.org/dc/dcmitype/StillImage" />
        <dc:title></dc:title>
      </cc:Work>
    </rdf:RDF>
  </metadata>
  <g
     inkscape:label="Layer 1"
     inkscape:groupmode="layer"
     id="layer1"
     transform="translate(0,-1020.3622)">
    <path
       style="fill:#ffffff;fill-opacity:1;fill-rule:evenodd;stroke:none;stroke-width:1px;stroke-linecap:butt;stroke-linejoin:miter;stroke-opacity:1"
       d="m 63,10 c -1,0 -1,0 -1,1 l 0,2 c 0,1 0,1 1,1 l 7,0 c 1,0 2,0 2,1 l 0,1 c 0,1 0,1 -1,1 l -5,0 c -3,0 -5,2 -5,4 l 0,3 c 0,2 2,4 5,4 l 10,0 c 1,0 1,0 1,-1 l 0,-12 c 0,-2 -2,-5 -5,-5 z m 5,11 3,0 c 1,0 1,0 1,1 l 0,1 c 0,1 0,1 -1,1 l -3,0 c -1,0 -2,0 -2,-1 l 0,-1 c 0,-1 1,-1 2,-1 z"
       transform="translate(0,1020.3622)"
       id="path4521"
       inkscape:connector-curvature="0"
       sodipodi:nodetypes="cccccccccccccccccccccccccc" />
    <path
       style="fill:url(#linearGradient4517);fill-opacity:1;fill-rule:evenodd;stroke:none;stroke-width:1px;stroke-linecap:butt;stroke-linejoin:miter;stroke-opacity:1"
       d="m 4,1046.3622 0,-14 c 0,-5 3,-8 8,-8 l 14,0 -10,10 0,-5 -4,0 c -2,0 -3,1 -3,3 l 0,9"
       id="path4467"
       inkscape:connector-curvature="0"
       sodipodi:nodetypes="ccccccccc" />
    <path
       style="fill:url(#linearGradient4509);fill-opacity:1;fill-rule:evenodd;stroke:none;stroke-width:1px;stroke-linecap:butt;stroke-linejoin:miter;stroke-opacity:1"
       d="m 28,1026.3622 0,14 c 0,5 -3,8 -8,8 l -14,0 10,-10 0,5 4,0 c 2,0 3,-1 3,-3 l 0,-9"
       id="path4467-4"
       inkscape:connector-curvature="0"
       sodipodi:nodetypes="ccccccccc" />
    <path
       style="fill:#ffffff;fill-opacity:1;fill-rule:evenodd;stroke:none;stroke-width:1px;stroke-linecap:butt;stroke-linejoin:miter;stroke-opacity:1"
       d="m 33,1047.3622 c 0,1 0,1 1,1 l 3,0 c 1,0 1,0 1,-1 l 0,-7 c 0,-1 0,-1 1,-1 l 10,0 c 1,0 1,0 1,-1 l 0,-2 c 0,-1 0,-1 -1,-1 l -10,0 c -1,0 -1,0 -1,-1 l 0,-2 c 0,-2 2,-4 4,-4 l 7,0 c 1,0 1,0 1,-1 l 0,-2 c 0,-1 0,-1 -1,-1 l -8,0 c -4,0 -8,4 -8,7 z"
       id="path4493"
       inkscape:connector-curvature="0"
       sodipodi:nodetypes="ccccccccccccccccccccc" />
    <path
       style="fill:#ffffff;fill-opacity:1;fill-rule:evenodd;stroke:none;stroke-width:1px;stroke-linecap:butt;stroke-linejoin:miter;stroke-opacity:1"
       d="m 53,1047.3622 c 0,1 0,1 1,1 l 3,0 c 1,0 1,0 1,-1 l 0,-22 c 0,-1 0,-1 -1,-1 l -3,0 c -1,0 -1,0 -1,1 z"
       id="path4519"
       inkscape:connector-curvature="0"
       sodipodi:nodetypes="ccccccccc" />
    <path
       style="fill:#ffffff;fill-opacity:1;fill-rule:evenodd;stroke:none;stroke-width:1px;stroke-linecap:butt;stroke-linejoin:miter;stroke-opacity:1"
       d="m 88,1048.3622 -3,0 c -3,0 -5,-2 -5,-4 l 0,-19 c 0,-1 0,-1 1,-1 l 3,0 c 1,0 1,0 1,1 l 0,4 c 0,1 0,1 1,1 l 2,0 c 1,0 1,0 1,1 l 0,2 c 0,1 0,1 -1,1 l -2,0 c -1,0 -1,0 -1,1 l 0,8 c 0,1 1,1 2,1 l 1,0 c 1,0 1,0 1,1 l 0,2 c 0,1 0,1 -1,1 z"
       id="path4526"
       inkscape:connector-curvature="0"
       sodipodi:nodetypes="ccccccccccccccccccccc" />
    <path
       style="fill:#ffffff;fill-opacity:1;fill-rule:evenodd;stroke:none;stroke-width:1px;stroke-linecap:butt;stroke-linejoin:miter;stroke-opacity:1"
       d="m 100,1048.3622 -3,0 c -3,0 -5,-2 -5,-4 l 0,-19 c 0,-1 0,-1 1,-1 l 3,0 c 1,0 1,0 1,1 l 0,4 c 0,1 0,1 1,1 l 2,0 c 1,0 1,0 1,1 l 0,2 c 0,1 0,1 -1,1 l -2,0 c -1,0 -1,0 -1,1 l 0,8 c 0,1 1,1 2,1 l 1,0 c 1,0 1,0 1,1 l 0,2 c 0,1 0,1 -1,1 z"
       id="path4526-9"
       inkscape:connector-curvature="0"
       sodipodi:nodetypes="ccccccccccccccccccccc" />
    <path
       style="fill:#ffffff;fill-opacity:1;fill-rule:evenodd;stroke:none;stroke-width:1px;stroke-linecap:butt;stroke-linejoin:miter;stroke-opacity:1"
       d="m 105,1048.3622 c -1,0 -1,0 -1,-1 l 0,-12 c 0,-2 2,-5 5,-5 l 5,0 c 1,0 1,0 1,1 l 0,2 c 0,1 0,1 -1,1 l -3,0 c -1,0 -2,0 -2,1 l 0,12 c 0,1 0,1 -1,1"
       id="path4543"
       inkscape:connector-curvature="0"
       sodipodi:nodetypes="cccccccccccc" />
  </g>
</svg>
