<?xml version="1.0" encoding="UTF-8" standalone="no"?>
<!-- Created with Inkscape (http://www.inkscape.org/) -->

<svg
   xmlns:dc="http://purl.org/dc/elements/1.1/"
   xmlns:cc="http://creativecommons.org/ns#"
   xmlns:rdf="http://www.w3.org/1999/02/22-rdf-syntax-ns#"
   xmlns:svg="http://www.w3.org/2000/svg"
   xmlns="http://www.w3.org/2000/svg"
   xmlns:sodipodi="http://sodipodi.sourceforge.net/DTD/sodipodi-0.dtd"
   xmlns:inkscape="http://www.inkscape.org/namespaces/inkscape"
   width="32"
   height="32"
   viewBox="0 0 32 32"
   id="svg2"
   version="1.1"
   inkscape:version="0.91 r13725"
   sodipodi:docname="scut-gplus.svg">
  <defs
     id="defs4" />
  <sodipodi:namedview
     id="base"
     pagecolor="#303030"
     bordercolor="#666666"
     borderopacity="1.0"
     inkscape:pageopacity="0"
     inkscape:pageshadow="2"
     inkscape:zoom="32.71875"
     inkscape:cx="15.358059"
     inkscape:cy="16.122254"
     inkscape:document-units="px"
     inkscape:current-layer="layer1"
     showgrid="true"
     units="px"
     inkscape:window-width="1616"
     inkscape:window-height="1408"
     inkscape:window-x="2138"
     inkscape:window-y="204"
     inkscape:window-maximized="0"
     inkscape:snap-smooth-nodes="true"
     inkscape:object-nodes="true"
     inkscape:object-paths="true"
     inkscape:snap-intersection-paths="true">
    <inkscape:grid
       type="xygrid"
       id="grid4155"
       units="px"
       spacingx="1"
       spacingy="1" />
  </sodipodi:namedview>
  <metadata
     id="metadata7">
    <rdf:RDF>
      <cc:Work
         rdf:about="">
        <dc:format>image/svg+xml</dc:format>
        <dc:type
           rdf:resource="http://purl.org/dc/dcmitype/StillImage" />
        <dc:title></dc:title>
      </cc:Work>
    </rdf:RDF>
  </metadata>
  <g
     inkscape:label="Layer 1"
     inkscape:groupmode="layer"
     id="layer1"
     transform="translate(0,-1020.3622)">
    <path
       style="fill:#202020;fill-opacity:1;fill-rule:evenodd;stroke:none;stroke-width:1px;stroke-linecap:butt;stroke-linejoin:miter;stroke-opacity:1"
       d="m 6,1048.3622 c -0.9909947,-0.01 -2,-1 -2,-2 l 0,-19 24,0 0,19 c 0,1 -1,2 -1.990995,2.009"
       id="path4174"
       inkscape:connector-curvature="0"
       sodipodi:nodetypes="cccccc" />
    <path
       style="color:#000000;clip-rule:nonzero;display:inline;overflow:visible;visibility:visible;opacity:1;isolation:auto;mix-blend-mode:normal;color-interpolation:sRGB;color-interpolation-filters:linearRGB;solid-color:#000000;solid-opacity:1;fill:#ffffff;fill-opacity:1;fill-rule:nonzero;stroke:none;stroke-width:0.99921262;stroke-linecap:round;stroke-linejoin:round;stroke-miterlimit:4;stroke-dasharray:none;stroke-dashoffset:0;stroke-opacity:1;color-rendering:auto;image-rendering:auto;shape-rendering:auto;text-rendering:auto;enable-background:accumulate"
       d="m 15.109375,11.279297 c -2.795412,0 -3.522669,0.187916 -4.525391,1.166015 -0.9091758,0.8869 -1.1704662,1.96986 -0.7851559,3.25586 0.3051209,1.0184 1.5516459,1.830078 2.8085939,1.830078 0.392888,0 0.414062,0.02402 0.414062,0.449219 0,0.2669 0.106183,0.58395 0.261719,0.78125 l 0.263672,0.332031 -0.857422,0.0957 c -1.962035,0.2154 -3.3503878,0.941875 -3.673828,1.921875 -0.081478,0.2469 -0.1229936,0.779394 -0.09375,1.183594 0.082838,1.1453 0.8278897,1.927687 2.197266,2.304687 0.781761,0.2153 2.561814,0.222772 3.341797,0.01367 l 0,0.002 c 0.918321,-0.2453 1.583784,-0.6231 2.09375,-1.1875 0.508198,-0.5626 0.717723,-1.166818 0.71875,-2.074218 9.8e-4,-0.9164 -0.379289,-1.565291 -1.511719,-2.587891 -0.616614,-0.5567 -0.988282,-0.990438 -0.988281,-1.148437 0,-0.142201 0.354028,-0.620997 0.808593,-1.091797 0.957976,-0.9923 1.066407,-1.23166 1.066407,-2.38086 0,-1.0028 -0.20297,-1.58489 -0.683594,-1.96289 l -0.337891,-0.265625 0.291016,-0.0625 c 0.160506,-0.033 0.513407,-0.10531 0.783203,-0.16211 0.269798,-0.057 0.512805,-0.173112 0.541016,-0.257812 0.0393,-0.1179 -0.458356,-0.154297 -2.132813,-0.154297 z m -2.248047,0.753906 c 0.415406,0 0.622406,0.08178 0.976563,0.392578 1.13708,0.9983 1.402235,2.81375 0.552734,3.78125 -0.434815,0.4953 -0.806294,0.59516 -1.429687,0.38086 -0.608799,-0.2093 -0.872134,-0.468257 -1.248047,-1.222657 C 11.483748,14.905434 11.396484,14.5317 11.396484,14 c 0,-1.2456 0.533605,-1.961897 1.464844,-1.966797 z m 0.757813,7.755859 c 0.28576,0.01433 0.567852,0.05927 0.839843,0.134766 0.296998,0.082 0.717138,0.353922 1.033204,0.669922 0.558375,0.5584 0.676173,1.040844 0.419921,1.714844 -0.178873,0.4705 -0.880487,1.074703 -1.492187,1.283203 -0.779601,0.2656 -2.082139,0.244631 -2.714844,-0.04297 -0.597503,-0.2713 -1.130113,-0.861759 -1.24414,-1.380859 -0.109776,-0.4998 0.292782,-1.390188 0.787109,-1.742188 0.637172,-0.453675 1.513814,-0.679717 2.371094,-0.636719 z"
       transform="translate(0,1020.3622)"
       id="rect4193"
       inkscape:connector-curvature="0"
       sodipodi:nodetypes="scssscccccccccccscscccccscccccscscccccccs" />
    <path
       style="fill:#d21e1d;fill-opacity:1;fill-rule:evenodd;stroke:none;stroke-width:1px;stroke-linecap:butt;stroke-linejoin:miter;stroke-opacity:1"
       d="m 4,1027.3622 0,-1 c 0,-1 1,-2 2,-2 l 4,0 0,3 z"
       id="path4178"
       inkscape:connector-curvature="0"
       sodipodi:nodetypes="cccccc" />
    <path
       style="fill:#3368e0;fill-rule:evenodd;stroke:none;stroke-width:1px;stroke-linecap:butt;stroke-linejoin:miter;stroke-opacity:1;fill-opacity:1"
       d="m 10,1027.3622 6,0 0,-3 -6,0 z"
       id="path4180"
       inkscape:connector-curvature="0" />
    <path
       style="fill:#0b9d33;fill-rule:evenodd;stroke:none;stroke-width:1px;stroke-linecap:butt;stroke-linejoin:miter;stroke-opacity:1;fill-opacity:1"
       d="m 16,1027.3622 6,0 0,-3 -6,0 z"
       id="path4182"
       inkscape:connector-curvature="0" />
    <path
       style="fill:#e9b223;fill-opacity:1;fill-rule:evenodd;stroke:none;stroke-width:1px;stroke-linecap:butt;stroke-linejoin:miter;stroke-opacity:1"
       d="m 22,1027.3622 6,0 0,-1 c 0,-1 -1,-2 -2,-2 l -4,0 z"
       id="path4184"
       inkscape:connector-curvature="0"
       sodipodi:nodetypes="cccccc" />
    <path
       style="fill:#ffffff;fill-rule:evenodd;stroke:none;stroke-width:1px;stroke-linecap:butt;stroke-linejoin:miter;stroke-opacity:1;fill-opacity:1"
       d="m 18,1034.3622 0,1 3,0 0,3 1,0 0,-3 3,0 0,-1 -3,0 0,-3 -1,0 0,3 z"
       id="path4186"
       inkscape:connector-curvature="0" />
  </g>
</svg>
