<?xml version="1.0" encoding="UTF-8" standalone="no"?>
<!-- Created with Inkscape (http://www.inkscape.org/) -->

<svg
   xmlns:dc="http://purl.org/dc/elements/1.1/"
   xmlns:cc="http://creativecommons.org/ns#"
   xmlns:rdf="http://www.w3.org/1999/02/22-rdf-syntax-ns#"
   xmlns:svg="http://www.w3.org/2000/svg"
   xmlns="http://www.w3.org/2000/svg"
   xmlns:sodipodi="http://sodipodi.sourceforge.net/DTD/sodipodi-0.dtd"
   xmlns:inkscape="http://www.inkscape.org/namespaces/inkscape"
   width="107"
   height="32"
   viewBox="0 0 107 32"
   id="svg2"
   version="1.1"
   inkscape:version="0.91 r13725"
   sodipodi:docname="scut-paypal.svg">
  <defs
     id="defs4" />
  <sodipodi:namedview
     id="base"
     pagecolor="#303030"
     bordercolor="#666666"
     borderopacity="1.0"
     inkscape:pageopacity="0"
     inkscape:pageshadow="2"
     inkscape:zoom="9.7850467"
     inkscape:cx="53.5"
     inkscape:cy="16"
     inkscape:document-units="px"
     inkscape:current-layer="layer1"
     showgrid="true"
     units="px"
     inkscape:window-width="1616"
     inkscape:window-height="1408"
     inkscape:window-x="2138"
     inkscape:window-y="204"
     inkscape:window-maximized="0"
     inkscape:snap-smooth-nodes="true"
     inkscape:object-nodes="true"
     inkscape:object-paths="true"
     inkscape:snap-intersection-paths="true"
     inkscape:snap-global="false">
    <inkscape:grid
       type="xygrid"
       id="grid4155"
       units="px"
       spacingx="1"
       spacingy="1" />
  </sodipodi:namedview>
  <metadata
     id="metadata7">
    <rdf:RDF>
      <cc:Work
         rdf:about="">
        <dc:format>image/svg+xml</dc:format>
        <dc:type
           rdf:resource="http://purl.org/dc/dcmitype/StillImage" />
        <dc:title></dc:title>
      </cc:Work>
    </rdf:RDF>
  </metadata>
  <g
     inkscape:label="Layer 1"
     inkscape:groupmode="layer"
     id="layer1"
     transform="translate(0,-1020.3622)">
    <g
       id="g4645"
       transform="matrix(1.0494288,0,0,1.0494288,-1.7013865,-51.093488)">
      <path
         sodipodi:nodetypes="cscccccscccscccccssccccscscccsscccscscccccccsccccccccccscscscccccccscscccccscccccsccccccccccccc"
         style="fill:#019be0"
         d="m 10.1491,1047.5764 c -0.2295512,-0.1762 -0.2372516,-0.4697 -0.0434,-1.6538 0.07534,-0.4602 2.66e-4,0 0.136985,-0.9308 1.567647,-11.663 3.606683,-18.3924 12.774804,-14.128 0.139834,0.078 0.418796,0.3086 0.619915,0.5117 0.287348,0.29 0.404939,0.4502 0.549004,0.7479 0.463807,0.9582 0.526481,2.1226 0.198775,3.6928 -0.308377,1.4777 -0.910109,2.6645 -1.808632,3.5673 -0.831842,0.8358 -1.730604,1.3244 -2.937703,1.597 -0.232455,0.053 -0.698157,0.079 -1.794017,0.1009 -1.589179,0.032 -1.623399,0.037 -1.844834,0.2808 -0.244698,0.269 -0.275084,0.3915 -0.55456,2.2356 -0.62546,4.1269 -0.563315,3.7997 -0.749431,3.9461 -0.111705,0.088 -0.176075,0.09 -2.295338,0.089 -1.643267,0 -2.197941,-0.015 -2.251572,-0.056 z m 74.61257,-3.1031 c -1.427907,-0.3142 -2.539785,-1.3979 -2.946009,-2.8714 -0.14292,-0.5184 -0.142934,-1.7232 -2.2e-5,-2.3855 0.276767,-1.2826 0.789192,-2.2654 1.637157,-3.1398 1.020101,-1.052 2.218212,-1.5902 3.775648,-1.6962 0.49596,-0.034 1.196085,0.029 1.589068,0.142 0.622708,0.1794 1.132523,0.5643 1.391853,1.0509 0.208693,0.3915 0.270093,0.3559 0.387785,-0.2252 0.07275,-0.3592 0.117975,-0.4861 0.195584,-0.549 0.09249,-0.075 0.20986,-0.082 1.398688,-0.082 l 1.297733,0 0.116248,0.1162 c 0.108507,0.1085 0.114503,0.1362 0.0901,0.4149 -0.01438,0.1642 -0.240134,1.6408 -0.501675,3.2812 -0.261541,1.6404 -0.555535,3.4871 -0.653323,4.1038 -0.09779,0.6167 -0.199077,1.1862 -0.225086,1.2656 -0.02601,0.079 -0.108036,0.1954 -0.182285,0.2578 l -0.135,0.1136 -1.274793,0 c -1.581471,0 -1.481315,0.047 -1.435366,-0.6787 0.02879,-0.4551 0.02535,-0.4874 -0.05197,-0.4874 -0.04554,0 -0.249516,0.1411 -0.453276,0.3134 -0.203756,0.1724 -0.455183,0.3716 -0.55872,0.4426 -0.439884,0.3017 -1.062094,0.5475 -1.601039,0.6326 -0.404636,0.064 -1.536096,0.052 -1.861293,-0.02 z m 2.99156,-2.5388 c 0.130721,-0.027 0.428425,-0.1401 0.661566,-0.252 0.731125,-0.3509 1.365588,-1.085 1.585835,-1.8349 0.2409,-0.8202 0.0487,-1.6518 -0.511143,-2.2117 -0.946294,-0.9462 -2.614344,-0.817 -3.696258,0.2865 -0.363207,0.3705 -0.564864,0.6901 -0.727303,1.1529 -0.151971,0.4329 -0.160713,1.0884 -0.01979,1.4838 0.233321,0.6546 0.719733,1.1209 1.397427,1.3396 0.286698,0.093 0.944564,0.1105 1.309669,0.036 z m 6.639706,2.3345 c -0.0557,-0.022 -0.122993,-0.088 -0.149536,-0.1466 -0.05324,-0.1169 -0.08026,0.074 0.566026,-4.0005 0.211277,-1.3321 0.472804,-2.9871 0.581168,-3.6778 0.754191,-4.807 0.973693,-6.1596 1.017463,-6.2699 0.09642,-0.243 0.177886,-0.2558 1.627111,-0.2558 1.265517,0 1.329362,0 1.415017,0.09 0.04933,0.049 0.0897,0.1393 0.0897,0.1999 0,0.2314 -2.155857,13.7764 -2.208996,13.8789 -0.108367,0.2088 -0.248372,0.2287 -1.590638,0.2256 -0.685319,0 -1.291616,-0.021 -1.347316,-0.043 z m -24.117953,-0.041 c -0.130371,-0.053 -0.232527,-0.1846 -0.265815,-0.3415 -0.01707,-0.081 0.03595,-0.5539 0.128102,-1.1437 0.08647,-0.5535 0.249592,-1.6018 0.362494,-2.3295 0.112902,-0.7277 0.30444,-1.9588 0.42564,-2.7359 0.121199,-0.777 0.423168,-2.7145 0.671043,-4.3056 0.503612,-3.2326 0.499777,-3.2174 0.854992,-3.3993 l 0.200616,-0.1027 3.274082,0.018 c 3.499589,0.019 3.496234,0.019 4.21594,0.2591 0.554763,0.185 0.970567,0.4412 1.368417,0.8434 0.731811,0.7399 1.024788,1.7186 0.904364,3.0211 -0.122589,1.3259 -0.47867,2.4519 -1.062134,3.359 -0.291353,0.4529 -0.987198,1.1281 -1.43803,1.3954 -0.198522,0.1177 -0.557581,0.2843 -0.797916,0.3702 -0.751074,0.2685 -1.024133,0.2987 -2.920319,0.3238 -1.904066,0.025 -1.834956,0.013 -1.993678,0.3506 -0.09275,0.1974 -0.138637,0.4493 -0.495247,2.7191 -0.09956,0.6337 -0.20245,1.2089 -0.228656,1.2783 -0.07055,0.1867 -0.262254,0.3674 -0.443046,0.4176 -0.190938,0.053 -2.631936,0.055 -2.760849,0 z m 6.746105,-7.6064 c 0.77428,-0.1825 1.303609,-0.7424 1.532647,-1.6211 0.106358,-0.4081 0.130353,-1.0294 0.05019,-1.2996 -0.128765,-0.4341 -0.536483,-0.8222 -1.01832,-0.9695 -0.197996,-0.061 -2.259981,-0.055 -2.321404,0.01 -0.0513,0.051 -0.631992,3.8026 -0.601072,3.8831 0.0232,0.06 0.164467,0.07 1.048563,0.069 0.753029,-5e-4 1.097404,-0.018 1.309399,-0.069 z"
         id="path4637"
         inkscape:connector-curvature="0" />
      <path
         sodipodi:nodetypes="cccccscscsccccccccccccccscscccsccccscssccccccccccccccssccccscccccccsccccscccccscccsccccccsccccscc"
         style="fill:#123983"
         d="m 58.378044,1047.589 c -0.127559,-0.053 -0.209994,-0.2291 -0.174177,-0.3718 0.01511,-0.06 0.596439,-0.9144 1.291859,-1.8983 0.695414,-0.9838 1.299621,-1.8493 1.342678,-1.9233 l 0.07829,-0.1346 -1.117376,-3.2741 c -1.794578,-5.2583 -1.633525,-4.7505 -1.571815,-4.9565 0.09136,-0.3049 0.134735,-0.3134 1.59655,-0.3134 1.375455,0 1.506378,0.018 1.654559,0.2297 0.0818,0.1168 0.178904,0.4197 0.990441,3.0892 0.613832,2.0192 0.633485,2.0773 0.695154,2.0555 0.02287,-0.01 0.811762,-1.1349 1.753105,-2.504 0.941343,-1.369 1.790469,-2.5699 1.886952,-2.6686 l 0.175419,-0.1794 1.432832,-0.013 c 1.391282,-0.013 1.435487,-0.01 1.524313,0.078 0.148863,0.1489 0.121164,0.3906 -0.08035,0.7012 -0.148828,0.2294 -6.63829,9.5562 -7.861796,11.2992 -0.263765,0.3757 -0.500535,0.6646 -0.588083,0.7176 -0.136552,0.082 -0.241412,0.089 -1.536912,0.099 -0.791933,0.01 -1.433953,-0.01 -1.49164,-0.032 z m -52.8442596,-2.6837 c -0.2291586,-0.2291 -0.2242413,-0.3026 0.200307,-2.9945 0.2135752,-1.3541 0.4769602,-3.0272 0.5852998,-3.7179 0.1083397,-0.6907 0.3885545,-2.4668 0.6226997,-3.9468 0.2341452,-1.4801 0.6287987,-3.9828 0.8770077,-5.5615 0.248209,-1.5787 0.4831217,-2.9713 0.5220282,-3.0947 0.1011864,-0.3207 0.2621444,-0.5089 0.5512506,-0.6445 l 0.2514747,-0.1179 4.1486649,10e-5 c 4.3439,10e-5 4.626828,0.01 5.635556,0.2051 2.006022,0.3871 3.21657,1.4312 3.682043,3.1757 0.09926,0.3719 0.115447,0.5271 0.117547,1.1265 -0.02675,10.1968 -10.775269,4.9061 -11.40491,9.0917 -0.02766,0.1027 -0.261463,1.5306 -0.519568,3.1732 -0.258498,1.645 -0.499437,3.0447 -0.536419,3.1162 -0.03693,0.071 -0.120719,0.172 -0.186207,0.2235 -0.1169882,0.092 -0.1566786,0.094 -2.2692929,0.094 l -2.150222,0 -0.1272597,-0.1273 z m 42.2436986,-0.4539 c -1.490613,-0.3144 -2.661448,-1.525 -2.984144,-3.0854 -0.08987,-0.4346 -0.06114,-1.653 0.05103,-2.164 0.273911,-1.2476 0.852867,-2.3516 1.654978,-3.1559 0.883529,-0.8859 1.966098,-1.4197 3.247589,-1.6013 0.494684,-0.07 1.597775,-0.031 1.982395,0.071 0.664454,0.1752 1.21032,0.5656 1.448749,1.0361 0.137086,0.2705 0.237748,0.3673 0.308535,0.2965 0.02704,-0.027 0.08631,-0.2472 0.131708,-0.4892 0.127155,-0.6779 0.04015,-0.6421 1.555781,-0.6412 1.34266,7e-4 1.430019,0.014 1.50749,0.2345 0.04548,0.1294 0.02673,0.262 -0.534308,3.7789 -0.16134,1.0114 -0.405708,2.5554 -0.54304,3.4311 -0.263792,1.6821 -0.33414,1.9416 -0.555984,2.0512 -0.0806,0.04 -0.456353,0.056 -1.336341,0.056 l -1.22421,6e-4 -0.11009,-0.1101 c -0.126563,-0.1265 -0.128066,-0.1432 -0.05793,-0.6451 0.0781,-0.5589 -0.01456,-0.5704 -0.590357,-0.073 -0.692711,0.5979 -1.343105,0.911 -2.142567,1.0315 -0.587057,0.088 -1.329758,0.08 -1.809282,-0.022 z m 2.942714,-2.4909 c 0.973752,-0.2031 1.890746,-0.9928 2.247033,-1.935 0.231877,-0.6131 0.188861,-1.4362 -0.101572,-1.9436 -0.782174,-1.3664 -2.728709,-1.4787 -4.023345,-0.2322 -0.677586,0.6524 -1.016513,1.5385 -0.893201,2.3352 0.19909,1.2862 1.407063,2.0603 2.771085,1.7756 z m -17.503822,2.2357 c -0.08882,-0.037 -0.189681,-0.2651 -0.189575,-0.4284 9e-5,-0.1352 0.204213,-1.4652 1.568084,-10.2169 0.247953,-1.5911 0.480988,-2.9971 0.517856,-3.1245 0.06937,-0.2396 0.25083,-0.4407 0.440257,-0.4878 0.0536,-0.013 1.611159,-0.018 3.461239,-0.011 l 3.363782,0.014 0.446152,0.1223 c 1.862825,0.5107 2.764554,1.8827 2.579531,3.925 -0.236592,2.6115 -1.371681,4.4124 -3.216659,5.1034 -0.75977,0.2846 -0.927271,0.3037 -2.910298,0.3312 -1.718884,0.024 -1.805109,0.029 -1.899703,0.1147 -0.244158,0.221 -0.268876,0.3288 -0.673892,2.9377 -0.18598,1.198 -0.260756,1.4729 -0.445349,1.6371 -0.09596,0.085 -0.170921,0.09 -1.542638,0.098 -0.79298,0 -1.467434,0 -1.498787,-0.015 z m 6.935945,-7.5903 c 0.377629,-0.1175 0.629732,-0.2758 0.885428,-0.5557 0.396926,-0.4347 0.593792,-0.9691 0.631474,-1.7144 0.03034,-0.6 -0.06655,-0.878 -0.431257,-1.2373 -0.396795,-0.3909 -0.490526,-0.4133 -1.814328,-0.4341 -0.676253,-0.011 -1.132434,-6e-4 -1.158483,0.025 -0.04824,0.048 -0.666216,3.9144 -0.634098,3.967 0.01129,0.018 0.522114,0.034 1.135153,0.034 0.965771,0 1.150874,-0.011 1.386111,-0.085 z"
         id="path4635"
         inkscape:connector-curvature="0" />
      <path
         sodipodi:nodetypes="ccccccsccccccc"
         style="fill:#162b70"
         d="m 11.516742,1036.8958 c 0.304127,-1.8982 0.554653,-3.4653 0.838128,-5.3183 0.04738,-0.3084 0.118752,-0.6486 0.158603,-0.756 0.0964,-0.2599 0.28936,-0.4721 0.521725,-0.5737 0.178334,-0.078 0.39314,-0.084 3.486549,-0.097 3.350855,-0.014 4.391469,0.017 5.03777,0.1511 0.418241,0.087 1.091257,0.3206 1.091257,0.3723 0,0.022 -0.04364,0.3466 -0.106527,0.6445 -0.389346,1.844 -1.067889,3.1006 -2.166165,4.2072 -0.9833,0.9908 -2.109733,1.5689 -3.539781,1.8435 -0.460832,0.088 -0.722953,0.1 -2.701439,0.1243 -2.395702,0.03 -2.170433,-0.015 -2.504174,0.3058 -0.104838,0.1009 -0.345425,0.7359 -0.342959,0.7148 0.0545,-0.5635 0.156289,-1.1644 0.227013,-1.6185 z"
         id="path4633"
         inkscape:connector-curvature="0" />
    </g>
  </g>
</svg>
