<?xml version="1.0" encoding="UTF-8" standalone="no"?>
<!-- Created with Inkscape (http://www.inkscape.org/) -->

<svg
   xmlns:dc="http://purl.org/dc/elements/1.1/"
   xmlns:cc="http://creativecommons.org/ns#"
   xmlns:rdf="http://www.w3.org/1999/02/22-rdf-syntax-ns#"
   xmlns:svg="http://www.w3.org/2000/svg"
   xmlns="http://www.w3.org/2000/svg"
   xmlns:sodipodi="http://sodipodi.sourceforge.net/DTD/sodipodi-0.dtd"
   xmlns:inkscape="http://www.inkscape.org/namespaces/inkscape"
   width="32"
   height="32"
   viewBox="0 0 32 32"
   id="svg2"
   version="1.1"
   inkscape:version="0.91 r13725"
   sodipodi:docname="scut-twitter.svg">
  <defs
     id="defs4" />
  <sodipodi:namedview
     id="base"
     pagecolor="#303030"
     bordercolor="#666666"
     borderopacity="1.0"
     inkscape:pageopacity="0"
     inkscape:pageshadow="2"
     inkscape:zoom="32.71875"
     inkscape:cx="16"
     inkscape:cy="16"
     inkscape:document-units="px"
     inkscape:current-layer="layer1"
     showgrid="true"
     units="px"
     inkscape:window-width="1616"
     inkscape:window-height="1408"
     inkscape:window-x="2431"
     inkscape:window-y="307"
     inkscape:window-maximized="0">
    <inkscape:grid
       type="xygrid"
       id="grid4155"
       units="px"
       spacingx="1"
       spacingy="1" />
  </sodipodi:namedview>
  <metadata
     id="metadata7">
    <rdf:RDF>
      <cc:Work
         rdf:about="">
        <dc:format>image/svg+xml</dc:format>
        <dc:type
           rdf:resource="http://purl.org/dc/dcmitype/StillImage" />
        <dc:title></dc:title>
      </cc:Work>
    </rdf:RDF>
  </metadata>
  <g
     inkscape:label="Layer 1"
     inkscape:groupmode="layer"
     id="layer1"
     transform="translate(0,-1020.3622)">
    <path
       style="fill:#55acee;fill-opacity:1"
       d="m 11.014009,1046.1181 c -2.2909732,-0.094 -4.4411239,-0.708 -6.4086484,-1.8291 -0.2098919,-0.1202 -0.6183862,-0.368 -0.6131939,-0.3731 0.00156,0 0.055665,0 0.120221,0.012 0.4078177,0.045 1.107887,0.064 1.5305636,0.042 1.1179584,-0.056 2.1813075,-0.2879 3.2019764,-0.6954 0.7648194,-0.3056 1.5277203,-0.7295 2.1878613,-1.2159 0.08522,-0.062 0.174743,-0.1287 0.198955,-0.1465 0.02421,-0.018 0.04428,-0.035 0.0446,-0.038 3.19e-4,0 -0.04273,-0.012 -0.09567,-0.012 -0.342972,0 -0.786892,-0.076 -1.179477,-0.1892 -1.4481113,-0.4167 -2.6424448,-1.4959 -3.2052067,-2.8962 -0.050319,-0.1253 -0.1215117,-0.3257 -0.1171843,-0.3301 0.0019,0 0.036877,0 0.077716,0.012 0.2832068,0.053 0.5840734,0.074 0.9458461,0.069 0.4039908,-0.012 0.6693117,-0.04 1.0533488,-0.1304 0.119415,-0.028 0.1638363,-0.046 0.1168237,-0.046 -0.045324,0 -0.3734201,-0.087 -0.5487617,-0.1456 -1.0186576,-0.34 -1.8958639,-0.999 -2.5060759,-1.8826 -0.4747271,-0.6877 -0.758312,-1.4595 -0.8468566,-2.3053 -0.016874,-0.1612 -0.029179,-0.5534 -0.017199,-0.5482 0.00469,0 0.099373,0.049 0.21041,0.1033 0.2259632,0.1118 0.3680277,0.1712 0.5932076,0.2478 0.4235589,0.1438 0.8589263,0.2283 1.3082594,0.2538 l 0.1126795,0.012 -0.098594,-0.07 c -0.4088821,-0.2914 -0.7693748,-0.637 -1.0704323,-1.0261 -0.104349,-0.1348 -0.2929518,-0.4183 -0.3778766,-0.568 -0.6556581,-1.1557 -0.8191446,-2.5277 -0.4530385,-3.8021 0.1020702,-0.3553 0.2438612,-0.7005 0.413185,-1.0059 l 0.061991,-0.1118 0.071631,0.087 c 0.4282756,0.5175 0.9892037,1.0975 1.497562,1.5489 2.2715575,2.0162 5.1283847,3.2391 8.1436177,3.4859 0.238291,0.019 0.440434,0.032 0.445217,0.028 0.0022,0 -0.0096,-0.072 -0.02606,-0.1563 -0.06703,-0.3416 -0.08952,-0.5824 -0.08969,-0.9601 -1.31e-4,-0.3069 0.0085,-0.4385 0.0469,-0.7076 0.198431,-1.394 0.985895,-2.6339 2.169009,-3.4151 0.974657,-0.6437 2.151599,-0.9179 3.320099,-0.7737 1.085398,0.134 2.071166,0.6121 2.865357,1.39 l 0.131137,0.1285 0.170093,-0.037 c 0.987849,-0.2129 1.9453,-0.5805 2.826411,-1.0849 0.06656,-0.038 0.122176,-0.068 0.123579,-0.066 0.0014,0 -0.01202,0.044 -0.02974,0.096 -0.318239,0.9256 -0.91505,1.7421 -1.709447,2.3387 -0.09992,0.075 -0.3759,0.2611 -0.400258,0.2698 -0.07144,0.025 0.295635,-0.024 0.613106,-0.083 0.685066,-0.1264 1.371581,-0.3317 2.022834,-0.6048 0.08742,-0.037 0.16042,-0.065 0.16225,-0.064 0.0041,0 -0.19961,0.2954 -0.296317,0.4238 -0.600102,0.7965 -1.295343,1.4856 -2.094313,2.0756 l -0.05061,0.037 -0.0017,0.6243 c -0.0017,0.6077 -0.0049,0.7012 -0.03846,1.1079 -0.118761,1.4385 -0.477601,2.915 -1.041459,4.2855 -0.271894,0.6609 -0.635248,1.3858 -0.992381,1.98 -1.673091,2.7836 -4.129182,4.8185 -7.078595,5.8646 -1.276367,0.4528 -2.608619,0.7101 -4.094022,0.7908 -0.244626,0.013 -1.064681,0.019 -1.305206,0.012 z"
       id="path4222"
       inkscape:connector-curvature="0" />
  </g>
</svg>
