<?xml version="1.0" encoding="UTF-8" standalone="no"?>
<!-- Created with Inkscape (http://www.inkscape.org/) -->

<svg
   xmlns:dc="http://purl.org/dc/elements/1.1/"
   xmlns:cc="http://creativecommons.org/ns#"
   xmlns:rdf="http://www.w3.org/1999/02/22-rdf-syntax-ns#"
   xmlns:svg="http://www.w3.org/2000/svg"
   xmlns="http://www.w3.org/2000/svg"
   xmlns:xlink="http://www.w3.org/1999/xlink"
   xmlns:sodipodi="http://sodipodi.sourceforge.net/DTD/sodipodi-0.dtd"
   xmlns:inkscape="http://www.inkscape.org/namespaces/inkscape"
   width="94"
   height="32"
   viewBox="0 0 94 32"
   id="svg2"
   version="1.1"
   inkscape:version="0.91 r13725"
   sodipodi:docname="scut-flattr.svg">
  <defs
     id="defs4">
    <linearGradient
       inkscape:collect="always"
       id="linearGradient4511">
      <stop
         style="stop-color:#fcc022;stop-opacity:1"
         offset="0"
         id="stop4513" />
      <stop
         style="stop-color:#db6b27;stop-opacity:1"
         offset="1"
         id="stop4515" />
    </linearGradient>
    <linearGradient
       inkscape:collect="always"
       id="linearGradient4503">
      <stop
         style="stop-color:#b1b43e;stop-opacity:1"
         offset="0"
         id="stop4505" />
      <stop
         style="stop-color:#7fa92c;stop-opacity:1"
         offset="1"
         id="stop4507" />
    </linearGradient>
    <linearGradient
       inkscape:collect="always"
       xlink:href="#linearGradient4503"
       id="linearGradient4509"
       x1="16"
       y1="1026.3622"
       x2="16"
       y2="1048.3622"
       gradientUnits="userSpaceOnUse" />
    <linearGradient
       inkscape:collect="always"
       xlink:href="#linearGradient4511"
       id="linearGradient4517"
       x1="12"
       y1="1024.3622"
       x2="12"
       y2="1046.3622"
       gradientUnits="userSpaceOnUse" />
  </defs>
  <sodipodi:namedview
     id="base"
     pagecolor="#303030"
     bordercolor="#666666"
     borderopacity="1.0"
     inkscape:pageopacity="0"
     inkscape:pageshadow="2"
     inkscape:zoom="1"
     inkscape:cx="47"
     inkscape:cy="16"
     inkscape:document-units="px"
     inkscape:current-layer="layer1"
     showgrid="true"
     units="px"
     inkscape:window-width="2277"
     inkscape:window-height="1472"
     inkscape:window-x="2138"
     inkscape:window-y="204"
     inkscape:window-maximized="0"
     inkscape:snap-smooth-nodes="true"
     inkscape:object-nodes="true"
     inkscape:object-paths="true"
     inkscape:snap-intersection-paths="true">
    <inkscape:grid
       type="xygrid"
       id="grid4155"
       units="px"
       spacingx="1"
       spacingy="1" />
  </sodipodi:namedview>
  <metadata
     id="metadata7">
    <rdf:RDF>
      <cc:Work
         rdf:about="">
        <dc:format>image/svg+xml</dc:format>
        <dc:type
           rdf:resource="http://purl.org/dc/dcmitype/StillImage" />
        <dc:title></dc:title>
      </cc:Work>
    </rdf:RDF>
  </metadata>
  <g
     inkscape:label="Layer 1"
     inkscape:groupmode="layer"
     id="layer1"
     transform="translate(0,-1020.3622)">
    <path
       style="fill:url(#linearGradient4517);fill-opacity:1;fill-rule:evenodd;stroke:none;stroke-width:1px;stroke-linecap:butt;stroke-linejoin:miter;stroke-opacity:1"
       d="m 4,1046.3622 0,-14 c 0,-5 3,-8 8,-8 l 14,0 -10,10 0,-5 -4,0 c -2,0 -3,1 -3,3 l 0,9"
       id="path4467"
       inkscape:connector-curvature="0"
       sodipodi:nodetypes="ccccccccc" />
    <path
       style="fill:url(#linearGradient4509);fill-opacity:1;fill-rule:evenodd;stroke:none;stroke-width:1px;stroke-linecap:butt;stroke-linejoin:miter;stroke-opacity:1"
       d="m 28,1026.3622 0,14 c 0,5 -3,8 -8,8 l -14,0 10,-10 0,5 4,0 c 2,0 3,-1 3,-3 l 0,-9"
       id="path4467-4"
       inkscape:connector-curvature="0"
       sodipodi:nodetypes="ccccccccc" />
    <g
       id="g4150"
       transform="matrix(0.80525452,0,0,0.80525452,8.4266008,201.10772)">
      <path
         sodipodi:nodetypes="cccccccccccccccccccccccccc"
         inkscape:connector-curvature="0"
         id="path4521"
         d="m 57.836915,1032.2878 c -0.827897,0 -0.827897,0 -0.827897,0.8279 l 0,1.6558 c 0,0.8279 0,0.8279 0.827897,0.8279 l 5.795281,0 c 0.827896,0 1.655793,0 1.655793,0.828 l 0,0.8278 c 0,0.8279 0,0.8279 -0.827897,0.8279 l -4.139485,0 c -2.483692,0 -4.139485,1.6558 -4.139485,3.3117 l 0,2.4837 c 0,1.6556 1.655793,3.3115 4.139485,3.3115 l 8.278972,0 c 0.827897,0 0.827897,0 0.827897,-0.8278 l 0,-9.9348 c 0,-1.6559 -1.655795,-4.1396 -4.139487,-4.1396 z m 4.139486,9.107 2.483691,0 c 0.827897,0 0.827897,0 0.827897,0.8278 l 0,0.8279 c 0,0.828 0,0.828 -0.827897,0.828 l -2.483691,0 c -0.827897,0 -1.655794,0 -1.655794,-0.828 l 0,-0.8279 c 0,-0.8278 0.827897,-0.8278 1.655794,-0.8278 z"
         style="fill:#ffffff;fill-opacity:1;fill-rule:evenodd;stroke:none;stroke-width:1px;stroke-linecap:butt;stroke-linejoin:miter;stroke-opacity:1" />
      <path
         sodipodi:nodetypes="ccccccccccccccccccccc"
         inkscape:connector-curvature="0"
         id="path4493"
         d="m 33,1046.3622 c 0,0.8278 0,0.8278 0.827897,0.8278 l 2.483692,0 c 0.827897,0 0.827897,0 0.827897,-0.8278 l 0,-5.7954 c 0,-0.8279 0,-0.8279 0.827897,-0.8279 l 8.278972,0 c 0.827897,0 0.827897,0 0.827897,-0.8278 l 0,-1.6559 c 0,-0.8278 0,-0.8278 -0.827897,-0.8278 l -8.278972,0 c -0.827897,0 -0.827897,0 -0.827897,-0.828 l 0,-1.6557 c 0,-1.6559 1.655795,-3.3117 3.311588,-3.3117 l 5.795281,0 c 0.827897,0 0.827897,0 0.827897,-0.8278 l 0,-1.6559 c 0,-0.8278 0,-0.8278 -0.827897,-0.8278 l -6.623178,0 C 36.311589,1027.3205 33,1030.632 33,1033.1157 Z"
         style="fill:#ffffff;fill-opacity:1;fill-rule:evenodd;stroke:none;stroke-width:1px;stroke-linecap:butt;stroke-linejoin:miter;stroke-opacity:1" />
      <path
         sodipodi:nodetypes="ccccccccc"
         inkscape:connector-curvature="0"
         id="path4519"
         d="m 49.557943,1046.3622 c 0,0.8278 0,0.8278 0.827898,0.8278 l 2.483691,0 c 0.827898,0 0.827898,0 0.827898,-0.8278 l 0,-18.2139 c 0,-0.8278 0,-0.8278 -0.827898,-0.8278 l -2.483691,0 c -0.827898,0 -0.827898,0 -0.827898,0.8278 z"
         style="fill:#ffffff;fill-opacity:1;fill-rule:evenodd;stroke:none;stroke-width:1px;stroke-linecap:butt;stroke-linejoin:miter;stroke-opacity:1" />
      <path
         sodipodi:nodetypes="ccccccccccccccccccccc"
         inkscape:connector-curvature="0"
         id="path4526"
         d="m 78.534345,1047.19 -2.483692,0 c -2.483691,0 -4.139485,-1.6559 -4.139485,-3.3115 l 0,-15.7302 c 0,-0.8278 0,-0.8278 0.827896,-0.8278 l 2.483692,0 c 0.827897,0 0.827897,0 0.827897,0.8278 l 0,3.3117 c 0,0.8278 0,0.8278 0.827897,0.8278 l 1.655795,0 c 0.827897,0 0.827897,0 0.827897,0.8279 l 0,1.6558 c 0,0.8279 0,0.8279 -0.827897,0.8279 l -1.655795,0 c -0.827897,0 -0.827897,0 -0.827897,0.828 l 0,6.6231 c 0,0.828 0.827897,0.828 1.655794,0.828 l 0.827898,0 c 0.827897,0 0.827897,0 0.827897,0.8278 l 0,1.6559 c 0,0.8278 0,0.8278 -0.827897,0.8278 z"
         style="fill:#ffffff;fill-opacity:1;fill-rule:evenodd;stroke:none;stroke-width:1px;stroke-linecap:butt;stroke-linejoin:miter;stroke-opacity:1" />
      <path
         sodipodi:nodetypes="ccccccccccccccccccccc"
         inkscape:connector-curvature="0"
         id="path4526-9"
         d="m 88.469111,1047.19 -2.483692,0 c -2.483692,0 -4.139486,-1.6559 -4.139486,-3.3115 l 0,-15.7302 c 0,-0.8278 0,-0.8278 0.827897,-0.8278 l 2.483692,0 c 0.827897,0 0.827897,0 0.827897,0.8278 l 0,3.3117 c 0,0.8278 0,0.8278 0.827897,0.8278 l 1.655795,0 c 0.827897,0 0.827897,0 0.827897,0.8279 l 0,1.6558 c 0,0.8279 0,0.8279 -0.827897,0.8279 l -1.655795,0 c -0.827897,0 -0.827897,0 -0.827897,0.828 l 0,6.6231 c 0,0.828 0.827897,0.828 1.655794,0.828 l 0.827898,0 c 0.827897,0 0.827897,0 0.827897,0.8278 l 0,1.6559 c 0,0.8278 0,0.8278 -0.827897,0.8278 z"
         style="fill:#ffffff;fill-opacity:1;fill-rule:evenodd;stroke:none;stroke-width:1px;stroke-linecap:butt;stroke-linejoin:miter;stroke-opacity:1" />
      <path
         sodipodi:nodetypes="cccccccccccc"
         inkscape:connector-curvature="0"
         id="path4543"
         d="m 92.608595,1047.19 c -0.827893,0 -0.827893,0 -0.827893,-0.8278 l 0,-9.9348 c 0,-1.6559 1.655794,-4.1396 4.139484,-4.1396 l 4.139484,0 c 0.8279,0 0.8279,0 0.8279,0.8279 l 0,1.6558 c 0,0.8279 0,0.8279 -0.8279,0.8279 l -2.483694,0 c -0.82789,0 -1.65579,0 -1.65579,0.828 l 0,9.9348 c 0,0.8278 0,0.8278 -0.8279,0.8278"
         style="fill:#ffffff;fill-opacity:1;fill-rule:evenodd;stroke:none;stroke-width:1px;stroke-linecap:butt;stroke-linejoin:miter;stroke-opacity:1" />
    </g>
  </g>
</svg>
