<?xml version="1.0" encoding="UTF-8" standalone="no"?>
<svg xmlns:rdf="http://www.w3.org/1999/02/22-rdf-syntax-ns#" xmlns="http://www.w3.org/2000/svg" version="1.1" xmlns:cc="http://creativecommons.org/ns#" xmlns:dc="http://purl.org/dc/elements/1.1/" viewBox="0 0 32 32">
<g transform="translate(0 -1020.36)">
<path d="m16 4a4 4 0 0 0 -4 4 4 4 0 0 0 4 4 4 4 0 0 0 4 -4 4 4 0 0 0 -4 -4zm0 2a1.99998 1.99998 0 0 1 2 2 1.99998 1.99998 0 0 1 -2 2 1.99998 1.99998 0 0 1 -2 -2 1.99998 1.99998 0 0 1 2 -2z" transform="translate(0 1020.36)" fill="#808080"/>
<path stroke-linejoin="round" d="m16 1035.64c-2.27907-0.9535-4.5814-2.2791-6-4" stroke="#808080" stroke-linecap="round" stroke-width="2.8" fill="none"/>
<path stroke-linejoin="round" d="m22 1031.64c-1.69767 2.2636-4.51961 3.1531-6 4s-4.60465 2.9384-4.60465 6.186c0 3.2477 1.72863 5.183 4.86046 5.1396 3.13183-0.043 4.72489-1.4305 4.74419-3.3256s-1.63293-2.7774-2.16279-2.7907c-0.529862-0.013-1.05832 0.07-1.83721 0.7907" stroke="#808080" stroke-linecap="round" stroke-width="2.8" fill="none"/>
</g>
</svg>
