<?xml version="1.0" encoding="UTF-8" standalone="no"?>
<!-- Created with Inkscape (http://www.inkscape.org/) -->

<svg
   xmlns:dc="http://purl.org/dc/elements/1.1/"
   xmlns:cc="http://creativecommons.org/ns#"
   xmlns:rdf="http://www.w3.org/1999/02/22-rdf-syntax-ns#"
   xmlns:svg="http://www.w3.org/2000/svg"
   xmlns="http://www.w3.org/2000/svg"
   xmlns:sodipodi="http://sodipodi.sourceforge.net/DTD/sodipodi-0.dtd"
   xmlns:inkscape="http://www.inkscape.org/namespaces/inkscape"
   width="64"
   height="64"
   viewBox="0 0 64 64"
   id="svg2"
   version="1.1"
   inkscape:version="0.91 r13725"
   sodipodi:docname="thanks-samsung.svg"
   inkscape:export-filename="/home/raster/C/wc/media/thanks-osuosl.png"
   inkscape:export-xdpi="45"
   inkscape:export-ydpi="45">
  <defs
     id="defs4" />
  <sodipodi:namedview
     id="base"
     pagecolor="#303030"
     bordercolor="#666666"
     borderopacity="1.0"
     inkscape:pageopacity="0"
     inkscape:pageshadow="2"
     inkscape:zoom="21.46875"
     inkscape:cx="32"
     inkscape:cy="32"
     inkscape:document-units="px"
     inkscape:current-layer="layer1"
     showgrid="true"
     units="px"
     inkscape:window-width="1947"
     inkscape:window-height="1519"
     inkscape:window-x="792"
     inkscape:window-y="373"
     inkscape:window-maximized="0"
     inkscape:snap-smooth-nodes="true"
     inkscape:object-nodes="true"
     inkscape:object-paths="true"
     inkscape:snap-intersection-paths="true"
     inkscape:snap-nodes="true"
     inkscape:snap-global="true"
     inkscape:snap-bbox="true"
     inkscape:bbox-nodes="true"
     inkscape:bbox-paths="true"
     inkscape:snap-bbox-edge-midpoints="true"
     inkscape:snap-midpoints="true">
    <inkscape:grid
       type="xygrid"
       id="grid4155"
       units="px"
       spacingx="1"
       spacingy="1" />
  </sodipodi:namedview>
  <metadata
     id="metadata7">
    <rdf:RDF>
      <cc:Work
         rdf:about="">
        <dc:format>image/svg+xml</dc:format>
        <dc:type
           rdf:resource="http://purl.org/dc/dcmitype/StillImage" />
        <dc:title></dc:title>
      </cc:Work>
    </rdf:RDF>
  </metadata>
  <g
     inkscape:label="Layer 1"
     inkscape:groupmode="layer"
     id="layer1"
     transform="translate(0,-988.3622)">
    <path
       style="fill:#808080;fill-opacity:1"
       d="m 10.128479,1024.0277 c -1.1969461,-0.1165 -1.8419824,-0.5579 -2.0667573,-1.4128 -0.039085,-0.1486 -0.053516,-0.2939 -0.063785,-0.6426 l -0.013271,-0.4504 0.921833,0 0.9218329,0 0.00486,0.4074 c 0.0047,0.3949 0.00695,0.4116 0.072577,0.5402 0.1200554,0.2357 0.3933744,0.361 0.7144664,0.3279 0.325668,-0.034 0.529657,-0.2176 0.588751,-0.5308 0.05692,-0.3018 -0.01175,-0.5088 -0.246589,-0.7437 -0.189267,-0.1887 -0.414754,-0.3362 -1.0860363,-0.7083 -0.9164641,-0.5077 -1.3169874,-0.8116 -1.5719631,-1.1929 -0.1943123,-0.2905 -0.2825946,-0.6655 -0.2581529,-1.0968 0.058123,-1.0251 0.5937403,-1.5836 1.7100559,-1.7832 0.3340054,-0.06 1.1039474,-0.06 1.4407204,-6e-4 0.524493,0.092 0.881337,0.256 1.155236,0.5288 0.307489,0.3062 0.411012,0.5999 0.434465,1.2325 l 0.01445,0.3903 -0.853211,0 -0.853212,0 -0.0104,-0.2941 c -0.01215,-0.3435 -0.05207,-0.4602 -0.20452,-0.5975 -0.124369,-0.1124 -0.242237,-0.1505 -0.451207,-0.1505 -0.201219,0 -0.323432,0.038 -0.4356904,0.1365 -0.1447695,0.1265 -0.1882531,0.2393 -0.1884499,0.486 -1.439e-4,0.1907 0.00717,0.2285 0.064532,0.3261 0.1292504,0.2198 0.3783223,0.3949 1.1543283,0.8111 0.274269,0.1465 0.582223,0.318 0.684342,0.3798 0.657819,0.3979 1.030577,0.8005 1.174011,1.2684 0.0641,0.209 0.06421,1.0651 1.69e-4,1.3446 -0.188097,0.8209 -0.841758,1.2895 -1.957526,1.4033 -0.232892,0.024 -0.604504,0.028 -0.795855,0 z m 22.035758,-0.068 c -0.631638,-0.1024 -1.000216,-0.2688 -1.325505,-0.5979 -0.370114,-0.3744 -0.490664,-0.7386 -0.491667,-1.485 l -4.76e-4,-0.3544 0.90045,0 0.90045,0 0,0.3351 c 0,0.1847 0.01185,0.3901 0.02622,0.4574 0.03706,0.1726 0.147964,0.3091 0.321955,0.3963 0.128068,0.064 0.16808,0.072 0.360176,0.072 0.189381,0 0.233484,0 0.356568,-0.068 0.23239,-0.1145 0.345918,-0.356 0.322268,-0.6864 -0.02801,-0.3915 -0.303715,-0.6455 -1.279135,-1.1783 -1.502128,-0.8207 -1.861716,-1.2438 -1.860616,-2.1894 0.0014,-1.2244 0.737236,-1.8558 2.224167,-1.9082 1.188142,-0.042 1.963615,0.2608 2.283052,0.8912 0.123972,0.2445 0.15505,0.4033 0.168341,0.8598 l 0.01245,0.4263 -0.843399,0 -0.843399,0 0,-0.2602 c 0,-0.4226 -0.08468,-0.6053 -0.333599,-0.7202 -0.153846,-0.07 -0.403097,-0.084 -0.562908,-0.03 -0.226429,0.076 -0.375495,0.3086 -0.375892,0.585 -5.78e-4,0.3931 0.196047,0.5788 1.164346,1.0986 0.637157,0.3421 0.880211,0.4889 1.158497,0.6997 0.584678,0.4429 0.799004,0.8695 0.798285,1.5884 -6.72e-4,0.6764 -0.153143,1.1496 -0.475859,1.4769 -0.270817,0.2744 -0.64061,0.4575 -1.132749,0.5607 -0.305745,0.064 -1.159481,0.082 -1.471996,0.032 z m 6.445658,-0.026 c -0.945556,-0.1385 -1.498613,-0.575 -1.698242,-1.3427 -0.04079,-0.1566 -0.04421,-0.3513 -0.05144,-2.9235 l -0.0078,-2.7553 0.864709,0 0.864706,0 0.0064,2.6952 0.0064,2.6953 0.05162,0.096 c 0.115561,0.2158 0.291792,0.3258 0.548687,0.3423 0.318864,0.02 0.535765,-0.088 0.657199,-0.3319 l 0.07517,-0.1506 0,-2.6735 0,-2.6734 0.865111,0 0.865112,0 -0.0078,2.7553 c -0.0086,3.0652 0.001,2.8838 -0.172938,3.2596 -0.211219,0.4563 -0.603291,0.7669 -1.165366,0.9231 -0.420699,0.1164 -1.207647,0.1546 -1.701675,0.084 z m 14.373475,-0.07 c -0.80068,-0.1085 -1.370894,-0.458 -1.636327,-1.0009 -0.192032,-0.3927 -0.20571,-0.5595 -0.205447,-2.5039 2.41e-4,-1.6049 0.01265,-1.9211 0.08687,-2.2213 0.187615,-0.7576 0.777251,-1.2216 1.725431,-1.3573 0.490296,-0.07 1.249733,-0.034 1.655848,0.076 0.562268,0.1546 0.980214,0.4724 1.188038,0.9024 0.139793,0.2893 0.171875,0.4481 0.186752,0.9241 l 0.01285,0.4144 -0.851747,0 -0.851749,0 -0.01486,-0.3301 c -0.01345,-0.2979 -0.02146,-0.3429 -0.08199,-0.4613 -0.07707,-0.1506 -0.223957,-0.2749 -0.372509,-0.3148 -0.05489,-0.02 -0.192534,-0.024 -0.305875,-0.02 -0.163102,0 -0.230898,0.02 -0.325169,0.07 -0.130497,0.066 -0.256782,0.214 -0.303984,0.3533 -0.0412,0.1225 -0.05826,3.6013 -0.01867,3.7925 0.03495,0.1686 0.14712,0.313 0.311703,0.4017 0.105944,0.056 0.168141,0.072 0.3255,0.08 0.286431,0.02 0.444156,-0.036 0.598854,-0.1947 0.07358,-0.076 0.132063,-0.1627 0.150071,-0.2229 0.02008,-0.066 0.02951,-0.2971 0.02951,-0.7143 l 0,-0.6156 -0.348175,0 -0.348174,0 0,-0.4922 0,-0.4921 1.212605,0 1.212608,0 -2e-5,0.9665 c 0,1.308 -0.02949,1.5886 -0.204901,1.9508 -0.268649,0.5551 -0.830975,0.8952 -1.668016,1.0093 -0.308817,0.042 -0.843953,0.042 -1.159114,0 z m -38.892909,-0.1285 c 0,-0.026 0.16808,-0.9521 0.373499,-2.0591 0.205424,-1.107 0.486365,-2.6214 0.624312,-3.365 0.137946,-0.7436 0.250814,-1.3622 0.250814,-1.3746 0,-0.02 0.590596,-0.022 1.523058,-0.022 l 1.52306,0 0.0255,0.1265 c 0.01405,0.068 0.07894,0.4178 0.14427,0.7743 0.109457,0.5975 0.5801,3.148 0.944958,5.1211 0.0837,0.4525 0.14704,0.8282 0.140756,0.8344 -0.0062,0 -0.415173,0.02 -0.908635,0.02 -0.696174,0 -0.899545,0 -0.90766,-0.03 -0.0058,-0.02 -0.124735,-0.8081 -0.264405,-1.7589 -0.513455,-3.4958 -0.661053,-4.4909 -0.669523,-4.5144 -0.01586,-0.044 -0.03606,0.084 -0.494586,3.1335 -0.251133,1.6708 -0.462835,3.0673 -0.47045,3.1036 l -0.01385,0.066 -0.910549,0 c -0.882576,0 -0.910549,0 -0.910549,-0.046 z m 6.955267,0.028 c -0.01265,-0.02 0.127385,-6.774 0.141479,-6.8194 0.0072,-0.024 0.308971,-0.03 1.402758,-0.03 0.766398,0 1.393131,0 1.39274,0.02 -0.0028,0.072 0.855172,5.3078 0.867525,5.2941 0.0086,0 0.02766,-0.098 0.0422,-0.1967 0.03138,-0.2138 0.758231,-4.7178 0.799225,-4.9525 l 0.02833,-0.1626 1.388851,0 c 0.763868,0 1.389722,0 1.39079,0 0.01305,0.04 0.155392,6.8304 0.143487,6.8437 -0.009,0.02 -0.393905,0.02 -0.855302,0.02 l -0.838902,0 -0.0032,-0.096 c -0.0017,-0.052 -0.01144,-1.4604 -0.02146,-3.1275 -0.01004,-1.6674 -0.02546,-3.0316 -0.03417,-3.0316 -0.0086,0 -0.16517,0.8023 -0.347681,1.7828 -0.636352,3.4192 -0.729981,3.9219 -0.782629,4.2022 l -0.053,0.2821 -0.860079,0 c -0.798414,0 -0.860962,0 -0.872409,-0.042 -0.0068,-0.024 -0.08926,-0.4581 -0.183279,-0.9665 -0.09402,-0.5085 -0.245282,-1.3242 -0.336128,-1.8129 -0.241127,-1.2969 -0.595384,-3.1996 -0.62054,-3.3329 -0.01205,-0.064 -0.02668,-0.1204 -0.0327,-0.1264 -0.01265,-0.02 -0.04282,3.0963 -0.04292,4.4174 -2.4e-5,0.4896 -0.0072,1.1092 -0.01586,1.3766 l -0.01566,0.4863 -0.835192,0 c -0.459354,0 -0.840163,0 -0.84624,-0.02 z m 22.531474,-3.4518 0,-3.3975 1.266951,0 1.266951,0 0.367092,1.2546 c 0.201903,0.69 0.56374,1.9245 0.804085,2.7434 l 0.436993,1.4887 0.006,-0.2281 c 0.0032,-0.1245 -0.01405,-1.3519 -0.03843,-2.7254 -0.02441,-1.3736 -0.03997,-2.5053 -0.03457,-2.5154 0.0054,0 0.387412,-0.02 0.848912,-0.02 l 0.839085,0 -0.006,3.3917 -0.006,3.3915 -1.214272,0 -1.214272,0 -0.836581,-2.7434 c -0.460121,-1.509 -0.847077,-2.7846 -0.859904,-2.8346 -0.01285,-0.05 -0.02825,-0.086 -0.03429,-0.08 -0.01546,0.02 -0.0094,0.5147 0.03945,3.2323 0.02359,1.3142 0.03843,2.3973 0.03294,2.4073 -0.0054,0 -0.382108,0.02 -0.836954,0.02 l -0.826999,0 0,-3.3977 z"
       id="path4610"
       inkscape:connector-curvature="0" />
  </g>
</svg>
