<?xml version="1.0" encoding="UTF-8" standalone="no"?>
<svg xmlns:rdf="http://www.w3.org/1999/02/22-rdf-syntax-ns#" xmlns="http://www.w3.org/2000/svg" version="1.1" xmlns:cc="http://creativecommons.org/ns#" xmlns:dc="http://purl.org/dc/elements/1.1/" viewBox="0 0 32 32">
<g transform="translate(0 -1020.36)">
<path d="m17 1031.36-4 8h-8c-1 0-1 0-1-1v-6c0-1 0-1 1-1z" fill-rule="evenodd" fill="#808080"/>
<path d="m17 1031.36-4 8h14c1 0 1 0 1-1v-6c0-1 0-1-1-1z" fill-rule="evenodd" fill="#fff"/>
<g fill="#fff" transform="translate(-.0232558 .188508)">
<path d="m4.975 1035.29q0-0.264 0.09075-0.5115 0.094875-0.2475 0.264-0.4372 0.169125-0.1939 0.408375-0.3094 0.243375-0.1196 0.53625-0.1196 0.144375 0 0.268125 0.041t0.2145 0.1197q0.094875 0.078 0.144375 0.1938 0.053625 0.1114 0.053625 0.2558 0 0.231-0.103125 0.3919-0.103125 0.1608-0.28875 0.264-0.1815 0.099-0.433125 0.1443-0.251625 0.045-0.548625 0.045 0.028875 0.1733 0.12375 0.2475 0.099 0.07 0.309375 0.07 0.132 0 0.268125-0.021 0.136125-0.025 0.25575-0.07l0.045375 0.4826q-0.1155 0.045-0.297 0.082-0.177375 0.037-0.38775 0.037-0.25575 0-0.433125-0.07-0.17325-0.074-0.284625-0.198-0.10725-0.1237-0.15675-0.2887t-0.0495-0.3507zm1.20038-0.891q-0.210375 0-0.37125 0.1527-0.15675 0.1485-0.20625 0.396 0.25575-0.01 0.4125-0.041 0.15675-0.037 0.243375-0.087t0.1155-0.1073q0.028875-0.058 0.028875-0.1155 0-0.198-0.22275-0.198z"/>
<path d="m9.06822 1035.2q-0.05775 0.2351-0.033 0.4744 0.02475 0.2351 0.094875 0.4207l-0.548625 0.078q-0.02475-0.049-0.045375-0.095-0.020625-0.045-0.04125-0.1031-0.1155 0.095-0.25575 0.1568-0.14025 0.062-0.3135 0.062-0.20625 0-0.35475-0.07-0.144375-0.074-0.23925-0.1939-0.09075-0.1237-0.132-0.2846-0.04125-0.165-0.04125-0.3506 0-0.2846 0.099-0.5363 0.103125-0.2516 0.2805-0.4372 0.1815-0.1898 0.424875-0.297 0.243375-0.1073 0.528-0.1073 0.037125 0 0.127875 0 0.094875 0 0.2145 0.021 0.119625 0.012 0.251625 0.045t0.251625 0.091l-0.268125 1.122zm-0.429-0.759q-0.053625-0.01-0.099-0.012-0.04125 0-0.103125 0-0.14025 0-0.264 0.07-0.119625 0.07-0.210375 0.1857-0.09075 0.1113-0.144375 0.2598-0.0495 0.1485-0.0495 0.3094 0 0.198 0.066 0.3135t0.243375 0.1155q0.094875 0 0.169125-0.037 0.078375-0.037 0.165-0.1238 0.00825-0.1031 0.02475-0.2145 0.020625-0.1155 0.04125-0.2103l0.160875-0.6518z"/>
<path d="m10.165 1035.7q0.210375 0 0.28875-0.058 0.07837-0.062 0.07837-0.132 0-0.045-0.0165-0.078-0.01238-0.033-0.04537-0.062-0.033-0.029-0.09075-0.058-0.05775-0.033-0.1485-0.074-0.103125-0.045-0.193875-0.095-0.09075-0.054-0.160875-0.1238-0.066-0.074-0.10725-0.165-0.037125-0.095-0.037125-0.2227 0-0.3342 0.243375-0.528 0.2475-0.1939 0.71775-0.1939 0.22275 0 0.396 0.05 0.17325 0.049 0.2805 0.1072l-0.210375 0.4579q-0.08662-0.045-0.22275-0.087-0.136125-0.041-0.268125-0.041-0.05775 0-0.1155 0.01-0.05363 0-0.103125 0.025-0.04537 0.021-0.07425 0.058t-0.02888 0.099q0 0.082 0.06188 0.1237 0.066 0.041 0.1815 0.099 0.160875 0.078 0.268125 0.1444 0.10725 0.066 0.169125 0.1403 0.066 0.074 0.09488 0.1691 0.02887 0.095 0.02887 0.2227 0 0.132-0.05775 0.2599-0.05362 0.1279-0.17325 0.2269-0.119625 0.099-0.30525 0.1609-0.185625 0.062-0.4455 0.062-0.160875 0-0.292875-0.021-0.127875-0.021-0.226875-0.049-0.099-0.033-0.169125-0.066-0.066-0.033-0.103125-0.054l0.210375-0.4703q0.070125 0.041 0.218625 0.1032 0.1485 0.062 0.358875 0.062z"/>
<path d="m13.7679 1033.97q-0.1155 0.3135-0.235125 0.5858-0.1155 0.2722-0.243375 0.5197-0.127875 0.2434-0.264 0.4662-0.136125 0.2227-0.28875 0.4413-0.111375 0.1609-0.231 0.3259t-0.268125 0.297q-0.144375 0.132-0.325875 0.2145-0.177375 0.082-0.4125 0.082-0.144375 0-0.2475-0.029-0.103125-0.025-0.193875-0.07l0.185625-0.4826q0.0825 0.033 0.1485 0.049 0.066 0.021 0.160875 0.021 0.144375 0 0.27225-0.095 0.132-0.091 0.218625-0.2475-0.10725-0.4125-0.198-0.924-0.08662-0.5115-0.119625-1.155h0.631125q0.0041 0.1609 0.0165 0.3548 0.01237 0.1939 0.02887 0.3919 0.0165 0.1938 0.03712 0.3795 0.02063 0.1856 0.04537 0.3341 0.198-0.297 0.3465-0.66 0.152625-0.363 0.284625-0.8003h0.65175z"/>
</g>
<g fill="#404040" transform="translate(-1.99859 .519388)">
<path d="m19.3333 1033.23h1.43768q0.42511 0 0.68573 0.1153 0.262756 0.1154 0.433655 0.3311 0.170898 0.2158 0.247803 0.5021 0.0769 0.2862 0.0769 0.6066 0 0.5021-0.115357 0.7798-0.11322 0.2755-0.316162 0.4635-0.202942 0.1859-0.435791 0.2478-0.318298 0.086-0.576782 0.086h-1.43768v-3.1317zm0.967712 0.7092v1.7111h0.237122q0.303345 0 0.431518-0.066 0.128174-0.068 0.200806-0.235 0.07263-0.1688 0.07263-0.5447 0-0.4978-0.162354-0.6815-0.162353-0.1837-0.53833-0.1837h-0.241394z"/>
<path d="m22.7277 1033.23h0.903626l1.1792 1.7325v-1.7325h0.91217v3.1317h-0.91217l-1.17279-1.7197v1.7197h-0.910034v-3.1317z"/>
<path d="m26.2012 1035.33 0.920715-0.058q0.02991 0.2243 0.121765 0.3418 0.149537 0.1902 0.427246 0.1902 0.207215 0 0.318299-0.096 0.11322-0.098 0.11322-0.2264 0-0.1218-0.106811-0.2179-0.106812-0.096-0.495606-0.1816-0.636597-0.1431-0.907898-0.3802-0.273437-0.2372-0.273437-0.6046 0-0.2414 0.138855-0.455 0.140991-0.2158 0.420837-0.3375 0.281982-0.1239 0.771179-0.1239 0.600281 0 0.914307 0.2243 0.316162 0.2221 0.375976 0.7092l-0.91217 0.053q-0.03632-0.2115-0.153809-0.3076-0.115356-0.096-0.320434-0.096-0.168762 0-0.254212 0.073-0.08545 0.07-0.08545 0.173 0 0.075 0.0705 0.1346 0.06836 0.062 0.324707 0.1154 0.63446 0.1367 0.907898 0.2777 0.275573 0.1388 0.399475 0.346 0.126037 0.2073 0.126037 0.4636 0 0.3012-0.166626 0.5554t-0.465698 0.3867q-0.299072 0.1303-0.754089 0.1303-0.79895 0-1.10657-0.3076-0.307617-0.3076-0.348205-0.7819z"/>
</g>
<path stroke-linejoin="round" d="m16 1029.36-2 4h1l-2 3h1l-2 3h1l-2 3 4-4h-1l3-3h-1l3-3h-1l3-4z" fill-rule="evenodd" stroke="#fff" stroke-linecap="round" stroke-width=".25" fill="#c8c8c8"/>
</g>
</svg>
