<?xml version="1.0" encoding="UTF-8" standalone="no"?>
<!-- Created with Inkscape (http://www.inkscape.org/) -->

<svg
   xmlns:dc="http://purl.org/dc/elements/1.1/"
   xmlns:cc="http://creativecommons.org/ns#"
   xmlns:rdf="http://www.w3.org/1999/02/22-rdf-syntax-ns#"
   xmlns:svg="http://www.w3.org/2000/svg"
   xmlns="http://www.w3.org/2000/svg"
   xmlns:sodipodi="http://sodipodi.sourceforge.net/DTD/sodipodi-0.dtd"
   xmlns:inkscape="http://www.inkscape.org/namespaces/inkscape"
   width="64"
   height="64"
   viewBox="0 0 64 64"
   id="svg2"
   version="1.1"
   inkscape:version="0.91 r13725"
   sodipodi:docname="thanks-paypal.svg"
   inkscape:export-filename="/home/raster/C/wc/media/thanks-osuosl.png"
   inkscape:export-xdpi="45"
   inkscape:export-ydpi="45">
  <defs
     id="defs4" />
  <sodipodi:namedview
     id="base"
     pagecolor="#303030"
     bordercolor="#666666"
     borderopacity="1.0"
     inkscape:pageopacity="0"
     inkscape:pageshadow="2"
     inkscape:zoom="21.46875"
     inkscape:cx="32"
     inkscape:cy="32"
     inkscape:document-units="px"
     inkscape:current-layer="layer1"
     showgrid="true"
     units="px"
     inkscape:window-width="1947"
     inkscape:window-height="1519"
     inkscape:window-x="656"
     inkscape:window-y="308"
     inkscape:window-maximized="0"
     inkscape:snap-smooth-nodes="true"
     inkscape:object-nodes="true"
     inkscape:object-paths="true"
     inkscape:snap-intersection-paths="true"
     inkscape:snap-nodes="true"
     inkscape:snap-global="true"
     inkscape:snap-bbox="true"
     inkscape:bbox-nodes="true"
     inkscape:bbox-paths="true"
     inkscape:snap-bbox-edge-midpoints="true"
     inkscape:snap-midpoints="true">
    <inkscape:grid
       type="xygrid"
       id="grid4155"
       units="px"
       spacingx="1"
       spacingy="1" />
  </sodipodi:namedview>
  <metadata
     id="metadata7">
    <rdf:RDF>
      <cc:Work
         rdf:about="">
        <dc:format>image/svg+xml</dc:format>
        <dc:type
           rdf:resource="http://purl.org/dc/dcmitype/StillImage" />
        <dc:title></dc:title>
      </cc:Work>
    </rdf:RDF>
  </metadata>
  <g
     inkscape:label="Layer 1"
     inkscape:groupmode="layer"
     id="layer1"
     transform="translate(0,-988.3622)">
    <g
       transform="matrix(1.9935113,0,0,1.9935113,0.1031795,-1044.9002)"
       id="g4">
      <path
         style="fill:#808080"
         inkscape:connector-curvature="0"
         d="m 10.92,1048 c -0.2409,-0.185 -0.249,-0.493 -0.04555,-1.736 0.07906,-0.4829 2.79e-4,0 0.1438,-0.9768 1.645,-12.24 3.785,-19.3 13.41,-14.83 0.1467,0.082 0.4395,0.3238 0.6506,0.537 0.3016,0.3043 0.425,0.4724 0.5761,0.7848 0.4867,1.006 0.5525,2.228 0.2086,3.875 -0.3236,1.551 -0.9551,2.796 -1.898,3.744 -0.873,0.8771 -1.816,1.39 -3.083,1.676 -0.2439,0.056 -0.7327,0.083 -1.883,0.1059 -1.668,0.034 -1.704,0.039 -1.936,0.2947 -0.2568,0.2823 -0.2887,0.4108 -0.582,2.346 -0.6564,4.331 -0.5912,3.988 -0.7865,4.141 -0.1172,0.092 -0.1848,0.094 -2.409,0.093 -1.724,0 -2.307,-0.016 -2.363,-0.059 z"
         id="path6" />
      <path
         style="fill:#606060"
         inkscape:connector-curvature="0"
         d="m 6.08,1045 c -0.2405,-0.2404 -0.2353,-0.3175 0.2102,-3.142 0.2241,-1.421 0.5005,-3.177 0.6142,-3.902 0.1137,-0.7248 0.4078,-2.589 0.6535,-4.142 0.2457,-1.553 0.6599,-4.18 0.9204,-5.836 0.2605,-1.657 0.507,-3.118 0.5478,-3.248 0.1062,-0.3366 0.2751,-0.5341 0.5785,-0.6764 l 0.2639,-0.1237 4.354,10e-5 c 4.559,1e-4 4.856,0.01 5.914,0.2152 2.105,0.4063 3.376,1.502 3.864,3.333 0.1042,0.3903 0.1212,0.5532 0.1234,1.182 -0.02807,10.7 -11.31,5.149 -11.97,9.541 -0.02903,0.1078 -0.2744,1.606 -0.5452,3.33 -0.2713,1.726 -0.5241,3.195 -0.5629,3.27 -0.03876,0.074 -0.1267,0.1805 -0.1954,0.2345 -0.1228,0.097 -0.1644,0.099 -2.381,0.099 l -2.257,0 -0.1336,-0.1336 z"
         id="path8" />
      <path
         style="fill:#505050"
         inkscape:connector-curvature="0"
         d="m 12.36,1037 c 0.3192,-1.992 0.5821,-3.637 0.8796,-5.581 0.04972,-0.3236 0.1246,-0.6806 0.1664,-0.7933 0.1012,-0.2728 0.3037,-0.4955 0.5475,-0.6021 0.1871,-0.082 0.4126,-0.088 3.659,-0.1018 3.516,-0.015 4.609,0.018 5.287,0.1586 0.4389,0.091 1.145,0.3364 1.145,0.3907 0,0.023 -0.0458,0.3637 -0.1118,0.6764 -0.4086,1.935 -1.121,3.254 -2.273,4.415 -1.032,1.04 -2.214,1.646 -3.715,1.935 -0.4836,0.092 -0.7587,0.105 -2.835,0.1305 -2.514,0.032 -2.278,-0.016 -2.628,0.3209 -0.11,0.1059 -0.3625,0.7723 -0.3599,0.7501 0.05719,-0.5913 0.164,-1.222 0.2382,-1.698 z"
         id="path10" />
    </g>
  </g>
</svg>
