<?xml version="1.0" encoding="UTF-8" standalone="no"?>
<!-- Created with Inkscape (http://www.inkscape.org/) -->

<svg
   xmlns:dc="http://purl.org/dc/elements/1.1/"
   xmlns:cc="http://creativecommons.org/ns#"
   xmlns:rdf="http://www.w3.org/1999/02/22-rdf-syntax-ns#"
   xmlns:svg="http://www.w3.org/2000/svg"
   xmlns="http://www.w3.org/2000/svg"
   xmlns:sodipodi="http://sodipodi.sourceforge.net/DTD/sodipodi-0.dtd"
   xmlns:inkscape="http://www.inkscape.org/namespaces/inkscape"
   width="64"
   height="64"
   viewBox="0 0 64 64"
   id="svg2"
   version="1.1"
   inkscape:version="0.91 r13725"
   sodipodi:docname="thanks-osuosl.svg"
   inkscape:export-filename="/home/raster/C/wc/media/thanks-osuosl.png"
   inkscape:export-xdpi="45"
   inkscape:export-ydpi="45">
  <defs
     id="defs4" />
  <sodipodi:namedview
     id="base"
     pagecolor="#303030"
     bordercolor="#666666"
     borderopacity="1.0"
     inkscape:pageopacity="0"
     inkscape:pageshadow="2"
     inkscape:zoom="21.47"
     inkscape:cx="32"
     inkscape:cy="32"
     inkscape:document-units="px"
     inkscape:current-layer="layer1"
     showgrid="true"
     units="px"
     inkscape:window-width="1947"
     inkscape:window-height="1519"
     inkscape:window-x="656"
     inkscape:window-y="331"
     inkscape:window-maximized="0"
     inkscape:snap-smooth-nodes="true"
     inkscape:object-nodes="true"
     inkscape:object-paths="true"
     inkscape:snap-intersection-paths="true"
     inkscape:snap-nodes="true"
     inkscape:snap-global="true"
     inkscape:snap-bbox="true"
     inkscape:bbox-nodes="true"
     inkscape:bbox-paths="true"
     inkscape:snap-bbox-edge-midpoints="true"
     inkscape:snap-midpoints="true">
    <inkscape:grid
       type="xygrid"
       id="grid4155"
       units="px"
       spacingx="1"
       spacingy="1" />
  </sodipodi:namedview>
  <metadata
     id="metadata7">
    <rdf:RDF>
      <cc:Work
         rdf:about="">
        <dc:format>image/svg+xml</dc:format>
        <dc:type
           rdf:resource="http://purl.org/dc/dcmitype/StillImage" />
        <dc:title></dc:title>
      </cc:Work>
    </rdf:RDF>
  </metadata>
  <g
     inkscape:label="Layer 1"
     inkscape:groupmode="layer"
     id="layer1"
     transform="translate(0,-988.3622)">
    <g
       style="fill:#808080;fill-rule:evenodd"
       transform="matrix(2,0,0,2,0,-1052.3578)"
       id="g4">
      <path
         inkscape:connector-curvature="0"
         d="m 5,1032.86 c -0.5,0 -1,0.5 -1,1 l 0,5 c 0,0.5 0.5,1 1,1 l 6,0 c 0.5,0 1,-0.5 1,-1 l 0,-5 c 0,-0.5 -0.5,-1 -1,-1 z m 0,2 c 0,-1 0,-1 1,-1 l 4,0 c 1,0 1,0 1,1 l 0,3 c 0,1 0,1 -1,1 l -4,0 c -1,0 -1,0 -1,-1 z"
         id="path6"
         sodipodi:nodetypes="ssssssssssssssssss" />
      <path
         inkscape:connector-curvature="0"
         d="m 20,1032.86 0,1 -5,0 c -1,0 -1,0 -1,1 0,1 0,1 1,1 l 4,0 c 0.5,0 1,0.5 1,1 l 0,2 c 0,0.5 -0.5,1 -1,1 l -6,0 0,-1 5,0 c 1,0 1,0 1,-1 0,-1 0,-1 -1,-1 l -4,0 c -0.5,0 -1,-0.5 -1,-1 l 0,-2 c 0,-0.5 0.5,-1 1,-1 z"
         id="path8"
         sodipodi:nodetypes="ccsssssssccsssssssc" />
      <path
         inkscape:connector-curvature="0"
         d="m 21,1032.86 0,6 c 0,0.5 0.5,1 1,1 l 6,0 0,-1 -5,0 c -1,0 -1,0 -1,-1 l 0,-5 -1,0"
         id="path10"
         sodipodi:nodetypes="cssccsscc" />
    </g>
  </g>
</svg>
