<?xml version="1.0" encoding="UTF-8" standalone="no"?>
<!-- Created with Inkscape (http://www.inkscape.org/) -->

<svg
   xmlns:dc="http://purl.org/dc/elements/1.1/"
   xmlns:cc="http://creativecommons.org/ns#"
   xmlns:rdf="http://www.w3.org/1999/02/22-rdf-syntax-ns#"
   xmlns:svg="http://www.w3.org/2000/svg"
   xmlns="http://www.w3.org/2000/svg"
   xmlns:sodipodi="http://sodipodi.sourceforge.net/DTD/sodipodi-0.dtd"
   xmlns:inkscape="http://www.inkscape.org/namespaces/inkscape"
   width="64"
   height="64"
   viewBox="0 0 64 64"
   id="svg2"
   version="1.1"
   inkscape:version="0.91 r13725"
   sodipodi:docname="thanks-easydns.svg"
   inkscape:export-filename="/home/raster/C/wc/media/thanks-osuosl.png"
   inkscape:export-xdpi="45"
   inkscape:export-ydpi="45">
  <defs
     id="defs4" />
  <sodipodi:namedview
     id="base"
     pagecolor="#303030"
     bordercolor="#666666"
     borderopacity="1.0"
     inkscape:pageopacity="0"
     inkscape:pageshadow="2"
     inkscape:zoom="21.46875"
     inkscape:cx="32"
     inkscape:cy="32"
     inkscape:document-units="px"
     inkscape:current-layer="layer1"
     showgrid="true"
     units="px"
     inkscape:window-width="1947"
     inkscape:window-height="1519"
     inkscape:window-x="1415"
     inkscape:window-y="464"
     inkscape:window-maximized="0"
     inkscape:snap-smooth-nodes="true"
     inkscape:object-nodes="true"
     inkscape:object-paths="true"
     inkscape:snap-intersection-paths="true"
     inkscape:snap-nodes="true"
     inkscape:snap-global="true"
     inkscape:snap-bbox="true"
     inkscape:bbox-nodes="true"
     inkscape:bbox-paths="true"
     inkscape:snap-bbox-edge-midpoints="true"
     inkscape:snap-midpoints="true">
    <inkscape:grid
       type="xygrid"
       id="grid4155"
       units="px"
       spacingx="1"
       spacingy="1" />
  </sodipodi:namedview>
  <metadata
     id="metadata7">
    <rdf:RDF>
      <cc:Work
         rdf:about="">
        <dc:format>image/svg+xml</dc:format>
        <dc:type
           rdf:resource="http://purl.org/dc/dcmitype/StillImage" />
        <dc:title></dc:title>
      </cc:Work>
    </rdf:RDF>
  </metadata>
  <g
     inkscape:label="Layer 1"
     inkscape:groupmode="layer"
     id="layer1"
     transform="translate(0,-988.3622)">
    <g
       id="g4146"
       transform="matrix(2,0,0,2,0,-1050.3621)">
      <path
         sodipodi:nodetypes="ccccccc"
         inkscape:connector-curvature="0"
         id="path4458"
         d="m 17,1031.3622 -4,8 -8,0 c -1,0 -1,0 -1,-1 l 0,-6 c 0,-1 0,-1 1,-1 z"
         style="fill:#808080;fill-opacity:1;fill-rule:evenodd;stroke:none;stroke-width:1px;stroke-linecap:butt;stroke-linejoin:miter;stroke-opacity:1" />
      <path
         sodipodi:nodetypes="ccccccc"
         inkscape:connector-curvature="0"
         id="path4460"
         d="m 17,1031.3622 -4,8 14,0 c 1,0 1,0 1,-1 l 0,-6 c 0,-1 0,-1 -1,-1 z"
         style="fill:#ffffff;fill-opacity:1;fill-rule:evenodd;stroke:none;stroke-width:1px;stroke-linecap:butt;stroke-linejoin:miter;stroke-opacity:1" />
      <g
         transform="translate(-0.02325581,0.18850814)"
         id="text4468"
         style="font-style:normal;font-variant:normal;font-weight:normal;font-stretch:normal;font-size:8px;line-height:125%;font-family:Sans;-inkscape-font-specification:Sans;letter-spacing:0px;word-spacing:0px;fill:#ffffff;fill-opacity:1;stroke:none;stroke-width:1px;stroke-linecap:butt;stroke-linejoin:miter;stroke-opacity:1">
        <path
           inkscape:connector-curvature="0"
           id="path4473"
           style="font-style:italic;font-variant:normal;font-weight:bold;font-stretch:normal;font-size:4.125px;font-family:Ubuntu;-inkscape-font-specification:'Ubuntu Bold Italic';fill:#ffffff;fill-opacity:1"
           d="m 4.975,1035.289 q 0,-0.264 0.09075,-0.5115 0.094875,-0.2475 0.264,-0.4372 0.169125,-0.1939 0.408375,-0.3094 0.243375,-0.1196 0.53625,-0.1196 0.144375,0 0.268125,0.041 0.12375,0.041 0.2145,0.1197 0.094875,0.078 0.144375,0.1938 0.053625,0.1114 0.053625,0.2558 0,0.231 -0.103125,0.3919 -0.103125,0.1608 -0.28875,0.264 -0.1815,0.099 -0.433125,0.1443 -0.251625,0.045 -0.548625,0.045 0.028875,0.1733 0.12375,0.2475 0.099,0.07 0.309375,0.07 0.132,0 0.268125,-0.021 0.136125,-0.025 0.25575,-0.07 l 0.045375,0.4826 q -0.1155,0.045 -0.297,0.082 -0.177375,0.037 -0.38775,0.037 -0.25575,0 -0.433125,-0.07 -0.17325,-0.074 -0.284625,-0.198 -0.10725,-0.1237 -0.15675,-0.2887 -0.0495,-0.165 -0.0495,-0.3507 z m 1.200375,-0.891 q -0.210375,0 -0.37125,0.1527 -0.15675,0.1485 -0.20625,0.396 0.25575,-0.01 0.4125,-0.041 0.15675,-0.037 0.243375,-0.087 0.086625,-0.05 0.1155,-0.1073 0.028875,-0.058 0.028875,-0.1155 0,-0.198 -0.22275,-0.198 z" />
        <path
           inkscape:connector-curvature="0"
           id="path4475"
           style="font-style:italic;font-variant:normal;font-weight:bold;font-stretch:normal;font-size:4.125px;font-family:Ubuntu;-inkscape-font-specification:'Ubuntu Bold Italic';fill:#ffffff;fill-opacity:1"
           d="m 9.0682246,1035.2024 q -0.05775,0.2351 -0.033,0.4744 0.02475,0.2351 0.094875,0.4207 l -0.548625,0.078 q -0.02475,-0.049 -0.045375,-0.095 -0.020625,-0.045 -0.04125,-0.1031 -0.1155,0.095 -0.25575,0.1568 -0.14025,0.062 -0.3135,0.062 -0.20625,0 -0.35475,-0.07 -0.144375,-0.074 -0.23925,-0.1939 -0.09075,-0.1237 -0.132,-0.2846 -0.04125,-0.165 -0.04125,-0.3506 0,-0.2846 0.099,-0.5363 0.103125,-0.2516 0.2805,-0.4372 0.1815,-0.1898 0.424875,-0.297 0.243375,-0.1073 0.528,-0.1073 0.037125,0 0.127875,0 0.094875,0 0.2145,0.021 0.119625,0.012 0.251625,0.045 0.132,0.033 0.251625,0.091 l -0.268125,1.122 z m -0.429,-0.759 q -0.053625,-0.01 -0.099,-0.012 -0.04125,0 -0.103125,0 -0.14025,0 -0.264,0.07 -0.119625,0.07 -0.210375,0.1857 -0.09075,0.1113 -0.144375,0.2598 -0.0495,0.1485 -0.0495,0.3094 0,0.198 0.066,0.3135 0.066,0.1155 0.243375,0.1155 0.094875,0 0.169125,-0.037 0.078375,-0.037 0.165,-0.1238 0.00825,-0.1031 0.02475,-0.2145 0.020625,-0.1155 0.04125,-0.2103 l 0.160875,-0.6518 z" />
        <path
           inkscape:connector-curvature="0"
           id="path4477"
           style="font-style:italic;font-variant:normal;font-weight:bold;font-stretch:normal;font-size:4.125px;font-family:Ubuntu;-inkscape-font-specification:'Ubuntu Bold Italic';fill:#ffffff;fill-opacity:1"
           d="m 10.165023,1035.7015 q 0.210375,0 0.28875,-0.058 0.07837,-0.062 0.07837,-0.132 0,-0.045 -0.0165,-0.078 -0.01238,-0.033 -0.04537,-0.062 -0.033,-0.029 -0.09075,-0.058 -0.05775,-0.033 -0.1485,-0.074 -0.103125,-0.045 -0.193875,-0.095 -0.09075,-0.054 -0.1608746,-0.1238 -0.066,-0.074 -0.10725,-0.165 -0.037125,-0.095 -0.037125,-0.2227 0,-0.3342 0.243375,-0.528 0.2474996,-0.1939 0.7177496,-0.1939 0.22275,0 0.396,0.05 0.17325,0.049 0.2805,0.1072 l -0.210375,0.4579 q -0.08662,-0.045 -0.22275,-0.087 -0.136125,-0.041 -0.268125,-0.041 -0.05775,0 -0.1155,0.01 -0.05363,0 -0.103125,0.025 -0.04537,0.021 -0.07425,0.058 -0.02888,0.037 -0.02888,0.099 0,0.082 0.06188,0.1237 0.066,0.041 0.1815,0.099 0.160875,0.078 0.268125,0.1444 0.10725,0.066 0.169125,0.1403 0.066,0.074 0.09488,0.1691 0.02887,0.095 0.02887,0.2227 0,0.132 -0.05775,0.2599 -0.05362,0.1279 -0.17325,0.2269 -0.119625,0.099 -0.30525,0.1609 -0.185625,0.062 -0.4455,0.062 -0.160875,0 -0.2928746,-0.021 -0.127875,-0.021 -0.226875,-0.049 -0.099,-0.033 -0.169125,-0.066 -0.066,-0.033 -0.103125,-0.054 l 0.210375,-0.4703 q 0.070125,0.041 0.218625,0.1032 0.1485,0.062 0.3588746,0.062 z" />
        <path
           inkscape:connector-curvature="0"
           id="path4479"
           style="font-style:italic;font-variant:normal;font-weight:bold;font-stretch:normal;font-size:4.125px;font-family:Ubuntu;-inkscape-font-specification:'Ubuntu Bold Italic';fill:#ffffff;fill-opacity:1"
           d="m 13.767889,1033.969 q -0.1155,0.3135 -0.235125,0.5858 -0.1155,0.2722 -0.243375,0.5197 -0.127875,0.2434 -0.264,0.4662 -0.136125,0.2227 -0.28875,0.4413 -0.111375,0.1609 -0.231,0.3259 -0.119625,0.165 -0.268125,0.297 -0.144375,0.132 -0.325875,0.2145 -0.177375,0.082 -0.4125,0.082 -0.144375,0 -0.2475,-0.029 -0.103125,-0.025 -0.193875,-0.07 l 0.185625,-0.4826 q 0.0825,0.033 0.1485,0.049 0.066,0.021 0.160875,0.021 0.144375,0 0.27225,-0.095 0.132,-0.091 0.218625,-0.2475 -0.10725,-0.4125 -0.198,-0.924 -0.08662,-0.5115 -0.119625,-1.155 l 0.631125,0 q 0.0041,0.1609 0.0165,0.3548 0.01237,0.1939 0.02887,0.3919 0.0165,0.1938 0.03712,0.3795 0.02063,0.1856 0.04537,0.3341 0.198,-0.297 0.3465,-0.66 0.152625,-0.363 0.284625,-0.8003 l 0.65175,0 z" />
      </g>
      <g
         transform="translate(-1.9985881,0.51938837)"
         id="text4481"
         style="font-style:normal;font-variant:normal;font-weight:normal;font-stretch:normal;font-size:8px;line-height:125%;font-family:Elegante;-inkscape-font-specification:Elegante;letter-spacing:0px;word-spacing:0px;fill:#404040;fill-opacity:1;stroke:none;stroke-width:1px;stroke-linecap:butt;stroke-linejoin:miter;stroke-opacity:1">
        <path
           inkscape:connector-curvature="0"
           id="path4512"
           style="font-style:normal;font-variant:normal;font-weight:normal;font-stretch:normal;font-size:4.375px;font-family:'Arial Black';-inkscape-font-specification:'Arial Black, ';fill:#404040;fill-opacity:1"
           d="m 19.333252,1033.2305 1.437683,0 q 0.42511,0 0.68573,0.1153 0.262756,0.1154 0.433655,0.3311 0.170898,0.2158 0.247803,0.5021 0.0769,0.2862 0.0769,0.6066 0,0.5021 -0.115357,0.7798 -0.11322,0.2755 -0.316162,0.4635 -0.202942,0.1859 -0.435791,0.2478 -0.318298,0.086 -0.576782,0.086 l -1.437683,0 0,-3.1317 z m 0.967712,0.7092 0,1.7111 0.237122,0 q 0.303345,0 0.431518,-0.066 0.128174,-0.068 0.200806,-0.235 0.07263,-0.1688 0.07263,-0.5447 0,-0.4978 -0.162354,-0.6815 -0.162353,-0.1837 -0.53833,-0.1837 l -0.241394,0 z" />
        <path
           inkscape:connector-curvature="0"
           id="path4514"
           style="font-style:normal;font-variant:normal;font-weight:normal;font-stretch:normal;font-size:4.375px;font-family:'Arial Black';-inkscape-font-specification:'Arial Black, ';fill:#404040;fill-opacity:1"
           d="m 22.727722,1033.2305 0.903626,0 1.179199,1.7325 0,-1.7325 0.91217,0 0,3.1317 -0.91217,0 -1.172791,-1.7197 0,1.7197 -0.910034,0 0,-3.1317 z" />
        <path
           inkscape:connector-curvature="0"
           id="path4516"
           style="font-style:normal;font-variant:normal;font-weight:normal;font-stretch:normal;font-size:4.375px;font-family:'Arial Black';-inkscape-font-specification:'Arial Black, ';fill:#404040;fill-opacity:1"
           d="m 26.201233,1035.3261 0.920715,-0.058 q 0.02991,0.2243 0.121765,0.3418 0.149537,0.1902 0.427246,0.1902 0.207215,0 0.318299,-0.096 0.11322,-0.098 0.11322,-0.2264 0,-0.1218 -0.106811,-0.2179 -0.106812,-0.096 -0.495606,-0.1816 -0.636597,-0.1431 -0.907898,-0.3802 -0.273437,-0.2372 -0.273437,-0.6046 0,-0.2414 0.138855,-0.455 0.140991,-0.2158 0.420837,-0.3375 0.281982,-0.1239 0.771179,-0.1239 0.600281,0 0.914307,0.2243 0.316162,0.2221 0.375976,0.7092 l -0.91217,0.053 q -0.03632,-0.2115 -0.153809,-0.3076 -0.115356,-0.096 -0.320434,-0.096 -0.168762,0 -0.254212,0.073 -0.08545,0.07 -0.08545,0.173 0,0.075 0.0705,0.1346 0.06836,0.062 0.324707,0.1154 0.63446,0.1367 0.907898,0.2777 0.275573,0.1388 0.399475,0.346 0.126037,0.2073 0.126037,0.4636 0,0.3012 -0.166626,0.5554 -0.166626,0.2542 -0.465698,0.3867 -0.299072,0.1303 -0.754089,0.1303 -0.79895,0 -1.106568,-0.3076 -0.307617,-0.3076 -0.348205,-0.7819 z" />
      </g>
      <path
         sodipodi:nodetypes="cccccccccccccccc"
         inkscape:connector-curvature="0"
         id="path4456"
         d="m 16,1029.3622 -2,4 1,0 -2,3 1,0 -2,3 1,0 -2,3 4,-4 -1,0 3,-3 -1,0 3,-3 -1,0 3,-4 z"
         style="fill:#c8c8c8;fill-opacity:1;fill-rule:evenodd;stroke:#ffffff;stroke-width:0.25;stroke-linecap:round;stroke-linejoin:round;stroke-miterlimit:4;stroke-dasharray:none;stroke-opacity:1" />
    </g>
  </g>
</svg>
