<?xml version="1.0" encoding="UTF-8" standalone="no"?>
<svg
   xmlns:dc="http://purl.org/dc/elements/1.1/"
   xmlns:cc="http://creativecommons.org/ns#"
   xmlns:rdf="http://www.w3.org/1999/02/22-rdf-syntax-ns#"
   xmlns:svg="http://www.w3.org/2000/svg"
   xmlns="http://www.w3.org/2000/svg"
   xmlns:sodipodi="http://sodipodi.sourceforge.net/DTD/sodipodi-0.dtd"
   xmlns:inkscape="http://www.inkscape.org/namespaces/inkscape"
   version="1.1"
   viewBox="0 0 32 32"
   id="svg2"
   inkscape:version="0.91 r13725"
   sodipodi:docname="thanks-osuosl.svg">
  <metadata
     id="metadata16">
    <rdf:RDF>
      <cc:Work
         rdf:about="">
        <dc:format>image/svg+xml</dc:format>
        <dc:type
           rdf:resource="http://purl.org/dc/dcmitype/StillImage" />
        <dc:title></dc:title>
      </cc:Work>
    </rdf:RDF>
  </metadata>
  <defs
     id="defs14" />
  <sodipodi:namedview
     pagecolor="#303030"
     bordercolor="#666666"
     borderopacity="1"
     objecttolerance="10"
     gridtolerance="10"
     guidetolerance="10"
     inkscape:pageopacity="0"
     inkscape:pageshadow="2"
     inkscape:window-width="1538"
     inkscape:window-height="1226"
     id="namedview12"
     showgrid="false"
     inkscape:zoom="30.15625"
     inkscape:cx="16"
     inkscape:cy="16"
     inkscape:window-x="1371"
     inkscape:window-y="522"
     inkscape:window-maximized="0"
     inkscape:current-layer="svg2" />
  <g
     fill-rule="evenodd"
     transform="translate(0 -1020.36)"
     fill="#808080"
     id="g4">
    <path
       d="m5 1032.86c-1 0-1 0-1 1v5c0 1 0 1 1 1h6c1 0 1 0 1-1v-5c0-1 0-1-1-1zm0 2c0-1 0-1 1-1h4c1 0 1 0 1 1v3c0 1 0 1-1 1h-4c-1 0-1 0-1-1z"
       id="path6" />
    <path
       d="m20 1032.86v1h-5c-1 0-1 0-1 1s0 1 1 1h4c1 0 1 0 1 1v2c0 1 0 1-1 1h-6v-1h5c1 0 1 0 1-1s0-1-1-1h-4c-1 0-1 0-1-1v-2c0-1 0-1 1-1z"
       id="path8" />
    <path
       d="m21 1032.86v6c0 1 0 1 1 1h6v-1h-5c-1 0-1 0-1-1v-5h-1"
       id="path10" />
  </g>
</svg>
