<?xml version="1.0" encoding="UTF-8" standalone="no"?>
<svg xmlns:rdf="http://www.w3.org/1999/02/22-rdf-syntax-ns#" xmlns="http://www.w3.org/2000/svg" version="1.1" xmlns:cc="http://creativecommons.org/ns#" xmlns:dc="http://purl.org/dc/elements/1.1/" viewBox="0 0 32 32">
<g transform="translate(0 -1020.36)">
<path fill="#808080" d="m5.10425 1038.19c-0.596193-0.058-0.917483-0.2779-1.02944-0.7037-0.019468-0.074-0.026656-0.1464-0.031771-0.3201l-0.00661-0.2243h0.459161 0.45916l0.00242 0.2029c0.00234 0.1967 0.00346 0.205 0.03615 0.2691 0.059799 0.1174 0.195938 0.1798 0.355872 0.1633 0.162214-0.017 0.26382-0.1084 0.293254-0.2644 0.02835-0.1503-0.00585-0.2534-0.122824-0.3704-0.094273-0.094-0.206587-0.1675-0.54095-0.3528-0.456486-0.2529-0.655985-0.4043-0.782987-0.5942-0.096786-0.1447-0.140759-0.3315-0.128585-0.5463 0.028951-0.5106 0.295739-0.7888 0.851771-0.8882 0.166367-0.03 0.549871-0.03 0.717616-0.0003 0.261247 0.046 0.438989 0.1275 0.575417 0.2634 0.153159 0.1525 0.204723 0.2988 0.216405 0.6139l0.00721 0.1944h-0.424981-0.424981l-0.00518-0.1465c-0.00605-0.1711-0.025936-0.2292-0.10187-0.2976-0.061948-0.056-0.120657-0.075-0.224744-0.075-0.100226 0-0.1611 0.019-0.217015 0.068-0.072109 0.063-0.093768 0.1192-0.093866 0.2421-0.0000717 0.095 0.00357 0.1138 0.032143 0.1624 0.064379 0.1095 0.18844 0.1967 0.574965 0.404 0.136612 0.073 0.290003 0.1584 0.340868 0.1892 0.327657 0.1982 0.513326 0.3987 0.58477 0.6318 0.03193 0.1041 0.031979 0.5305 0.0000837 0.6697-0.093694 0.4089-0.419275 0.6423-0.975034 0.699-0.116002 0.012-0.301101 0.014-0.396412 0zm10.9759-0.034c-0.314616-0.051-0.498203-0.1339-0.660228-0.2978-0.184352-0.1865-0.244397-0.3679-0.244897-0.7397l-0.000237-0.1765h0.44851 0.44851v0.1669c0 0.092 0.0059 0.1943 0.01306 0.2278 0.01846 0.086 0.0737 0.154 0.160364 0.1974 0.06379 0.032 0.08372 0.036 0.179402 0.036 0.09433 0 0.116297 0 0.177605-0.034 0.115752-0.057 0.1723-0.1773 0.16052-0.3419-0.01395-0.195-0.151279-0.3215-0.637131-0.5869-0.748203-0.4088-0.927312-0.6195-0.926764-1.0905 0.000706-0.6099 0.367214-0.9244 1.10785-0.9505 0.591808-0.021 0.978067 0.1299 1.13718 0.4439 0.06175 0.1218 0.07723 0.2009 0.08385 0.4283l0.0062 0.2123h-0.420093-0.420093v-0.1296c0-0.2105-0.04218-0.3015-0.166164-0.3587-0.07663-0.035-0.200781-0.042-0.280382-0.015-0.112783 0.038-0.187032 0.1537-0.18723 0.2914-0.000288 0.1958 0.09765 0.2883 0.579955 0.5472 0.317365 0.1704 0.438429 0.2435 0.577042 0.3485 0.291225 0.2206 0.39798 0.4331 0.397622 0.7912-0.000335 0.3369-0.07628 0.5726-0.237023 0.7356-0.134893 0.1367-0.319085 0.2279-0.564217 0.2793-0.15229 0.032-0.577532 0.041-0.733194 0.016zm3.21055-0.013c-0.470977-0.069-0.746452-0.2864-0.845886-0.6688-0.02032-0.078-0.02202-0.175-0.02562-1.4562l-0.0039-1.3724h0.430707 0.430706l0.0032 1.3425 0.0032 1.3425 0.02571 0.048c0.05756 0.1075 0.14534 0.1623 0.273298 0.1705 0.158825 0.01 0.266862-0.044 0.327348-0.1653l0.03744-0.075v-1.3317-1.3316h0.430908 0.430908l-0.0039 1.3724c-0.0043 1.5268 0.000514 1.4364-0.08614 1.6236-0.105207 0.2273-0.300496 0.382-0.580463 0.4598-0.209548 0.058-0.601523 0.077-0.847596 0.042zm7.15936-0.035c-0.398815-0.054-0.682836-0.2281-0.815047-0.4985-0.09565-0.1956-0.102463-0.2787-0.102332-1.2472 0.00012-0.7994 0.0063-0.9569 0.04327-1.1064 0.09345-0.3774 0.387145-0.6085 0.859429-0.6761 0.244214-0.035 0.622486-0.017 0.82477 0.038 0.280063 0.077 0.48824 0.2353 0.591756 0.4495 0.06963 0.1441 0.08561 0.2232 0.09302 0.4603l0.0064 0.2064h-0.424251-0.424252l-0.0074-0.1644c-0.0067-0.1484-0.01069-0.1708-0.04084-0.2298-0.03839-0.075-0.111552-0.1369-0.185545-0.1568-0.02734-0.01-0.0959-0.012-0.152355-0.01-0.08124 0-0.115009 0.01-0.161965 0.035-0.065 0.033-0.127902 0.1066-0.151413 0.176-0.02052 0.061-0.02902 1.7938-0.0093 1.889 0.01741 0.084 0.07328 0.1559 0.155258 0.2001 0.05277 0.028 0.08375 0.036 0.16213 0.04 0.14267 0.01 0.221232-0.018 0.298286-0.097 0.03665-0.038 0.06578-0.081 0.07475-0.111 0.01-0.033 0.0147-0.148 0.0147-0.3558v-0.3066h-0.173424-0.173424v-0.2452-0.2451h0.603993 0.603994l-0.00001 0.4814c0 0.6515-0.01469 0.7913-0.10206 0.9717-0.133813 0.2765-0.413905 0.4459-0.830831 0.5027-0.15382 0.021-0.420369 0.021-0.577349-0.0008zm-19.3724-0.064c0-0.013 0.083717-0.4742 0.186038-1.0256s0.242256-1.3057 0.310967-1.6761 0.124929-0.6785 0.124929-0.6847c0-0.01 0.294174-0.011 0.758629-0.011h0.758629l0.012695 0.063c0.00698 0.034 0.039317 0.2081 0.071856 0.3857 0.054516 0.2976 0.288944 1.568 0.470679 2.5508 0.041692 0.2254 0.073241 0.4125 0.070108 0.4156-0.00313 0-0.206797 0.01-0.452587 0.01-0.346762 0-0.448059 0-0.452102-0.015-0.00287-0.01-0.06213-0.4025-0.131699-0.8761-0.255749-1.7412-0.329267-2.2369-0.333486-2.2486-0.00794-0.022-0.017957 0.042-0.246351 1.5608-0.125088 0.8322-0.230536 1.5278-0.234329 1.5459l-0.0069 0.033h-0.45354c-0.439607 0-0.45354-0.0007-0.45354-0.023zm3.46438 0.014c-0.0063-0.01 0.06345-3.3741 0.07047-3.3967 0.0036-0.012 0.153897-0.015 0.698707-0.015 0.381739 0 0.693912 0 0.693717 0.01-0.0014 0.036 0.425957 2.6438 0.43211 2.637 0.0043 0 0.01378-0.049 0.02102-0.098 0.01563-0.1065 0.377671-2.3499 0.39809-2.4668l0.01411-0.081h0.69178 0.692746c0.0065 0.02 0.0774 3.4022 0.07147 3.4088-0.0045 0.01-0.196202 0.01-0.426022 0.01h-0.417853l-0.0016-0.048c-0.000864-0.026-0.0057-0.7274-0.01069-1.5578-0.005-0.8305-0.01268-1.51-0.01702-1.51-0.0043 0-0.08227 0.3996-0.173178 0.888-0.316964 1.7031-0.3636 1.9535-0.389824 2.0931l-0.0264 0.1405h-0.428401c-0.397686 0-0.428841 0-0.434543-0.021-0.0034-0.012-0.04446-0.2282-0.09129-0.4814-0.04683-0.2533-0.122174-0.6596-0.167424-0.903-0.120104-0.646-0.296558-1.5937-0.309088-1.6601-0.006-0.032-0.01329-0.06-0.01629-0.063-0.0063-0.01-0.02133 1.5423-0.02138 2.2003-0.000012 0.2439-0.0036 0.5525-0.0079 0.6857l-0.0078 0.2422h-0.416005c-0.228802 0-0.418481 0-0.421508-0.01zm11.2228-1.7193v-1.6923h0.631062 0.631062l0.182847 0.6249c0.100567 0.3437 0.280796 0.9586 0.400511 1.3665l0.217664 0.7415 0.003-0.1136c0.0016-0.062-0.007-0.6734-0.01914-1.3575-0.01216-0.6842-0.01991-1.2479-0.01722-1.2529 0.0027 0 0.192968-0.01 0.422839-0.01h0.417944l-0.003 1.6894-0.003 1.6893h-0.604823-0.604823l-0.416697-1.3665c-0.229184-0.7516-0.421925-1.387-0.428314-1.4119-0.0064-0.025-0.01407-0.043-0.01708-0.04-0.0077 0.01-0.0047 0.2564 0.01965 1.61 0.01175 0.6546 0.01914 1.1941 0.01641 1.1991-0.0027 0-0.190326 0.01-0.416883 0.01h-0.411924v-1.6924z"/>
</g>
</svg>
