<?xml version="1.0" encoding="UTF-8" standalone="no"?>
<!-- Created with Inkscape (http://www.inkscape.org/) -->

<svg
   xmlns:dc="http://purl.org/dc/elements/1.1/"
   xmlns:cc="http://creativecommons.org/ns#"
   xmlns:rdf="http://www.w3.org/1999/02/22-rdf-syntax-ns#"
   xmlns:svg="http://www.w3.org/2000/svg"
   xmlns="http://www.w3.org/2000/svg"
   xmlns:sodipodi="http://sodipodi.sourceforge.net/DTD/sodipodi-0.dtd"
   xmlns:inkscape="http://www.inkscape.org/namespaces/inkscape"
   width="32"
   height="32"
   viewBox="0 0 32 32"
   id="svg2"
   version="1.1"
   inkscape:version="0.91 r13725"
   sodipodi:docname="thanks-samsung.svg"
   inkscape:export-filename="/home/raster/C/wc/media/thanks-osuosl.png"
   inkscape:export-xdpi="45"
   inkscape:export-ydpi="45">
  <defs
     id="defs4" />
  <sodipodi:namedview
     id="base"
     pagecolor="#303030"
     bordercolor="#666666"
     borderopacity="1.0"
     inkscape:pageopacity="0"
     inkscape:pageshadow="2"
     inkscape:zoom="42.9375"
     inkscape:cx="16"
     inkscape:cy="16"
     inkscape:document-units="px"
     inkscape:current-layer="layer1"
     showgrid="true"
     units="px"
     inkscape:window-width="1947"
     inkscape:window-height="1519"
     inkscape:window-x="1563"
     inkscape:window-y="383"
     inkscape:window-maximized="0"
     inkscape:snap-smooth-nodes="true"
     inkscape:object-nodes="true"
     inkscape:object-paths="true"
     inkscape:snap-intersection-paths="true"
     inkscape:snap-nodes="true"
     inkscape:snap-global="false"
     inkscape:snap-bbox="true"
     inkscape:bbox-nodes="true"
     inkscape:bbox-paths="true"
     inkscape:snap-bbox-edge-midpoints="true"
     inkscape:snap-midpoints="true">
    <inkscape:grid
       type="xygrid"
       id="grid4155"
       units="px"
       spacingx="1"
       spacingy="1" />
  </sodipodi:namedview>
  <metadata
     id="metadata7">
    <rdf:RDF>
      <cc:Work
         rdf:about="">
        <dc:format>image/svg+xml</dc:format>
        <dc:type
           rdf:resource="http://purl.org/dc/dcmitype/StillImage" />
        <dc:title></dc:title>
      </cc:Work>
    </rdf:RDF>
  </metadata>
  <g
     inkscape:label="Layer 1"
     inkscape:groupmode="layer"
     id="layer1"
     transform="translate(0,-1020.3622)">
    <path
       style="fill:#808080;fill-opacity:1"
       d="m 5.1042518,1038.188 c -0.5961934,-0.058 -0.9174829,-0.2779 -1.0294422,-0.7037 -0.019468,-0.074 -0.026656,-0.1464 -0.031771,-0.3201 l -0.00661,-0.2243 0.4591606,0 0.4591605,0 0.00242,0.2029 c 0.00234,0.1967 0.00346,0.205 0.03615,0.2691 0.059799,0.1174 0.195938,0.1798 0.3558723,0.1633 0.1622138,-0.017 0.2638197,-0.1084 0.2932538,-0.2644 0.02835,-0.1503 -0.00585,-0.2534 -0.1228244,-0.3704 -0.094273,-0.094 -0.2065873,-0.1675 -0.5409496,-0.3528 -0.4564864,-0.2529 -0.6559851,-0.4043 -0.7829873,-0.5942 -0.096786,-0.1447 -0.140759,-0.3315 -0.1285847,-0.5463 0.028951,-0.5106 0.2957392,-0.7888 0.8517706,-0.8882 0.1663667,-0.03 0.5498708,-0.03 0.7176159,-3e-4 0.2612473,0.046 0.4389891,0.1275 0.5754172,0.2634 0.1531594,0.1525 0.204723,0.2988 0.2164054,0.6139 l 0.00721,0.1944 -0.4249807,0 -0.4249807,0 -0.00518,-0.1465 c -0.00605,-0.1711 -0.025936,-0.2292 -0.1018703,-0.2976 -0.061948,-0.056 -0.1206573,-0.075 -0.2247444,-0.075 -0.1002263,0 -0.1610997,0.019 -0.2170151,0.068 -0.072109,0.063 -0.093768,0.1192 -0.093866,0.2421 -7.17e-5,0.095 0.00357,0.1138 0.032143,0.1624 0.064379,0.1095 0.1884404,0.1967 0.5749653,0.404 0.1366124,0.073 0.2900028,0.1584 0.3408675,0.1892 0.3276566,0.1982 0.5133257,0.3987 0.5847695,0.6318 0.03193,0.1041 0.031979,0.5305 8.37e-5,0.6697 -0.093694,0.4089 -0.4192752,0.6423 -0.975034,0.699 -0.1160024,0.012 -0.3011008,0.014 -0.3964115,0 z m 10.9759042,-0.034 c -0.314616,-0.051 -0.498203,-0.1339 -0.660228,-0.2978 -0.184352,-0.1865 -0.244397,-0.3679 -0.244897,-0.7397 l -2.37e-4,-0.1765 0.44851,0 0.44851,0 0,0.1669 c 0,0.092 0.0059,0.1943 0.01306,0.2278 0.01846,0.086 0.0737,0.154 0.160364,0.1974 0.06379,0.032 0.08372,0.036 0.179402,0.036 0.09433,0 0.116297,0 0.177605,-0.034 0.115752,-0.057 0.1723,-0.1773 0.16052,-0.3419 -0.01395,-0.195 -0.151279,-0.3215 -0.637131,-0.5869 -0.748203,-0.4088 -0.927312,-0.6195 -0.926764,-1.0905 7.06e-4,-0.6099 0.367214,-0.9244 1.107847,-0.9505 0.591808,-0.021 0.978067,0.1299 1.137177,0.4439 0.06175,0.1218 0.07723,0.2009 0.08385,0.4283 l 0.0062,0.2123 -0.420093,0 -0.420093,0 0,-0.1296 c 0,-0.2105 -0.04218,-0.3015 -0.166164,-0.3587 -0.07663,-0.035 -0.200781,-0.042 -0.280382,-0.015 -0.112783,0.038 -0.187032,0.1537 -0.18723,0.2914 -2.88e-4,0.1958 0.09765,0.2883 0.579955,0.5472 0.317365,0.1704 0.438429,0.2435 0.577042,0.3485 0.291225,0.2206 0.39798,0.4331 0.397622,0.7912 -3.35e-4,0.3369 -0.07628,0.5726 -0.237023,0.7356 -0.134893,0.1367 -0.319085,0.2279 -0.564217,0.2793 -0.15229,0.032 -0.577532,0.041 -0.733194,0.016 z m 3.210551,-0.013 c -0.470977,-0.069 -0.746452,-0.2864 -0.845886,-0.6688 -0.02032,-0.078 -0.02202,-0.175 -0.02562,-1.4562 l -0.0039,-1.3724 0.430707,0 0.430706,0 0.0032,1.3425 0.0032,1.3425 0.02571,0.048 c 0.05756,0.1075 0.14534,0.1623 0.273298,0.1705 0.158825,0.01 0.266862,-0.044 0.327348,-0.1653 l 0.03744,-0.075 0,-1.3317 0,-1.3316 0.430908,0 0.430908,0 -0.0039,1.3724 c -0.0043,1.5268 5.14e-4,1.4364 -0.08614,1.6236 -0.105207,0.2273 -0.300496,0.382 -0.580463,0.4598 -0.209548,0.058 -0.601523,0.077 -0.847596,0.042 z m 7.159359,-0.035 c -0.398815,-0.054 -0.682836,-0.2281 -0.815047,-0.4985 -0.09565,-0.1956 -0.102463,-0.2787 -0.102332,-1.2472 1.2e-4,-0.7994 0.0063,-0.9569 0.04327,-1.1064 0.09345,-0.3774 0.387145,-0.6085 0.859429,-0.6761 0.244214,-0.035 0.622486,-0.017 0.82477,0.038 0.280063,0.077 0.48824,0.2353 0.591756,0.4495 0.06963,0.1441 0.08561,0.2232 0.09302,0.4603 l 0.0064,0.2064 -0.424251,0 -0.424252,0 -0.0074,-0.1644 c -0.0067,-0.1484 -0.01069,-0.1708 -0.04084,-0.2298 -0.03839,-0.075 -0.111552,-0.1369 -0.185545,-0.1568 -0.02734,-0.01 -0.0959,-0.012 -0.152355,-0.01 -0.08124,0 -0.115009,0.01 -0.161965,0.035 -0.065,0.033 -0.127902,0.1066 -0.151413,0.176 -0.02052,0.061 -0.02902,1.7938 -0.0093,1.889 0.01741,0.084 0.07328,0.1559 0.155258,0.2001 0.05277,0.028 0.08375,0.036 0.16213,0.04 0.14267,0.01 0.221232,-0.018 0.298286,-0.097 0.03665,-0.038 0.06578,-0.081 0.07475,-0.111 0.01,-0.033 0.0147,-0.148 0.0147,-0.3558 l 0,-0.3066 -0.173424,0 -0.173424,0 0,-0.2452 0,-0.2451 0.603993,0 0.603994,0 -10e-6,0.4814 c 0,0.6515 -0.01469,0.7913 -0.10206,0.9717 -0.133813,0.2765 -0.413905,0.4459 -0.830831,0.5027 -0.15382,0.021 -0.420369,0.021 -0.577349,-8e-4 z m -19.3723707,-0.064 c 0,-0.013 0.083717,-0.4742 0.1860382,-1.0256 0.102321,-0.5514 0.2422561,-1.3057 0.3109669,-1.6761 0.068711,-0.3704 0.1249286,-0.6785 0.1249286,-0.6847 0,-0.01 0.2941737,-0.011 0.7586288,-0.011 l 0.7586287,0 0.012695,0.063 c 0.00698,0.034 0.039317,0.2081 0.071856,0.3857 0.054516,0.2976 0.2889444,1.568 0.4706793,2.5508 0.041692,0.2254 0.073241,0.4125 0.070108,0.4156 -0.00313,0 -0.2067968,0.01 -0.4525873,0.01 -0.3467615,0 -0.4480592,0 -0.4521015,-0.015 -0.00287,-0.01 -0.06213,-0.4025 -0.1316987,-0.8761 -0.2557492,-1.7412 -0.3292667,-2.2369 -0.3334862,-2.2486 -0.00794,-0.022 -0.017957,0.042 -0.2463511,1.5608 -0.125088,0.8322 -0.2305361,1.5278 -0.2343291,1.5459 l -0.0069,0.033 -0.4535398,0 c -0.439607,0 -0.4535397,-7e-4 -0.4535397,-0.023 z m 3.4643847,0.014 c -0.0063,-0.01 0.06345,-3.3741 0.07047,-3.3967 0.0036,-0.012 0.153897,-0.015 0.698707,-0.015 0.381739,0 0.693912,0 0.693717,0.01 -0.0014,0.036 0.425957,2.6438 0.43211,2.637 0.0043,0 0.01378,-0.049 0.02102,-0.098 0.01563,-0.1065 0.377671,-2.3499 0.39809,-2.4668 l 0.01411,-0.081 0.69178,0 c 0.380479,0 0.692214,0 0.692746,0 0.0065,0.02 0.0774,3.4022 0.07147,3.4088 -0.0045,0.01 -0.196202,0.01 -0.426022,0.01 l -0.417853,0 -0.0016,-0.048 c -8.64e-4,-0.026 -0.0057,-0.7274 -0.01069,-1.5578 -0.005,-0.8305 -0.01268,-1.51 -0.01702,-1.51 -0.0043,0 -0.08227,0.3996 -0.173178,0.888 -0.316964,1.7031 -0.3636,1.9535 -0.389824,2.0931 l -0.0264,0.1405 -0.428401,0 c -0.397686,0 -0.428841,0 -0.434543,-0.021 -0.0034,-0.012 -0.04446,-0.2282 -0.09129,-0.4814 -0.04683,-0.2533 -0.122174,-0.6596 -0.167424,-0.903 -0.120104,-0.646 -0.296558,-1.5937 -0.309088,-1.6601 -0.006,-0.032 -0.01329,-0.06 -0.01629,-0.063 -0.0063,-0.01 -0.02133,1.5423 -0.02138,2.2003 -1.2e-5,0.2439 -0.0036,0.5525 -0.0079,0.6857 l -0.0078,0.2422 -0.416005,0 c -0.228802,0 -0.418481,0 -0.421508,-0.01 z m 11.222819,-1.7193 0,-1.6923 0.631062,0 0.631062,0 0.182847,0.6249 c 0.100567,0.3437 0.280796,0.9586 0.400511,1.3665 l 0.217664,0.7415 0.003,-0.1136 c 0.0016,-0.062 -0.007,-0.6734 -0.01914,-1.3575 -0.01216,-0.6842 -0.01991,-1.2479 -0.01722,-1.2529 0.0027,0 0.192968,-0.01 0.422839,-0.01 l 0.417944,0 -0.003,1.6894 -0.003,1.6893 -0.604823,0 -0.604823,0 -0.416697,-1.3665 c -0.229184,-0.7516 -0.421925,-1.387 -0.428314,-1.4119 -0.0064,-0.025 -0.01407,-0.043 -0.01708,-0.04 -0.0077,0.01 -0.0047,0.2564 0.01965,1.61 0.01175,0.6546 0.01914,1.1941 0.01641,1.1991 -0.0027,0 -0.190326,0.01 -0.416883,0.01 l -0.411924,0 0,-1.6924 z"
       id="path4610"
       inkscape:connector-curvature="0" />
  </g>
</svg>
