<?xml version="1.0" encoding="UTF-8" standalone="no"?>
<svg xmlns:rdf="http://www.w3.org/1999/02/22-rdf-syntax-ns#" xmlns="http://www.w3.org/2000/svg" version="1.1" xmlns:cc="http://creativecommons.org/ns#" xmlns:dc="http://purl.org/dc/elements/1.1/" viewBox="0 0 32 32">
<g transform="translate(0 -1020.36)" fill="#808080">
<path d="m16 4a12 12 0 0 0 -12 12 12 12 0 0 0 12 12 12 12 0 0 0 12 -12h-5a7.00002 7.00001 0 0 1 -7 7 7.00002 7.00001 0 0 1 -7 -7 7.00002 7.00001 0 0 1 7 -7v-5z" transform="translate(0 1020.36)"/>
<path d="m17 1023.36v5a7.00002 7.00001 0 0 1 7 7h5a12 12 0 0 0 -12 -12z"/>
</g>
</svg>
