<?xml version="1.0" encoding="UTF-8" standalone="no"?>
<svg xmlns:rdf="http://www.w3.org/1999/02/22-rdf-syntax-ns#" xmlns="http://www.w3.org/2000/svg" version="1.1" xmlns:cc="http://creativecommons.org/ns#" xmlns:dc="http://purl.org/dc/elements/1.1/" viewBox="0 0 32 32">
<g fill-rule="evenodd" transform="translate(0 -1020.36)" fill="#808080">
<path d="m5 1032.86c-1 0-1 0-1 1v5c0 1 0 1 1 1h6c1 0 1 0 1-1v-5c0-1 0-1-1-1zm0 2c0-1 0-1 1-1h4c1 0 1 0 1 1v3c0 1 0 1-1 1h-4c-1 0-1 0-1-1z"/>
<path d="m20 1032.86v1h-5c-1 0-1 0-1 1s0 1 1 1h4c1 0 1 0 1 1v2c0 1 0 1-1 1h-6v-1h5c1 0 1 0 1-1s0-1-1-1h-4c-1 0-1 0-1-1v-2c0-1 0-1 1-1z"/>
<path d="m21 1032.86v6c0 1 0 1 1 1h6v-1h-5c-1 0-1 0-1-1v-5h-1"/>
</g>
</svg>
