<?xml version="1.0" encoding="UTF-8" standalone="no"?>
<!-- Created with Inkscape (http://www.inkscape.org/) -->

<svg
   xmlns:dc="http://purl.org/dc/elements/1.1/"
   xmlns:cc="http://creativecommons.org/ns#"
   xmlns:rdf="http://www.w3.org/1999/02/22-rdf-syntax-ns#"
   xmlns:svg="http://www.w3.org/2000/svg"
   xmlns="http://www.w3.org/2000/svg"
   xmlns:sodipodi="http://sodipodi.sourceforge.net/DTD/sodipodi-0.dtd"
   xmlns:inkscape="http://www.inkscape.org/namespaces/inkscape"
   width="32"
   height="32"
   viewBox="0 0 32 32"
   id="svg2"
   version="1.1"
   inkscape:version="0.91 r13725"
   sodipodi:docname="thanks-gandi.svg"
   inkscape:export-filename="/home/raster/C/wc/media/thanks-osuosl.png"
   inkscape:export-xdpi="45"
   inkscape:export-ydpi="45">
  <defs
     id="defs4" />
  <sodipodi:namedview
     id="base"
     pagecolor="#303030"
     bordercolor="#666666"
     borderopacity="1.0"
     inkscape:pageopacity="0"
     inkscape:pageshadow="2"
     inkscape:zoom="42.9375"
     inkscape:cx="16"
     inkscape:cy="16"
     inkscape:document-units="px"
     inkscape:current-layer="layer1"
     showgrid="true"
     units="px"
     inkscape:window-width="1947"
     inkscape:window-height="1519"
     inkscape:window-x="656"
     inkscape:window-y="331"
     inkscape:window-maximized="0"
     inkscape:snap-smooth-nodes="true"
     inkscape:object-nodes="true"
     inkscape:object-paths="true"
     inkscape:snap-intersection-paths="true"
     inkscape:snap-nodes="true"
     inkscape:snap-global="false"
     inkscape:snap-bbox="true"
     inkscape:bbox-nodes="true"
     inkscape:bbox-paths="true"
     inkscape:snap-bbox-edge-midpoints="true"
     inkscape:snap-midpoints="true">
    <inkscape:grid
       type="xygrid"
       id="grid4155"
       units="px"
       spacingx="1"
       spacingy="1" />
  </sodipodi:namedview>
  <metadata
     id="metadata7">
    <rdf:RDF>
      <cc:Work
         rdf:about="">
        <dc:format>image/svg+xml</dc:format>
        <dc:type
           rdf:resource="http://purl.org/dc/dcmitype/StillImage" />
        <dc:title></dc:title>
      </cc:Work>
    </rdf:RDF>
  </metadata>
  <g
     inkscape:label="Layer 1"
     inkscape:groupmode="layer"
     id="layer1"
     transform="translate(0,-1020.3622)">
    <g
       transform="translate(3.5723097e-4,-9.2859004e-4)"
       id="g4">
      <path
         style="fill:#808080"
         inkscape:connector-curvature="0"
         d="m 16,4 a 4,4 0 0 0 -4,4 4,4 0 0 0 4,4 4,4 0 0 0 4,-4 4,4 0 0 0 -4,-4 z m 0,2 a 1.99998,1.99998 0 0 1 2,2 1.99998,1.99998 0 0 1 -2,2 1.99998,1.99998 0 0 1 -2,-2 1.99998,1.99998 0 0 1 2,-2 z"
         transform="translate(0,1020.36)"
         id="path6" />
      <path
         style="fill:none;stroke:#808080;stroke-width:2.79999995;stroke-linecap:round;stroke-linejoin:round"
         inkscape:connector-curvature="0"
         d="m 16,1035.64 c -2.27907,-0.9535 -4.5814,-2.2791 -6,-4"
         id="path8" />
      <path
         style="fill:none;stroke:#808080;stroke-width:2.79999995;stroke-linecap:round;stroke-linejoin:round"
         inkscape:connector-curvature="0"
         d="m 22,1031.64 c -1.69767,2.2636 -4.51961,3.1531 -6,4 -1.48039,0.8469 -4.60465,2.9384 -4.60465,6.186 0,3.2477 1.72863,5.183 4.86046,5.1396 3.13183,-0.043 4.72489,-1.4305 4.74419,-3.3256 0.0193,-1.8951 -1.63293,-2.7774 -2.16279,-2.7907 -0.529862,-0.013 -1.05832,0.07 -1.83721,0.7907"
         id="path10" />
    </g>
  </g>
</svg>
